/* XPM */
static const char * xpmODBCTestQ4_48[] = {
"48 48 402 2",
"  	c None",
". 	c #974C2E",
"+ 	c #9A4D2F",
"@ 	c #9C4F31",
"# 	c #9D5032",
"$ 	c #9D4F31",
"% 	c #9C4E30",
"& 	c #994E2F",
"* 	c #954F30",
"= 	c #B3130A",
"- 	c #CC1E1E",
"; 	c #D01F1F",
"> 	c #D21F1F",
", 	c #D52A2A",
"' 	c #D42323",
") 	c #D31F1F",
"! 	c #CC2121",
"~ 	c #9F2812",
"{ 	c #B80E06",
"] 	c #CA0000",
"^ 	c #CF0000",
"/ 	c #D20202",
"( 	c #E87E7E",
"_ 	c #F6D0D0",
": 	c #E88181",
"< 	c #D20000",
"[ 	c #CB0101",
"} 	c #A22610",
"| 	c #BC0E06",
"1 	c #CE0000",
"2 	c #D50202",
"3 	c #E14545",
"4 	c #F1A3A3",
"5 	c #E24C4C",
"6 	c #D60000",
"7 	c #D40000",
"8 	c #D00101",
"9 	c #A7240F",
"0 	c #C00E06",
"a 	c #D50404",
"b 	c #EE9898",
"c 	c #FEFAFA",
"d 	c #FEFEFE",
"e 	c #F7CECE",
"f 	c #E24242",
"g 	c #D70000",
"h 	c #D40101",
"i 	c #AB240E",
"j 	c #973116",
"k 	c #C63A35",
"l 	c #C40E06",
"m 	c #D50000",
"n 	c #E35454",
"o 	c #F4B9B9",
"p 	c #F9D9D9",
"q 	c #FCEDED",
"r 	c #FAE1E1",
"s 	c #DB0303",
"t 	c #D80101",
"u 	c #AF250F",
"v 	c #9D351A",
"w 	c #C82F2C",
"x 	c #C80503",
"y 	c #CF0909",
"z 	c #DA3435",
"A 	c #C74237",
"B 	c #C90E06",
"C 	c #D90101",
"D 	c #ED8B8B",
"E 	c #FBE6E6",
"F 	c #DF2F2F",
"G 	c #F19F9F",
"H 	c #F3ADAD",
"I 	c #EE8787",
"J 	c #DD0707",
"K 	c #DC0101",
"L 	c #B4250F",
"M 	c #C6261E",
"N 	c #D41919",
"O 	c #CE0808",
"P 	c #C3231C",
"Q 	c #B11E0C",
"R 	c #D40202",
"S 	c #D90000",
"T 	c #DB0000",
"U 	c #DF1010",
"V 	c #E53D3D",
"W 	c #C23F2E",
"X 	c #CF0E06",
"Y 	c #DE0606",
"Z 	c #E86060",
"` 	c #E34A4A",
" .	c #FCEEEE",
"..	c #E86363",
"+.	c #E01C1C",
"@.	c #DF0101",
"#.	c #E00101",
"$.	c #BE210E",
"%.	c #C5291B",
"&.	c #E11D1E",
"*.	c #D71515",
"=.	c #A1371B",
"-.	c #D50403",
";.	c #DE0000",
">.	c #E30000",
",.	c #E60000",
"'.	c #E70000",
").	c #E70101",
"!.	c #E91F1F",
"~.	c #E5423E",
"{.	c #C2432E",
"].	c #D8120A",
"^.	c #E20000",
"/.	c #E42929",
"(.	c #F5B8B8",
"_.	c #FAE3E3",
":.	c #ED8989",
"<.	c #E12828",
"[.	c #E10000",
"}.	c #E30202",
"|.	c #CC3728",
"1.	c #C3321E",
"2.	c #E6201E",
"3.	c #E70E0F",
"4.	c #DD0202",
"5.	c #D71C1B",
"6.	c #C41108",
"7.	c #DE0202",
"8.	c #ED0000",
"9.	c #F00000",
"0.	c #EF0000",
"a.	c #EE0202",
"b.	c #EF2626",
"c.	c #ED1212",
"d.	c #E80000",
"e.	c #E60909",
"f.	c #E73737",
"g.	c #F5B3B3",
"h.	c #FEFBFB",
"i.	c #EE8686",
"j.	c #DF0707",
"k.	c #EC2222",
"l.	c #EE1B1B",
"m.	c #F10000",
"n.	c #EC0000",
"o.	c #DF0E0E",
"p.	c #B82B1A",
"q.	c #AB250F",
"r.	c #D90303",
"s.	c #F20000",
"t.	c #F60000",
"u.	c #F70000",
"v.	c #F50000",
"w.	c #F40000",
"x.	c #F30000",
"y.	c #E40909",
"z.	c #E32323",
"A.	c #EE8484",
"B.	c #FEF8F8",
"C.	c #F29E9E",
"D.	c #DB1C1B",
"E.	c #C80905",
"F.	c #DA0101",
"G.	c #E50000",
"H.	c #F80000",
"I.	c #F90000",
"J.	c #EA0000",
"K.	c #E31B1B",
"L.	c #FAE0E0",
"M.	c #EC7676",
"N.	c #FDF5F5",
"O.	c #EC5656",
"P.	c #EE0000",
"Q.	c #DA0808",
"R.	c #C3221A",
"S.	c #A71F0D",
"T.	c #CF0303",
"U.	c #DA0000",
"V.	c #E40000",
"W.	c #FA0000",
"X.	c #EB0000",
"Y.	c #E11414",
"Z.	c #E44B4B",
"`.	c #F3ABAB",
" +	c #F5ABAB",
".+	c #D80000",
"++	c #D21919",
"@+	c #9C3016",
"#+	c #BE0301",
"$+	c #E00000",
"%+	c #E40303",
"&+	c #DF1414",
"*+	c #FCEBEB",
"=+	c #EA7878",
"-+	c #EE8E8E",
";+	c #F5B0B0",
">+	c #DF0000",
",+	c #CA0202",
"'+	c #B2150B",
")+	c #B01709",
"!+	c #D00000",
"~+	c #E90000",
"{+	c #E51C1C",
"]+	c #F8D2D2",
"^+	c #FEFDFD",
"/+	c #EA7979",
"(+	c #F0A0A0",
"_+	c #EE7272",
":+	c #AC1C0B",
"<+	c #C21006",
"[+	c #E00707",
"}+	c #DF4040",
"|+	c #F9DBDB",
"1+	c #E01111",
"2+	c #C11106",
"3+	c #A92C12",
"4+	c #D90301",
"5+	c #DE0808",
"6+	c #ED8D8D",
"7+	c #F2B2B2",
"8+	c #E55555",
"9+	c #DF0404",
"0+	c #D60602",
"a+	c #BF1F0C",
"b+	c #E97B7B",
"c+	c #DC2B2B",
"d+	c #DC1010",
"e+	c #B52911",
"f+	c #C92317",
"g+	c #E30303",
"h+	c #DE3232",
"i+	c #E98383",
"j+	c #F5C5C5",
"k+	c #D50101",
"l+	c #E51515",
"m+	c #C04432",
"n+	c #AC2F1A",
"o+	c #D81E1E",
"p+	c #DD0C0C",
"q+	c #DD0000",
"r+	c #D90C0C",
"s+	c #F8D5D5",
"t+	c #EA9090",
"u+	c #F2B9B9",
"v+	c #D30000",
"w+	c #DE1C1C",
"x+	c #DC3E3D",
"y+	c #A64329",
"z+	c #983017",
"A+	c #C4231F",
"B+	c #D11313",
"C+	c #E14D4D",
"D+	c #F7D9D9",
"E+	c #DF5E5E",
"F+	c #FAE8E8",
"G+	c #D92D2D",
"H+	c #D40303",
"I+	c #D5292A",
"J+	c #C6443D",
"K+	c #AC261C",
"L+	c #C51A1A",
"M+	c #C80202",
"N+	c #DC0000",
"O+	c #D70101",
"P+	c #E36262",
"Q+	c #F3C4C4",
"R+	c #DB5353",
"S+	c #D21010",
"T+	c #C80606",
"U+	c #CC3737",
"V+	c #AE4235",
"W+	c #AE0706",
"X+	c #B90909",
"Y+	c #C00000",
"Z+	c #C90000",
"`+	c #D10000",
" @	c #D83535",
".@	c #FCF2F2",
"+@	c #DE6D6D",
"@@	c #F1BEBE",
"#@	c #CC0000",
"$@	c #BF0000",
"%@	c #BB1313",
"&@	c #A41B12",
"*@	c #8D2810",
"=@	c #B60000",
"-@	c #C10000",
";@	c #D31D1D",
">@	c #E17474",
",@	c #FBEEEE",
"'@	c #DF7474",
")@	c #CA0303",
"!@	c #CD0000",
"~@	c #B50000",
"{@	c #AB0A04",
"]@	c #BE0000",
"^@	c #C70000",
"/@	c #CC0202",
"(@	c #D12A2A",
"_@	c #D44545",
":@	c #EFBABA",
"<@	c #EAA4A4",
"[@	c #CB0909",
"}@	c #C60000",
"|@	c #BD0000",
"1@	c #A21408",
"2@	c #B90000",
"3@	c #C20000",
"4@	c #D03333",
"5@	c #F3CECE",
"6@	c #E07B7B",
"7@	c #E48888",
"8@	c #CB0000",
"9@	c #B70100",
"0@	c #BB0000",
"a@	c #C80000",
"b@	c #C50000",
"c@	c #CB2424",
"d@	c #F5D7D7",
"e@	c #D75C5C",
"f@	c #ECB3B3",
"g@	c #C40202",
"h@	c #BA0000",
"i@	c #991E0C",
"j@	c #B10100",
"k@	c #B50D05",
"l@	c #B80C05",
"m@	c #C30000",
"n@	c #C40000",
"o@	c #C61515",
"p@	c #EAA8A8",
"q@	c #EAAAAA",
"r@	c #E7A0A0",
"s@	c #C10202",
"t@	c #A51E0C",
"u@	c #903515",
"v@	c #BA0602",
"w@	c #B80000",
"x@	c #AF0301",
"y@	c #8C250F",
"z@	c #AF0000",
"A@	c #B30000",
"B@	c #B40201",
"C@	c #8A3414",
"D@	c #B00E06",
"E@	c #C51111",
"F@	c #E38E8E",
"G@	c #E69C9C",
"H@	c #D35656",
"I@	c #BE0202",
"J@	c #BC0101",
"K@	c #9D210D",
"L@	c #912C11",
"M@	c #AE0000",
"N@	c #8A2810",
"O@	c #A20301",
"P@	c #A70000",
"Q@	c #A80100",
"R@	c #8E230E",
"S@	c #AA0E06",
"T@	c #E18686",
"U@	c #CA2B2B",
"V@	c #C51E1E",
"W@	c #B70101",
"X@	c #93250F",
"Y@	c #941C0B",
"Z@	c #A90000",
"`@	c #990D05",
" #	c #7F2810",
".#	c #8F1307",
"+#	c #A40E06",
"@#	c #C41212",
"##	c #D96666",
"$#	c #BC0000",
"%#	c #B30101",
"&#	c #8F240E",
"*#	c #940C05",
"=#	c #9F0E06",
"-#	c #B00000",
";#	c #C01010",
">#	c #D76868",
",#	c #AF0101",
"'#	c #8B240E",
")#	c #990E06",
"!#	c #AA0000",
"~#	c #BE1818",
"{#	c #D26161",
"]#	c #AA0101",
"^#	c #87240E",
"/#	c #930E06",
"(#	c #A40000",
"_#	c #BC2424",
":#	c #C12F2F",
"<#	c #B10000",
"[#	c #A40101",
"}#	c #81250F",
"|#	c #8D0E05",
"1#	c #9D0000",
"2#	c #A30000",
"3#	c #AB0000",
"4#	c #A20000",
"5#	c #80220D",
"                                                                                                ",
"                                                                                                ",
"                                                                                                ",
"                                                                                                ",
"                                                                                                ",
"                                                                                                ",
"                                                                                                ",
"                                          . + @ # # $ % & *                                     ",
"                                        = - ; > , ' ) > ; ! ~                                   ",
"                                        { ] ^ / ( _ : < ^ [ }                                   ",
"                                        | 1 < 2 3 4 5 6 7 8 9                                   ",
"                                        0 < a b c d e f g h i                                   ",
"                        j k             l m n d o p q r s t u           v w                     ",
"                        x y z A         B C D E F G H I J K L         M N O P                   ",
"                      Q R S T U V W     X Y Z c `  ...+.@.#.$.    %.&.J T S *.=.                ",
"                      -.;.>.,.'.).!.~.{.].^./.(._.:.<.;.[.}.|.1.2.3.'.'.,.>.4.5.                ",
"                    6.7.'.8.9.9.9.0.a.b.c.d.e.f.g.h.i.j.>.,.k.l.8.0.9.m.0.n.,.o.p.              ",
"                  q.r.>.n.s.t.u.t.v.w.x.9.8.d.y.z.A.B.C.>.d.n.9.x.v.t.u.v.s.n.>.D.              ",
"                  E.F.G.0.w.H.I.I.I.H.t.x.0.J.G.K.L.M.N.O.d.8.s.t.H.I.I.u.w.P.G.Q.R.            ",
"                S.T.U.V.8.x.u.I.I.W.I.H.v.m.X.G.Y.q Z.`. +'.P.x.t.I.I.I.t.x.n.>..+++@+          ",
"                #+] 6 $+d.0.x.t.H.H.H.u.w.9.J.%+&+*+=+-+;+,.n.s.t.u.u.t.x.P.'.>+m ,+'+          ",
"                  )+!+S ^.~+P.s.w.t.t.t.s.P.d.{+]+^+/+(+_+G.X.m.w.v.w.s.8.d.[..+1 :+            ",
"                      <+U.^.~+8.m.x.w.x.0.X.G.[+p B.}+|+1+G.X.0.m.s.9.8.d.^.S 2+                ",
"                        3+4+V.~+8.9.m.9.n.d.^.5+6+ .7+8+9+V.J.P.0.0.8.~+>.0+                    ",
"                            a+,.~+n.P.n.~+V.>+S b+|+c+d+>+V.~+n.8.n.~+G.e+                      ",
"                            f+g+'.~+J.~+,.$+T h+i+j+k+S ;.V.'.J.X.J.,.l+m+                      ",
"                        n+o+p+[.G.'.'.,.^.q+r+s+t+u+v+.+q+^.,.~+~+'.G.[.w+x+y+                  ",
"                    z+A+B+k+T $+>.V.V.^.;.S C+D+E+F+G+6 T $+>.,.,.G.^.$+U.H+I+J+                ",
"                  K+L+M+^ 6 T >+[.^.[.$+N+O+P+Q+R+N.S+7 S ;.[.>.>.>.[.>+U.6 1 T+U+V+            ",
"                W+X+Y+Z+`+g T q+>+$+;.N+S 2  @.@+@@@#@!+m U.q+>+$+$+;.q+T 6 !+Z+$@%@&@          ",
"                *@=@-@] `+g U.T N+N+T S 6 < ;@>@,@'@)@!@< m S T N+q+N+T U.6 `+Z+$@~@            ",
"                  {@]@^@^ 7 g .+.+.+g m < ^ /@(@_@:@<@[@!@`+7 6 g .+.+.+g 7 1 }@|@1@            ",
"                    2@3@] ^ < < < `+`+!+1 #@Z+^@4@5@6@7@Z+8@!@^ `+`+< v+`+^ Z+-@9@              ",
"                    1@0@3@^@] 8@] ] Z+Z+Z+a@^@b@c@d@e@f@g@}@^@a@a@Z+] 8@] ^@3@h@i@              ",
"                      j@2@]@Y+-@Y+Y+k@  l@m@n@m@o@p@q@r@s@-@t@u@v@Y+Y+-@Y+|@w@x@                ",
"                      y@z@A@~@=@B@C@    D@$@Y+-@E@F@G@H@I@J@K@    L@=@=@~@A@M@N@                ",
"                        O@P@Q@R@        S@h@]@Y+E@T@U@V@0@W@X@        Y@Z@P@`@                  ",
"                         #.#            +#=@0@]@@###$@$#w@%#&#            *#                    ",
"                                        =#-#=@h@;#>#$#2@~@,#'#                                  ",
"                                        )#!#-#~@~#{#w@~@z@]#^#                                  ",
"                                        /#(#!#M@_#:#<#M@Z@[#}#                                  ",
"                                        |#1#2#P@!#3#!#P@4#1#5#                                  ",
"                                                                                                ",
"                                                                                                ",
"                                                                                                ",
"                                                                                                ",
"                                                                                                ",
"                                                                                                "};
