/* XPM */
static const char * xpmAbout48[] = {
"48 48 498 2",
"  	c None",
". 	c #4C4C4C",
"+ 	c #A3A3A3",
"@ 	c #C7C7C7",
"# 	c #DADADA",
"$ 	c #ECECEC",
"% 	c #F9F9F9",
"& 	c #B5B5B5",
"* 	c #EDEDED",
"= 	c #FFFFFF",
"- 	c #FCFCFC",
"; 	c #F6F6F6",
"> 	c #F3F3F3",
", 	c #F2F2F2",
"' 	c #F5F5F5",
") 	c #F7F7F7",
"! 	c #FAFAFA",
"~ 	c #FEFEFE",
"{ 	c #393939",
"] 	c #C3C3C3",
"^ 	c #EEEEEE",
"/ 	c #EBEBEB",
"( 	c #EAEAEA",
"_ 	c #E8E8E8",
": 	c #E7E7E7",
"< 	c #E5E5E5",
"[ 	c #E3E3E3",
"} 	c #E2E2E2",
"| 	c #E0E0E0",
"1 	c #F4F4F4",
"2 	c #B1B1B1",
"3 	c #F0F0F0",
"4 	c #EFEFEF",
"5 	c #DEDEDE",
"6 	c #DDDDDD",
"7 	c #FDFDFD",
"8 	c #C8D2DF",
"9 	c #94AEC8",
"0 	c #789ABC",
"a 	c #668DB3",
"b 	c #658DB3",
"c 	c #7898BA",
"d 	c #91ABC5",
"e 	c #C0CCD7",
"f 	c #DBDBDB",
"g 	c #505050",
"h 	c #F8F8F8",
"i 	c #BFCEDD",
"j 	c #5F89B2",
"k 	c #36679B",
"l 	c #285B91",
"m 	c #35689C",
"n 	c #4173A5",
"o 	c #4D7CAC",
"p 	c #527EAD",
"q 	c #4C7BAB",
"r 	c #4172A3",
"s 	c #32669A",
"t 	c #36679A",
"u 	c #5B84AD",
"v 	c #AEBECD",
"w 	c #E4E4E4",
"x 	c #CBD9E5",
"y 	c #4675A6",
"z 	c #1F568E",
"A 	c #31679F",
"B 	c #5282B4",
"C 	c #739FCC",
"D 	c #8DB4DB",
"E 	c #BED5EA",
"F 	c #EBF2F8",
"G 	c #EEF3F9",
"H 	c #C3D8EC",
"I 	c #93B7DC",
"J 	c #83ADD8",
"K 	c #709FCD",
"L 	c #5081B2",
"M 	c #31659C",
"N 	c #4574A3",
"O 	c #B4C2CF",
"P 	c #DFDFDF",
"Q 	c #658EB7",
"R 	c #1C538D",
"S 	c #29629C",
"T 	c #4E83B8",
"U 	c #6D9ED0",
"V 	c #7CA9D5",
"W 	c #8BB3DA",
"X 	c #C1D5E9",
"Y 	c #FBFBFB",
"Z 	c #CBDCEF",
"` 	c #92B7DC",
" .	c #76A5D3",
"..	c #689BCF",
"+.	c #4B80B6",
"@.	c #2B6299",
"#.	c #5C84AC",
"$.	c #DCDCDC",
"%.	c #EFF3F6",
"&.	c #4071A5",
"*.	c #18528E",
"=.	c #326CA6",
"-.	c #538AC3",
";.	c #679BCF",
">.	c #75A4D3",
",.	c #E7ECF1",
"'.	c #F2F6FA",
").	c #99BCDF",
"!.	c #8AB2DA",
"~.	c #7DA9D5",
"{.	c #6FA0D2",
"].	c #6297CD",
"^.	c #538CC8",
"/.	c #3068A2",
"(.	c #406FA1",
"_.	c #D3D7DA",
":.	c #ECF0F3",
"<.	c #2C629A",
"[.	c #185391",
"}.	c #326EAA",
"|.	c #4D88C6",
"1.	c #5D94CC",
"2.	c #6B9DD0",
"3.	c #78A6D4",
"4.	c #85AFD8",
"5.	c #E4E8ED",
"6.	c #F1F1F1",
"7.	c #F1F4F8",
"8.	c #99BCDE",
"9.	c #8CB3DA",
"0.	c #80ABD6",
"a.	c #72A2D2",
"b.	c #6599CE",
"c.	c #5891CA",
"d.	c #4B89C6",
"e.	c #306DA8",
"f.	c #31679B",
"g.	c #3C6EA3",
"h.	c #14508E",
"i.	c #2B6AA9",
"j.	c #4181C1",
"k.	c #508CC7",
"l.	c #77A5D4",
"m.	c #8EB5DB",
"n.	c #BCCFE3",
"o.	c #C7D9EA",
"p.	c #93B8DD",
"q.	c #89B1DA",
"r.	c #7EAAD6",
"s.	c #669ACE",
"t.	c #5A92CB",
"u.	c #4D8AC7",
"v.	c #4082C2",
"w.	c #2A68A7",
"x.	c #40709F",
"y.	c #5E89B1",
"z.	c #0F4C89",
"A.	c #2162A1",
"B.	c #3578BC",
"C.	c #4282C3",
"D.	c #4F8BC7",
"E.	c #5B93CB",
"F.	c #689CCF",
"G.	c #73A3D3",
"H.	c #87B0D9",
"I.	c #BDCFE2",
"J.	c #E0E4E7",
"K.	c #E3E7EA",
"L.	c #C3D4E6",
"M.	c #97BADD",
"N.	c #7AA7D4",
"O.	c #6E9FD1",
"P.	c #6398CD",
"Q.	c #4182C3",
"R.	c #357ABF",
"S.	c #1E5E9F",
"T.	c #5D85AE",
"U.	c #E9E9E9",
"V.	c #C5D1DD",
"W.	c #0D4988",
"X.	c #175797",
"Y.	c #296FB5",
"Z.	c #4081C2",
"`.	c #4C89C6",
" +	c #6D9FD1",
".+	c #7FABD6",
"++	c #8FB5DC",
"@+	c #88B1D9",
"#+	c #82ADD7",
"$+	c #7BA8D5",
"%+	c #73A3D2",
"&+	c #699CD0",
"*+	c #6096CC",
"=+	c #558FC9",
"-+	c #4A88C6",
";+	c #4081C3",
">+	c #2970B8",
",+	c #155898",
"'+	c #BDC8D2",
")+	c #B4B4B4",
"!+	c #4A79A6",
"~+	c #0D4D8D",
"{+	c #1D63AA",
"]+	c #2A73BB",
"^+	c #3177BE",
"/+	c #3C7FC1",
"(+	c #4886C5",
"_+	c #538EC8",
":+	c #5C94CB",
"<+	c #659ACE",
"[+	c #81ACD7",
"}+	c #80ABD7",
"|+	c #7DA9D6",
"1+	c #6298CD",
"2+	c #5A92CA",
"3+	c #508CC8",
"4+	c #4786C4",
"5+	c #3D7FC2",
"6+	c #3278BE",
"7+	c #2972BA",
"8+	c #0F5BA8",
"9+	c #4A7BAA",
"0+	c #E6E6E6",
"a+	c #BECBD8",
"b+	c #0D4986",
"c+	c #0F579E",
"d+	c #1E69B2",
"e+	c #256FBA",
"f+	c #2D75BC",
"g+	c #387CC0",
"h+	c #669ACF",
"i+	c #7AA6D4",
"j+	c #8BB1D8",
"k+	c #9CBCDC",
"l+	c #AAC4DF",
"m+	c #B5CAE0",
"n+	c #C0D1E2",
"o+	c #CBD7E2",
"p+	c #4283C3",
"q+	c #2F77BD",
"r+	c #1C69B7",
"s+	c #0B5EB1",
"t+	c #0A539B",
"u+	c #B7C5D1",
"v+	c #638AB2",
"w+	c #0C4D8F",
"x+	c #105DAA",
"y+	c #1363B3",
"z+	c #206CB9",
"A+	c #2771BA",
"B+	c #3B7EC1",
"C+	c #4484C4",
"D+	c #AAC6E2",
"E+	c #528DC8",
"F+	c #3379BE",
"G+	c #1E6BB7",
"H+	c #0D60B2",
"I+	c #0A5EB1",
"J+	c #0755A3",
"K+	c #668DB5",
"L+	c #E1E1E1",
"M+	c #245B94",
"N+	c #0D5197",
"O+	c #1162B3",
"P+	c #0A5DB2",
"Q+	c #1B69B7",
"R+	c #4383C3",
"S+	c #A7C5E2",
"T+	c #5890CA",
"U+	c #548EC8",
"V+	c #4E8AC7",
"W+	c #4987C5",
"X+	c #4383C4",
"Y+	c #3D80C1",
"Z+	c #3579BF",
"`+	c #1867B6",
" @	c #0C5FB2",
".@	c #095DB1",
"+@	c #0759AA",
"@@	c #2965A2",
"#@	c #C4CDD6",
"$@	c #044383",
"%@	c #0C569E",
"&@	c #1364B4",
"*@	c #065BB0",
"=@	c #0158AE",
"-@	c #1263B4",
";@	c #2670BA",
">@	c #3A7DC0",
",@	c #A2C1E1",
"'@	c #4D89C6",
")@	c #4987C6",
"!@	c #397CC0",
"~@	c #236FB9",
"{@	c #044E98",
"]@	c #C7D0D9",
"^@	c #98AFC4",
"/@	c #024587",
"(@	c #0B57A1",
"_@	c #1464B4",
":@	c #0E60B2",
"<@	c #075CB0",
"[@	c #0057AE",
"}@	c #3077BD",
"|@	c #3F81C2",
"1@	c #A0C0E0",
"2@	c #4282C2",
"3@	c #3C7EC1",
"4@	c #1866B6",
"5@	c #085CB1",
"6@	c #055AB0",
"7@	c #024F9D",
"8@	c #9EB4CC",
"9@	c #D8D8D8",
"0@	c #7B99B8",
"a@	c #01468A",
"b@	c #0A56A4",
"c@	c #0F61B3",
"d@	c #0359AF",
"e@	c #0258AF",
"f@	c #89B1D9",
"g@	c #045AAF",
"h@	c #024F9F",
"i@	c #85A3C1",
"j@	c #D7D7D7",
"k@	c #6289AF",
"l@	c #00468C",
"m@	c #0655A3",
"n@	c #7DA8D4",
"o@	c #01509E",
"p@	c #6C92B9",
"q@	c #D5D5D5",
"r@	c #6187AD",
"s@	c #0453A2",
"t@	c #7CA7D3",
"u@	c #004F9E",
"v@	c #6E94BB",
"w@	c #D3D3D3",
"x@	c #7897B5",
"y@	c #00458B",
"z@	c #00509F",
"A@	c #7AA5D1",
"B@	c #004E9C",
"C@	c #88A6C5",
"D@	c #D1D1D1",
"E@	c #91A8BE",
"F@	c #004489",
"G@	c #78A4CF",
"H@	c #0B5FB1",
"I@	c #0055AB",
"J@	c #004D9A",
"K@	c #A4BBD1",
"L@	c #CFCFCF",
"M@	c #B8C1CB",
"N@	c #014386",
"O@	c #004C98",
"P@	c #0055AA",
"Q@	c #77A2CD",
"R@	c #0053A7",
"S@	c #014C96",
"T@	c #D1DAE3",
"U@	c #D2D2D2",
"V@	c #1F5790",
"W@	c #004993",
"X@	c #0052A5",
"Y@	c #1062B3",
"Z@	c #77A2CC",
"`@	c #0050A1",
" #	c #2966A3",
".#	c #CDCDCD",
"+#	c #5981A8",
"@#	c #00478D",
"##	c #004E9E",
"$#	c #1565B5",
"%#	c #76A0CB",
"&#	c #1162B4",
"*#	c #6E96BF",
"=#	c #CBCBCB",
"-#	c #A9B7C3",
";#	c #034688",
">#	c #024C97",
",#	c #0254A7",
"'#	c #1766B5",
")#	c #759FC9",
"!#	c #0052A4",
"~#	c #034D97",
"{#	c #C9D7E3",
"]#	c #3D6D9D",
"^#	c #014890",
"/#	c #03519E",
"(#	c #0558AC",
"_#	c #1A68B6",
":#	c #1666B5",
"<#	c #1262B4",
"[#	c #0E60B3",
"}#	c #749EC7",
"|#	c #0054A8",
"1#	c #5081B3",
"2#	c #C9C9C9",
"3#	c #AFBAC3",
"4#	c #05478A",
"5#	c #014B95",
"6#	c #0554A3",
"7#	c #1061B3",
"8#	c #1968B6",
"9#	c #739DC6",
"0#	c #0A5EB0",
"a#	c #0050A0",
"b#	c #074E97",
"c#	c #D7E1EC",
"d#	c #CECECE",
"e#	c #5C82A8",
"f#	c #0354A4",
"g#	c #095DB0",
"h#	c #1D6AB7",
"i#	c #739CC5",
"j#	c #065BAF",
"k#	c #0056AC",
"l#	c #0051A2",
"m#	c #004C97",
"n#	c #779DC4",
"o#	c #3A6B9C",
"p#	c #00478E",
"q#	c #004D99",
"r#	c #0052A3",
"s#	c #0359AD",
"t#	c #447FBB",
"u#	c #739AC2",
"v#	c #739BC3",
"w#	c #A4B8CC",
"x#	c #D9D9D9",
"y#	c #749FC9",
"z#	c #729DC9",
"A#	c #749FCB",
"B#	c #4E80B2",
"C#	c #C4C7C9",
"D#	c #255D95",
"E#	c #00478F",
"F#	c #004C99",
"G#	c #0055A9",
"H#	c #0259AE",
"I#	c #6791BC",
"J#	c #D0D0D0",
"K#	c #D6D6D6",
"L#	c #004B97",
"M#	c #326BA5",
"N#	c #F2F5F7",
"O#	c #3B6B9D",
"P#	c #004B96",
"Q#	c #638EBA",
"R#	c #CACACA",
"S#	c #4B7DB0",
"T#	c #EFF2F4",
"U#	c #CCCCCC",
"V#	c #5C83A9",
"W#	c #05488D",
"X#	c #004892",
"Y#	c #2A6AAB",
"Z#	c #5584B4",
"`#	c #5484B5",
" $	c #5486B8",
".$	c #5487BA",
"+$	c #5488BB",
"@$	c #5488BC",
"#$	c #5387BA",
"$$	c #5486BA",
"%$	c #5386B8",
"&$	c #004E9D",
"*$	c #064D94",
"=$	c #7197BE",
"-$	c #3F70A0",
";$	c #02488D",
">$	c #004C96",
",$	c #004E9A",
"'$	c #004F9F",
")$	c #004D9B",
"!$	c #034B92",
"~$	c #4B7DAE",
"{$	c #CCD5E0",
"]$	c #5B83AB",
"^$	c #225C98",
"/$	c #01488E",
"($	c #004891",
"_$	c #004992",
":$	c #004994",
"<$	c #004A94",
"[$	c #014991",
"}$	c #25619D",
"|$	c #668EB6",
"1$	c #BFCCD9",
"2$	c #93A9C0",
"3$	c #7A99B8",
"4$	c #6389B1",
"5$	c #658BB1",
"6$	c #7D9BBB",
"7$	c #9AB0C7",
"8$	c #C4CDD5",
"9$	c #000000",
"                                                                                                ",
"                                                                                                ",
"                                                                                                ",
"                                    . + @ # $ % % $ # @ + .                                     ",
"                              . & * = = - % ; > , ' ) ! ~ = * & .                               ",
"                          { ] ~ = ! ' ^ / ( _ : < [ } | | ( 1 ~ ~ ] {                           ",
"                        2 - = ! 1 , 3 4 * / ( _ : < [ } | 5 6 6 * 7 - 2                         ",
"                      6 = 7 % ) ' > , 3 8 9 0 a b c d e } | 5 6 f 5 4 = 6                       ",
"                  g 3 = ~ - ! h ) i j k l m n o p q r s t u v 5 6 f # w 7 3 g                   ",
"                g % ~ 7 ~ 7 - x y z A B C D E F G H I J K L M N O 6 f # P ! % g                 ",
"                3 ~ % ! - 7 Q R S T U V W X Y 7 ~ ~ Z ` J  ...+.@.#.$.f # $.! 3                 ",
"              6 = ) ) h %.&.*.=.-.;.>.J ` ,.; h ! 7 '.).!.~.{.].^./.(._.f # P 7 6               ",
"            2 = ; > ' :.<.[.}.|.1.2.3.4.` 5.6.> ' h 7.8.9.0.a.b.c.d.e.f._.f # < = 2             ",
"          { - h 4 6., g.h.i.j.k.1.2.l.J m.n.$ ^ 3 > o.p.q.r.a.s.t.u.v.w.x.$.f # 3 - {           ",
"          ] ~ * * 4 y.z.A.B.C.D.E.F.G.r.H.I I.J.K.L.M.W J N.O.P.c.u.Q.R.S.T.6 f 5 ~ ]           ",
"        . ~ 1 U./ V.W.X.Y.R.Z.`.c.P. + ..+4.!.m.++9.@+#+$+%+&+*+=+-+;+R.>+,+'+6 f * ~ .         ",
"        )+~ : _ U.!+~+{+]+^+/+(+_+:+<+O.>.$+.+[+#+}+|+3.a.2.1+2+3+4+5+6+7+8+9+5 6 6 ~ )+        ",
"        * ; w 0+a+b+c+d+e+f+g+C.`.=+1.h+i+j+k+l+m+n+o+ +F.1+E._+-+p+g+q+r+s+t+u+5 6 1 *         ",
"      . = $ } w v+w+x+y+z+A+^+B+C+`._+D+h ' > 6.^ $ ( 1+1.c.E+`.C+/+F+G+H+I+J+K+| 5 ( = .       ",
"      + = L+| } M+N+O+s+P+Q+]+F+B+R+-+S+Y h ; 1 6.4 * T+U+V+W+X+Y+Z+`+s+ @.@+@@@} | L+= +       ",
"      @ ! $.5 #@$@%@&@ @*@=@-@;@F+>@Z.,@~ Y % ) 1 , 3 '@)@C+Z.!@~@O+I+s+s+.@*@{@]@} | ! @       ",
"      # ; # $.^@/@(@_@:@<@=@[@[@.@r+}@B+|@C.1@! ) ' > 2@3@f+4@.@5@.@s+ @I+<@6@7@8@[ } h #       ",
"      $ 6.9@# 0@a@b@_@c@.@d@[@[@[@[@[@e@5@c@f@7 ! h ; 5@d@6@*@<@.@I+ @I+5@*@g@h@i@< [ ' $       ",
"      % $ j@9@k@l@m@O+O+s+6@[@[@[@[@[@[@[@[@n@7 7 Y % 6@g@*@<@5@I+s+s+.@<@6@d@o@p@: < , %       ",
"      % / q@j@r@l@s@H+_@:@<@=@[@[@[@[@[@[@[@t@! - ~ - <@6@<@5@I+s+ @I+5@*@d@=@u@v@_ : > %       ",
"      $ 4 w@q@x@y@z@.@-@O+s+g@[@[@[@[@[@[@[@A@; % - ~ 5@<@5@.@s+ @I+5@*@g@e@[@B@C@( _ ) $       ",
"      # 1 D@w@E@F@B@g@H+_@:@5@e@[@[@[@[@[@[@G@> ' h Y H@5@.@s+ @I+5@*@g@e@[@I@J@K@/ ( % #       ",
"      @ h L@D@M@N@O@P@5@O+-@ @*@[@[@[@[@[@=@Q@4 , ' )  @I+s+ @I+5@*@g@e@[@[@R@S@T@* / - @       ",
"      + = U@L@D@V@W@X@e@s+_@Y@I+6@[@[@=@e@d@Z@$ ^ 6.1 c@s+s+I+5@*@g@e@[@[@[@`@ #3 4 4 = +       ",
"      . = | .#L@+#@###[@6@H+$#c@I+*@d@d@g@6@%#_ / * 3 &#s+.@<@6@g@e@[@[@[@P@B@*#, 3 ' = .       ",
"        * 4 =#.#-#;#>#,#e@5@O+'#&@H+P+*@<@5@)#< : ( * Y@5@*@6@d@=@[@[@[@[@!#~#{#> , Y *         ",
"        )+7 .#=#.#]#^#/#(#6@ @$#_#:#<#[#I+I+}#L+w 0+U.H+6@d@e@[@[@[@[@[@|#B@1#) ' 1 = )+        ",
"        . ~ 0+2#=#3#4#5#6#5@5@7#'#G+8#:#y+Y@9#5 | [ 0+0#e@=@[@[@[@[@[@I@a#b#c#h ) ! ~ .         ",
"          ] 7 d#2#=#e#l@O@f#g# @-@'#h#Q+'#<#i## 6 P } j#[@[@[@[@[@[@k#l#m#n#- ! % = ]           ",
"          { - / @ 2#=#o#p#q#r#s#*@H@O+t#u#v#w#j@x#$.P y#z#A#[@[@[@I@l#O@B#~ 7 - 7 - {           ",
"            2 = # @ 2#C#D#E#F#`@G#[@H#I#=#d#J#w@K#x#f 5 L+[ e@[@|#a#L#M#N#- ~ ~ = 2             ",
"              6 7 U@@ 2#C#O#@#P###X@G#Q#@ R#.#J#U@q@9@# 6 | G#r#B@P#S#T#h ! 7 = 6               ",
"                3 % U#@ 2#=#V#W#X#F#u@Y#Z#`# $.$+$@$@$#$$$%$&$O@*$=$> ' ) % ~ 3                 ",
"                g % % D@@ 2#=#3#-$;$X#>$,$&$z@a#`@a#'$B@)$P#!$~${$4 6.> ) ~ % g                 ",
"                  g 3 7 x#@ 2#=#.#-#]$^$/$($_$:$<$:$_$[$}$|$1$U./ * 4 ; = 3 g                   ",
"                      6 = ( .#2#=#.#L@D@M@2$3$4$5$6$7$8$} w 0+_ U.* h = 6                       ",
"                        2 - 7 w U#=#.#L@D@w@q@j@9@# $.5 | } w : 1 ~ - 2                         ",
"                          { ] ~ 7 ^ P D@L@D@w@q@j@9@# $.L+$ ; ~ ~ ] {                           ",
"                              . & * = = h 1 4 / $ 6.; ! = = * & .                               ",
"                                    . + @ # $ % % $ # @ + .                                     ",
"                                            9$9$9$9$                                            ",
"                                                                                                ",
"                                                                                                "};
