/* XPM */
static const char * xpmDataSourceNameFile48[] = {
"48 48 699 2",
"  	c None",
". 	c #5482C5",
"+ 	c #90ADD8",
"@ 	c #8FB1DE",
"# 	c #769ACF",
"$ 	c #3D6CB6",
"% 	c #7298CE",
"& 	c #D7E5F4",
"* 	c #F3F8FC",
"= 	c #E5F0FA",
"- 	c #9DB4D8",
"; 	c #92B7E2",
"> 	c #DAEBF8",
", 	c #DAEAF8",
"' 	c #B6CFEB",
") 	c #3368B7",
"! 	c #5A97D8",
"~ 	c #C1DCF3",
"{ 	c #C4DCF3",
"] 	c #C7DDF4",
"^ 	c #C9DDF4",
"/ 	c #C5DDF4",
"( 	c #97BDE5",
"_ 	c #1B65BE",
": 	c #80B5E8",
"< 	c #ADCDF0",
"[ 	c #B4D0F0",
"} 	c #B7D2F1",
"| 	c #B9D4F2",
"1 	c #BBD6F4",
"2 	c #ADCFF0",
"3 	c #A7CBEF",
"4 	c #A6CBEF",
"5 	c #347ACA",
"6 	c #2058AB",
"7 	c #0F6DD3",
"8 	c #99C1EC",
"9 	c #A6C7EE",
"0 	c #AACCF0",
"a 	c #AED0F2",
"b 	c #AFD1F3",
"c 	c #9CC4EE",
"d 	c #8BB8E9",
"e 	c #90BBEA",
"f 	c #8CB9EA",
"g 	c #2C7FD8",
"h 	c #215EB5",
"i 	c #1962C0",
"j 	c #2379D9",
"k 	c #7DAFE7",
"l 	c #A2CBF1",
"m 	c #A5CDF2",
"n 	c #83B3EA",
"o 	c #6FA5E5",
"p 	c #156DD5",
"q 	c #1B65C4",
"r 	c #226DCB",
"s 	c #2376D9",
"t 	c #5A99E1",
"u 	c #97C5F0",
"v 	c #9CC9F1",
"w 	c #9FCBF2",
"x 	c #76ACE8",
"y 	c #5291E0",
"z 	c #357EDB",
"A 	c #035ED2",
"B 	c #0E61CC",
"C 	c #0A5AC9",
"D 	c #0058D1",
"E 	c #2B76D9",
"F 	c #93C3EF",
"G 	c #9CCCF3",
"H 	c #9FCEF3",
"I 	c #67A1E6",
"J 	c #508FE0",
"K 	c #3C80DC",
"L 	c #357ADB",
"M 	c #2A73D9",
"N 	c #1064D4",
"O 	c #2072D9",
"P 	c #065CD3",
"Q 	c #0957C8",
"R 	c #105FD2",
"S 	c #0054CF",
"T 	c #236ED6",
"U 	c #8CC1EF",
"V 	c #A0D2F5",
"W 	c #A3D4F6",
"X 	c #A4D5F6",
"Y 	c #5D9CE4",
"Z 	c #1965D4",
"` 	c #1764D3",
" .	c #0C5CD1",
"..	c #2D78D9",
"+.	c #2471D7",
"@.	c #2F7CDB",
"#.	c #0955C7",
"$.	c #407CD9",
"%.	c #0050CD",
"&.	c #1B66D4",
"*.	c #90C7F1",
"=.	c #A9DAF8",
"-.	c #B4E0F9",
";.	c #B7E1FA",
">.	c #90C1F0",
",.	c #286CD5",
"'.	c #145ED1",
").	c #1360D2",
"!.	c #87BFEE",
"~.	c #206BD5",
"{.	c #6CA5E6",
"].	c #6EADE6",
"^.	c #0D55C5",
"/.	c #487ED9",
"(.	c #0851CC",
"_.	c #004CCA",
":.	c #6DA7E7",
"<.	c #B6E2FA",
"[.	c #C3E9FC",
"}.	c #C5EBFC",
"|.	c #C6ECFC",
"1.	c #AAD4F5",
"2.	c #336FD5",
"3.	c #2969D3",
"4.	c #75AFEA",
"5.	c #92C7F1",
"6.	c #1A62D1",
"7.	c #588BDD",
"8.	c #2D71CE",
"9.	c #195EC1",
"0.	c #3069D2",
"a.	c #5B8CDD",
"b.	c #97CAF2",
"c.	c #B8E5FB",
"d.	c #C8EDFD",
"e.	c #CBEFFD",
"f.	c #CDF0FE",
"g.	c #CEF1FE",
"h.	c #598DDE",
"i.	c #336CD3",
"j.	c #7EADE8",
"k.	c #B5E0F9",
"l.	c #78B0EA",
"m.	c #5E91DF",
"n.	c #386FD4",
"o.	c #3475C5",
"p.	c #0B4FC5",
"q.	c #9BBCEB",
"r.	c #BAE1F9",
"s.	c #C4EDFD",
"t.	c #D0F2FE",
"u.	c #D1F3FF",
"v.	c #D2F3FF",
"w.	c #BEE2F9",
"x.	c #B3D9F6",
"y.	c #A3CDF2",
"z.	c #6E9EE3",
"A.	c #C9E5F9",
"B.	c #5E97DF",
"C.	c #235DA0",
"D.	c #3878CB",
"E.	c #376BD0",
"F.	c #DEF4FE",
"G.	c #DAF4FE",
"H.	c #D3F3FF",
"I.	c #D4F4FF",
"J.	c #D6F4FF",
"K.	c #D7F4FF",
"L.	c #D7F5FF",
"M.	c #D9F4FE",
"N.	c #DFF5FE",
"O.	c #C9ECFC",
"P.	c #5F99D2",
"Q.	c #6299DA",
"R.	c #E3F8FF",
"S.	c #EAF9FF",
"T.	c #E6F8FF",
"U.	c #E5F8FF",
"V.	c #E2F7FF",
"W.	c #E4F7FF",
"X.	c #E9F9FF",
"Y.	c #D6F4FE",
"Z.	c #77ACDD",
"`.	c #7DADDD",
" +	c #C4E7F9",
".+	c #E2F0FB",
"++	c #F1FBFF",
"@+	c #F2FCFF",
"#+	c #EFFBFF",
"$+	c #E8F9FF",
"%+	c #CDEEFC",
"&+	c #86B5E1",
"*+	c #6C95D6",
"=+	c #2753C6",
"-+	c #5678D2",
";+	c #829DDE",
">+	c #869FDF",
",+	c #6988D8",
"'+	c #7495DD",
")+	c #A8CBEB",
"!+	c #668BB8",
"~+	c #687AA8",
"{+	c #879CCC",
"]+	c #7C91C0",
"^+	c #586DA1",
"/+	c #435580",
"(+	c #898989",
"_+	c #B4B4B4",
":+	c #B3B3B3",
"<+	c #808080",
"[+	c #8A8A96",
"}+	c #D5D5D5",
"|+	c #BDBDBD",
"1+	c #71717B",
"2+	c #828282",
"3+	c #8C8C8C",
"4+	c #696969",
"5+	c #F5F5F5",
"6+	c #E3E3E3",
"7+	c #D4E0EF",
"8+	c #D2E3F6",
"9+	c #D6E7F8",
"0+	c #D9EAFA",
"a+	c #DDEEFC",
"b+	c #DEEFFD",
"c+	c #DBECFB",
"d+	c #D8E8F9",
"e+	c #D4E4F6",
"f+	c #CFE0F3",
"g+	c #D7DFEA",
"h+	c #F6F6F6",
"i+	c #CDCDCD",
"j+	c #A0A0AD",
"k+	c #FBFBFB",
"l+	c #DFDFDF",
"m+	c #858591",
"n+	c #ECECEC",
"o+	c #EAEAEA",
"p+	c #D2E2F5",
"q+	c #D5E6F8",
"r+	c #DCEDFC",
"s+	c #D8E9F9",
"t+	c #D4E5F7",
"u+	c #D0E0F4",
"v+	c #D2DEEE",
"w+	c #EEEEEE",
"x+	c #535353",
"y+	c #FFFFFF",
"z+	c #5878A8",
"A+	c #3D7ED0",
"B+	c #4B8DD9",
"C+	c #599BE2",
"D+	c #66A9EA",
"E+	c #70B4F1",
"F+	c #73B7F3",
"G+	c #6BAFEE",
"H+	c #60A2E7",
"I+	c #5294DE",
"J+	c #4486D5",
"K+	c #3373CA",
"L+	c #C3D2EB",
"M+	c #D3D3D3",
"N+	c #91A1B9",
"O+	c #3B7CCF",
"P+	c #498BD8",
"Q+	c #5799E1",
"R+	c #64A7EA",
"S+	c #6FB3F1",
"T+	c #6DB0EF",
"U+	c #61A4E8",
"V+	c #5496DF",
"W+	c #4688D6",
"X+	c #3879CD",
"Y+	c #C3D3EB",
"Z+	c #F2F2F2",
"`+	c #575757",
" @	c #6787B3",
".@	c #3878CD",
"+@	c #5092DD",
"@@	c #5A9DE3",
"#@	c #63A6E9",
"$@	c #5EA1E6",
"%@	c #5698E0",
"&@	c #4B8CD9",
"*@	c #3E7FD1",
"=@	c #3171C9",
"-@	c #C5D5EC",
";@	c #C9C9C9",
">@	c #42425B",
",@	c #AAAAB4",
"'@	c #F8F8F8",
")@	c #9595A0",
"!@	c #7E9ECA",
"~@	c #3676CC",
"{@	c #4384D4",
"]@	c #4F91DC",
"^@	c #599CE2",
"/@	c #61A3E7",
"(@	c #5FA2E6",
"_@	c #4C8EDA",
":@	c #4081D2",
"<@	c #90B0DD",
"[@	c #E7E7E7",
"}@	c #6383B3",
"|@	c #2F6FC7",
"1@	c #3A7BCF",
"2@	c #4586D5",
"3@	c #5193DD",
"4@	c #5295DE",
"5@	c #498AD8",
"6@	c #3575CB",
"7@	c #2A69C4",
"8@	c #BBCBE4",
"9@	c #BFBFBF",
"0@	c #63636C",
"a@	c #7A7A8A",
"b@	c #5D5D72",
"c@	c #CFCFCF",
"d@	c #E6E6E6",
"e@	c #525266",
"f@	c #676774",
"g@	c #797985",
"h@	c #94A7C5",
"i@	c #2E6EC6",
"j@	c #397ACE",
"k@	c #4C8DDA",
"l@	c #5092DC",
"m@	c #4A8BD9",
"n@	c #4182D3",
"o@	c #3777CC",
"p@	c #2B6BC5",
"q@	c #B0C4E2",
"r@	c #DDDDDD",
"s@	c #5A78AE",
"t@	c #1755B7",
"u@	c #2E6EC7",
"v@	c #4283D3",
"w@	c #3B7BCF",
"x@	c #2867C3",
"y@	c #0E4CB1",
"z@	c #B6C5E0",
"A@	c #BCBCBC",
"B@	c #AEAEAE",
"C@	c #9C9CA9",
"D@	c #C4C4C4",
"E@	c #D7D7D7",
"F@	c #DADADA",
"G@	c #838390",
"H@	c #C5C5C5",
"I@	c #99A9C3",
"J@	c #0F4DB2",
"K@	c #2D6DC6",
"L@	c #3D7DD0",
"M@	c #4283D4",
"N@	c #3474CB",
"O@	c #1250B4",
"P@	c #D9D9D9",
"Q@	c #5F7DB3",
"R@	c #0643AD",
"S@	c #2463C0",
"T@	c #2C6BC5",
"U@	c #3272C9",
"V@	c #2968C4",
"W@	c #1C5BBB",
"X@	c #0B49B0",
"Y@	c #013EA9",
"Z@	c #B5C4DF",
"`@	c #B9B9B9",
" #	c #969696",
".#	c #888894",
"+#	c #BABABA",
"@#	c #CECECE",
"##	c #737380",
"$#	c #A5A5A5",
"%#	c #B5B5B5",
"&#	c #9EADC8",
"*#	c #0542AC",
"=#	c #114FB4",
"-#	c #2362BF",
";#	c #3070C8",
">#	c #2F6FC8",
",#	c #205FBE",
"'#	c #0C4AB1",
")#	c #023FA9",
"!#	c #6887BB",
"~#	c #1351B5",
"{#	c #2464C0",
"]#	c #2A6AC4",
"^#	c #2B6AC5",
"/#	c #2565C1",
"(#	c #1E5DBC",
"_#	c #1453B6",
":#	c #0947AF",
"<#	c #B5C4DE",
"[#	c #B6B6B6",
"}#	c #7B7B7B",
"|#	c #9A9A9A",
"1#	c #787883",
"2#	c #AFAFAF",
"3#	c #B1B1B1",
"4#	c #C1C1C1",
"5#	c #676773",
"6#	c #949494",
"7#	c #A5B4CE",
"8#	c #1B5ABA",
"9#	c #2665C2",
"0#	c #1F5EBD",
"a#	c #1654B7",
"b#	c #D1D1D1",
"c#	c #7190C1",
"d#	c #3A7ACE",
"e#	c #3E7ED1",
"f#	c #2160BE",
"g#	c #1553B6",
"h#	c #B6C5DF",
"i#	c #53535C",
"j#	c #666679",
"k#	c #6E6E81",
"l#	c #9E9E9E",
"m#	c #676779",
"n#	c #565666",
"o#	c #6A6A76",
"p#	c #ABBAD3",
"q#	c #1D5CBC",
"r#	c #2968C3",
"s#	c #2D6CC6",
"t#	c #2261BF",
"u#	c #B7C6E0",
"v#	c #FEFEFE",
"w#	c #7695C4",
"x#	c #4E90DB",
"y#	c #4F90DC",
"z#	c #4A8CD9",
"A#	c #4284D4",
"B#	c #B7C7DF",
"C#	c #B0B0B0",
"D#	c #89899A",
"E#	c #7B7B8D",
"F#	c #7B7B89",
"G#	c #909098",
"H#	c #84848C",
"I#	c #6D6D7A",
"J#	c #ADBDD4",
"K#	c #488AD8",
"L#	c #4485D5",
"M#	c #205FBD",
"N#	c #B8C7E0",
"O#	c #FCFCFC",
"P#	c #F9F9F9",
"Q#	c #F7F7F7",
"R#	c #F3F3F3",
"S#	c #F1F1F1",
"T#	c #EFEFEF",
"U#	c #EDEDED",
"V#	c #EBEBEB",
"W#	c #E9E9E9",
"X#	c #E5E5E5",
"Y#	c #DCDCDC",
"Z#	c #ADADAD",
"`#	c #919191",
" $	c #7A7A7A",
".$	c #4F4F59",
"+$	c #CBCBCB",
"@$	c #DBDBDB",
"#$	c #E8E8E8",
"$$	c #E2E2E2",
"%$	c #C0C0C0",
"&$	c #7F7F7F",
"*$	c #7C7C88",
"=$	c #ACACAC",
"-$	c #909090",
";$	c #5F5F6B",
">$	c #999999",
",$	c #D2D2D2",
"'$	c #CCCCCC",
")$	c #8B8B8B",
"!$	c #BEBEBE",
"~$	c #D4D4D4",
"{$	c #A4A4A4",
"]$	c #707070",
"^$	c #A2A2A2",
"/$	c #F0F0F0",
"($	c #F4F4F4",
"_$	c #787878",
":$	c #DEE2E7",
"<$	c #D0E1F4",
"[$	c #D4E4F7",
"}$	c #D7E8F9",
"|$	c #DDEEFD",
"1$	c #DAEBFA",
"2$	c #D6E6F8",
"3$	c #CEDEF2",
"4$	c #989898",
"5$	c #939393",
"6$	c #ABABAB",
"7$	c #E4E4E4",
"8$	c #E0E0E0",
"9$	c #E1E1E1",
"0$	c #777777",
"a$	c #5FA1E6",
"b$	c #6BAEEE",
"c$	c #71B4F2",
"d$	c #67AAEB",
"e$	c #5A9CE3",
"f$	c #5C8CD1",
"g$	c #868686",
"h$	c #A8A2A2",
"i$	c #A28B8B",
"j$	c #94807F",
"k$	c #7D7D7D",
"l$	c #C2C2C2",
"m$	c #BBBBBB",
"n$	c #979797",
"o$	c #686868",
"p$	c #4A8BD8",
"q$	c #5597E0",
"r$	c #5EA1E5",
"s$	c #62A5E8",
"t$	c #5B9EE4",
"u$	c #4687D6",
"v$	c #3979CE",
"w$	c #3975C9",
"x$	c #C04943",
"y$	c #B55552",
"z$	c #C7706D",
"A$	c #B24844",
"B$	c #776766",
"C$	c #676767",
"D$	c #3F80D2",
"E$	c #4D8FDB",
"F$	c #4586D6",
"G$	c #5A89CF",
"H$	c #AAAAAA",
"I$	c #AB4945",
"J$	c #D23932",
"K$	c #D08E8B",
"L$	c #DC9895",
"M$	c #B78786",
"N$	c #E5DDDD",
"O$	c #B3B1B1",
"P$	c #4A4A4A",
"Q$	c #0745AD",
"R$	c #3273C9",
"S$	c #3778CD",
"T$	c #4270BF",
"U$	c #A7A7A7",
"V$	c #D8322E",
"W$	c #E6534C",
"X$	c #D28784",
"Y$	c #D29593",
"Z$	c #CBBDBD",
"`$	c #B2AEAE",
" %	c #B26B6A",
".%	c #612826",
"+%	c #656565",
"@%	c #023FAA",
"#%	c #2868C3",
"$%	c #2F6EC7",
"%%	c #2C6CC6",
"&%	c #1756B8",
"*%	c #0441AB",
"=%	c #406EBE",
"-%	c #983F3D",
";%	c #DF2620",
">%	c #F5ABA7",
",%	c #E25754",
"'%	c #D8A09D",
")%	c #BB8B88",
"!%	c #956A69",
"~%	c #DF9998",
"{%	c #D16865",
"]%	c #705A59",
"^%	c #929292",
"/%	c #0D4AB1",
"(%	c #1755B8",
"_%	c #2766C2",
":%	c #1A58B9",
"<%	c #104EB3",
"[%	c #4472C1",
"}%	c #A22E2C",
"|%	c #EB5651",
"1%	c #FAD7D3",
"2%	c #F76C69",
"3%	c #DF8D8A",
"4%	c #DAA3A0",
"5%	c #CA928F",
"6%	c #C38887",
"7%	c #C0A1A1",
"8%	c #E1E0E0",
"9%	c #797878",
"0%	c #1856B8",
"a%	c #3677CC",
"b%	c #3C7DD0",
"c%	c #3170C8",
"d%	c #1C5ABB",
"e%	c #4C7BC6",
"f%	c #A0A0A0",
"g%	c #982926",
"h%	c #F17971",
"i%	c #F7756F",
"j%	c #F85D58",
"k%	c #F54744",
"l%	c #DC9E9B",
"m%	c #D89F9C",
"n%	c #B38583",
"o%	c #A99494",
"p%	c #5A0E0B",
"q%	c #4788D7",
"r%	c #2665C1",
"s%	c #5382CB",
"t%	c #9D9D9D",
"u%	c #972F2C",
"v%	c #F2756A",
"w%	c #F11A15",
"x%	c #F51612",
"y%	c #F54D45",
"z%	c #EA3D39",
"A%	c #D49592",
"B%	c #D49895",
"C%	c #B08381",
"D%	c #AA7473",
"E%	c #AC3D39",
"F%	c #C4D4EA",
"G%	c #C6D6EB",
"H%	c #C7D7EB",
"I%	c #C8D8EB",
"J%	c #C8D8EA",
"K%	c #C7D7E9",
"L%	c #C4D5E7",
"M%	c #C0D1E4",
"N%	c #BCCCE0",
"O%	c #B7C7DC",
"P%	c #B1C1D8",
"Q%	c #BAC6D8",
"R%	c #8D8D8D",
"S%	c #863330",
"T%	c #E63B33",
"U%	c #EB1510",
"V%	c #EE1410",
"W%	c #EA120E",
"X%	c #E21E16",
"Y%	c #D93530",
"Z%	c #CD8380",
"`%	c #CB8B88",
" &	c #C58381",
".&	c #BD6E6B",
"+&	c #2A0200",
"@&	c #797979",
"#&	c #CACACA",
"$&	c #D0D0D0",
"%&	c #B2B2B2",
"&&	c #A1A1A1",
"*&	c #636363",
"=&	c #54211E",
"-&	c #DA3530",
";&	c #E0140C",
">&	c #DF120C",
",&	c #D90F0A",
"'&	c #D20D08",
")&	c #C50B06",
"!&	c #BF1E19",
"~&	c #C05652",
"{&	c #C3706D",
"]&	c #B54844",
"^&	c #200200",
"/&	c #D6D6D6",
"(&	c #B7B7B7",
"_&	c #616161",
":&	c #AC3C38",
"<&	c #C60E07",
"[&	c #C30C06",
"}&	c #BC0A05",
"|&	c #B50904",
"1&	c #AB0803",
"2&	c #A00B06",
"3&	c #9C0D09",
"4&	c #920D0A",
"5&	c #620C08",
"6&	c #FDFDFD",
"7&	c #DEDEDE",
"8&	c #5C5C5C",
"9&	c #1D1919",
"0&	c #6F221F",
"a&	c #9D120D",
"b&	c #A10703",
"c&	c #9E0703",
"d&	c #960603",
"e&	c #8E0804",
"f&	c #850E0B",
"g&	c #470806",
"h&	c #272121",
"i&	c #343434",
"j&	c #4C4A4A",
"k&	c #503938",
"l&	c #552E2C",
"m&	c #522B29",
"n&	c #4A302E",
"o&	c #383636",
"p&	c #888888",
"                                          . + @ @ + # $                                         ",
"                                      % & * * * * * * = -                                       ",
"                                    ; > > > > , > > > > > ' )                                   ",
"                                  ! ~ ~ { ] ^ / ~ ~ ~ ~ ~ ~ (                                   ",
"                                _ : < [ } | 1 2 3 4 4 4 4 4 4 5                                 ",
"                              6 7 8 9 0 a b c d d d e f d d d g h                               ",
"                              i j k c l m n o o o o o o o o o p q                               ",
"                              r s t u v w x y y y y y y y y z A B                               ",
"                              C D D E F G H I J K L L L L M N O P                               ",
"                              Q R S S T U V W X Y Z Z `  ...+.R @.                              ",
"                              #.$.%.%.&.*.=.-.;.>.,.'.%.).!.~.{.].                              ",
"                              ^./.(._.:.<.[.}.|.1.2.2.3.4.5.6.7.8.                              ",
"                              9.0.a.b.c.d.e.f.g.g.h.i.j.k.l.m.n.o.                              ",
"                                p.q.r.s.g.t.u.v.v.w.x.g.y.z.A.B.C.                              ",
"                                D.E.F.G.H.I.J.K.L.J.I.H.M.N.O.P.                                ",
"                                  Q.g.R.S.T.U.V.V.W.U.X.U.Y.Z.                                  ",
"                                    `. +T..+++@+@+++#+$+%+&+                                    ",
"                                        *+=+-+;+>+,+'+)+!+                                      ",
"                                            ~+{+]+^+/+                                          ",
"  (+_+_+_+_+_+_+_+_+_+_+:+:+:+<+            [+}+|+1+            2+_+_+_+_+_+_+_+_+_+_+:+:+:+3+  ",
"4+5+6+7+8+9+0+a+b+c+d+e+f+g+h+i+            j+k+l+m+            n+o+7+p+q+0+r+b+r+s+t+u+v+h+w+x+",
"4+y+z+A+B+C+D+E+F+G+H+I+J+K+L+M+            j+k+l+m+            y+N+O+P+Q+R+S+F+T+U+V+W+X+Y+Z+`+",
"4+y+ @.@J++@@@U+#@$@%@&@*@=@-@;@      >@>@>@,@'@6+)@>@>@>@      y+!@~@{@]@^@/@#@(@Q+_@:@K+<@[@`+",
"4+y+}@|@1@2@_@3@4@]@5@:@6@7@8@9@0@a@b@c@o+o+o+o+o+o+o+o+d@e@f@g@y+h@i@j@{@k@3@4@l@m@n@o@p@q@r@`+",
"4+y+s@t@u@o@A+n@v@:@w@K+x@y@z@A@B@o+C@D@E@E@E@E@E@E@E@E@F@G@H@M+y+I@J@K@~@L@n@M@:@O+N@p@O@z@P@`+",
"4+y+Q@R@O@S@T@=@U@|@V@W@X@Y@Z@`@ #D@.#+#D@D@D@D@D@D@D@D@@###$#%#y+&#*#=#-#p@;#U@>#7@,#'#)#Z@}+`+",
"4+y+!#~#W@{#]#K@K@^#/#(#_#:#<#[#}#|#1#2#3#3#3#3#3#3#3#3#4#5#2+6#y+7#=#8#S@7@K@K@p@9#0#a#X@Z@b#`+",
"4+y+c#0#7@K+d#e#*@w@N@p@f#g#h#:+i#j#k#$#l#l#l#l#l#l#l#l#%#m#n#o#y+p#q#r#U@j@e#*@O+6@s#t#a#u#i+`+",
"4+v#w#7@~@n@P+x#y#z#A#.@p@(#B#C#      D#D#E#F#G#H#I#E#D#D#      v#J#x@6@:@K#x#y#B+L#j@K@M#N#;@`+",
"4+O#k+P#Q#5+R#S#T#U#V#W#[@X#Y#Z#            o#`# $.$            R#k+P#Q#5+R#S#T#U#V#W#[@X#Y#9@`+",
"  l#b#@#+$@$V##$X#$$l+%$:+C#Z#&$            *$=$-$;$            >$,$c@'$Y#V##$X#$$l+%$_+3#B@)$  ",
"        }#!$E@~$b#@#'${$]$        2#_+_+_+_+_+_+_+_+_+:+:+:+{$         $2#E@~$b#c@'$^$}#        ",
"      |#v#Z+V#/$Q#[@@#T#($_$    2#'@:$<$[$}$c+b+|$1$2$p+3$#$O#4$    5$($($X#W#Q#U#6$X#($>$      ",
"       #T#w+#$7$8$Y#9$n+[@0$    _+X#r#{@3@a$b$F+c$d$e$_@*@f$P#%#    g$h$i$j$Z#8$+#D@-$[@3+      ",
"        k$l#l$l$;@l$m$n$o$      _+[@;#A+p$q$r$#@s$t$3@u$v$w$S#2#      x$y$z$A$B$Y#'$C$o$        ",
"                                _+W#M#N@D$K#]@I+I+E$F$O+;#G$d@H$    I$J$K$L$M$N$O$P$            ",
"                                _+n+Q$-#R$d#D$M@n@*@S$>#M#T$6+U$    V$W$X$Y$Z$`$ %.%  +%%$      ",
"                                _+w+@%:#W@#%$%U@=@%%/#&%*%=%8$$#  -%;%>%,%'%)%!%~%{%]%9$^%      ",
"                                _+/$/%(%M#_%T@K@%%r#t#:%<%[%r@^$  }%|%1%2%3%4%5%6%7%8%9%        ",
"                                _+Z+0%S@u@a%b%*@A+X+c%_%d%e%F@f%  g%h%i%j%k%l%m%n%@$o%p%        ",
"                                _+S#t#|@w@2@_@]@E$q%*@K+r%s%E@t%  u%v%w%x%y%z%A%B%C%D%E%        ",
"                                :+Q#F%G%H%I%J%K%L%M%N%O%P%Q%i+R%  S%T%U%V%W%X%Y%Z%`% &.&+&      ",
"                                @&#&$&i+#&U#o+[@7$9$}+%#%&2#&&*&  =&-&;&>&,&'&)&!&~&{&]&^&      ",
"                                      *&>$,$/&M+$&i+(&n$_&          :&<&[&}&|&1&2&3&4&5&        ",
"                                      9$6&#$U#h+/$7&c@v#H@        8&9&0&a&b&c&d&e&f&g&h&        ",
"                                      c@/$n+d@$$l+7&[@/$!$      _&i&    j&k&l&m&n&o&            ",
"                                        ^%_+l$$&;@l$=$p&                                        ",
"                                                                                                "};
