/* XPM */
static const char * xpmDataSourceName48[] = {
"48 48 915 2",
"  	c None",
". 	c #000000",
"+ 	c #010101",
"@ 	c #848484",
"# 	c #CECECE",
"$ 	c #3F3F3F",
"% 	c #353535",
"& 	c #333333",
"* 	c #868686",
"= 	c #B8B8B8",
"- 	c #FAFAFA",
"; 	c #F8F8F8",
"> 	c #C2C2C2",
", 	c #262626",
"' 	c #0E0605",
") 	c #A87C7A",
"! 	c #C98481",
"~ 	c #E19B99",
"{ 	c #CB7672",
"] 	c #B87572",
"^ 	c #664644",
"/ 	c #020000",
"( 	c #656565",
"_ 	c #D8D8D8",
": 	c #F1F1F1",
"< 	c #E4E4E4",
"[ 	c #D2D2D2",
"} 	c #B3B3B3",
"| 	c #171717",
"1 	c #483432",
"2 	c #DF9D98",
"3 	c #D26460",
"4 	c #B90D06",
"5 	c #BE211B",
"6 	c #C3312B",
"7 	c #C1241E",
"8 	c #D66561",
"9 	c #DE8380",
"0 	c #CA5A56",
"a 	c #BC5956",
"b 	c #310302",
"c 	c #666666",
"d 	c #DEDEDE",
"e 	c #EEEEEE",
"f 	c #E1E1E1",
"g 	c #D7D7D7",
"h 	c #6E6E6E",
"i 	c #210F0D",
"j 	c #E6867F",
"k 	c #C11810",
"l 	c #BC0E07",
"m 	c #984643",
"n 	c #A16A68",
"o 	c #A46D6B",
"p 	c #A8706E",
"q 	c #A86866",
"r 	c #9F4542",
"s 	c #C41F18",
"t 	c #CA3D37",
"u 	c #D87672",
"v 	c #5F4644",
"w 	c #3E3E3E",
"x 	c #E3E3E3",
"y 	c #ECECEC",
"z 	c #E0E0E0",
"A 	c #D6D6D6",
"B 	c #040404",
"C 	c #050000",
"D 	c #C7564E",
"E 	c #E77771",
"F 	c #BE0D06",
"G 	c #C32E28",
"H 	c #9D6866",
"I 	c #D38D8B",
"J 	c #D88F8D",
"K 	c #DC9492",
"L 	c #DF9795",
"M 	c #E39A98",
"N 	c #AF7372",
"O 	c #A34744",
"P 	c #CF433F",
"Q 	c #BC615D",
"R 	c #63403F",
"S 	c #E2E2E2",
"T 	c #F6F6F6",
"U 	c #EAEAEA",
"V 	c #DFDFDF",
"W 	c #D5D5D5",
"X 	c #B2B2B2",
"Y 	c #969696",
"Z 	c #7B3735",
"` 	c #E57470",
" .	c #DE443A",
"..	c #C20C07",
"+.	c #C74742",
"@.	c #CE8987",
"#.	c #D18D8A",
"$.	c #D5908E",
"%.	c #DA9491",
"&.	c #DE9795",
"*.	c #E09A99",
"=.	c #E39B9A",
"-.	c #B17776",
";.	c #A06261",
">.	c #AF7B7A",
",.	c #F0E2E2",
"'.	c #F4F4F4",
").	c #E7E7E7",
"!.	c #DDDDDD",
"~.	c #D4D4D4",
"{.	c #8E8E8E",
"].	c #0A0A0A",
"^.	c #403433",
"/.	c #D6605D",
"(.	c #DE3930",
"_.	c #E35D52",
":.	c #C70C07",
"<.	c #CA4743",
"[.	c #CC8A88",
"}.	c #D08E8A",
"|.	c #D4918F",
"1.	c #D89593",
"2.	c #DB9895",
"3.	c #DF9B98",
"4.	c #E29B9A",
"5.	c #A06C6B",
"6.	c #A18483",
"7.	c #F1ECEC",
"8.	c #F2F2F2",
"9.	c #E6E6E6",
"0.	c #DCDCDC",
"a.	c #999999",
"b.	c #676767",
"c.	c #B66866",
"d.	c #DB504D",
"e.	c #DF4239",
"f.	c #EB7469",
"g.	c #CD0D08",
"h.	c #CC3733",
"i.	c #CC8B89",
"j.	c #CF8F8C",
"k.	c #D49390",
"l.	c #D79693",
"m.	c #DB9896",
"n.	c #DD9B98",
"o.	c #936463",
"p.	c #967372",
"q.	c #EEEAEA",
"r.	c #EFEFEF",
"s.	c #E5E5E5",
"t.	c #B6B6B6",
"u.	c #848080",
"v.	c #302322",
"w.	c #090909",
"x.	c #383535",
"y.	c #D8605D",
"z.	c #D73A37",
"A.	c #DF453D",
"B.	c #F3958B",
"C.	c #D4150E",
"D.	c #D41A16",
"E.	c #CC8C89",
"F.	c #CF8F8D",
"G.	c #D29390",
"H.	c #D59794",
"I.	c #D89A98",
"J.	c #B57D7C",
"K.	c #947170",
"L.	c #EFEDED",
"M.	c #868383",
"N.	c #722928",
"O.	c #A03834",
"P.	c #340302",
"Q.	c #080808",
"R.	c #A4A4A4",
"S.	c #BEBEBE",
"T.	c #292929",
"U.	c #7F5D5D",
"V.	c #D9423F",
"W.	c #D01714",
"X.	c #DB3A36",
"Y.	c #F5A499",
"Z.	c #E2423C",
"`.	c #DC0F0A",
" +	c #D17572",
".+	c #D0928F",
"++	c #D29693",
"@+	c #D89A97",
"#+	c #CC8F8D",
"$+	c #9D8280",
"%+	c #EDEDED",
"&+	c #BABABA",
"*+	c #878383",
"=+	c #835F5F",
"-+	c #B26967",
";+	c #DB6C69",
">+	c #D77673",
",+	c #2F0301",
"'+	c #0D0D0D",
")+	c #B0B0B0",
"!+	c #FBFBFB",
"~+	c #AFAFAF",
"{+	c #131313",
"]+	c #4A4A4A",
"^+	c #B96260",
"/+	c #D62E2B",
"(+	c #D40F09",
"_+	c #DB100C",
":+	c #F3A299",
"<+	c #F0847C",
"[+	c #E20F0C",
"}+	c #DC4642",
"|+	c #D09692",
"1+	c #D49996",
"2+	c #D69C99",
"3+	c #D89B98",
"4+	c #D89C99",
"5+	c #996B69",
"6+	c #CCC1C1",
"7+	c #858181",
"8+	c #6E4E4E",
"9+	c #C48483",
"0+	c #EBA0A0",
"a+	c #E78988",
"b+	c #D14642",
"c+	c #D47673",
"d+	c #230201",
"e+	c #121212",
"f+	c #BDBDBD",
"g+	c #C9C9C9",
"h+	c #5A5A5A",
"i+	c #393939",
"j+	c #D85755",
"k+	c #D7322F",
"l+	c #D70F0A",
"m+	c #DF110C",
"n+	c #F5ACA5",
"o+	c #F7BBB5",
"p+	c #E92B27",
"q+	c #E71411",
"r+	c #D58E89",
"s+	c #D59B99",
"t+	c #D79D9B",
"u+	c #D79D9A",
"v+	c #D99F9C",
"w+	c #C68F8D",
"x+	c #9B706F",
"y+	c #958887",
"z+	c #6D6565",
"A+	c #7B5656",
"B+	c #C08382",
"C+	c #E49E9C",
"D+	c #E99F9D",
"E+	c #EBA1A1",
"F+	c #E58381",
"G+	c #C3130D",
"H+	c #BE4C47",
"I+	c #130101",
"J+	c #F9F9F9",
"K+	c #EBEBEB",
"L+	c #525252",
"M+	c #754C4B",
"N+	c #D63632",
"O+	c #D72622",
"P+	c #DF110B",
"Q+	c #E7332E",
"R+	c #F8C2BC",
"S+	c #F7C6C3",
"T+	c #F38B86",
"U+	c #ED110E",
"V+	c #E55451",
"W+	c #D69F9C",
"X+	c #D8A09D",
"Y+	c #D9A09D",
"Z+	c #BF8A87",
"`+	c #956665",
" @	c #704B4B",
".@	c #956564",
"+@	c #B9817F",
"@@	c #D89493",
"#@	c #E59D9C",
"$@	c #ECA1A1",
"%@	c #E17471",
"&@	c #CB3E38",
"*@	c #702926",
"=@	c #1C1918",
"-@	c #E9E9E9",
";@	c #A1A1A1",
">@	c #989898",
",@	c #5E5E5E",
"'@	c #8F4D4C",
")@	c #D6312D",
"!@	c #D9100A",
"~@	c #E3120D",
"{@	c #F0746D",
"]@	c #F9C7C2",
"^@	c #F8CCC8",
"/@	c #F8CECC",
"(@	c #EB2B28",
"_@	c #F11613",
":@	c #DC8D8A",
"<@	c #D7A29E",
"[@	c #D9A3A0",
"}@	c #DAA2A0",
"|@	c #DAA29F",
"1@	c #BC8885",
"2@	c #9D6F6E",
"3@	c #966967",
"4@	c #A77573",
"5@	c #B17A79",
"6@	c #E39C9B",
"7@	c #E59E9D",
"8@	c #E99F9E",
"9@	c #ECA2A1",
"0@	c #883533",
"a@	c #852723",
"b@	c #E7DCDB",
"c@	c #B7B7B7",
"d@	c #505050",
"e@	c #C85352",
"f@	c #DA3C39",
"g@	c #DC100A",
"h@	c #E5120E",
"i@	c #F6A7A0",
"j@	c #FBD9D6",
"k@	c #F9D0CD",
"l@	c #F9D5D2",
"m@	c #F8A3A1",
"n@	c #F41311",
"o@	c #EF3E3B",
"p@	c #D8A49F",
"q@	c #D9A4A0",
"r@	c #DAA3A0",
"s@	c #DAA09D",
"t@	c #CE9592",
"u@	c #AD7B7A",
"v@	c #BE8684",
"w@	c #C18886",
"x@	c #D69492",
"y@	c #E39D9C",
"z@	c #E69F9E",
"A@	c #AE8383",
"B@	c #EDE4E4",
"C@	c #F3F3F3",
"D@	c #939393",
"E@	c #C84744",
"F@	c #D62825",
"G@	c #DE100C",
"H@	c #E92722",
"I@	c #FACDC6",
"J@	c #FDE2DF",
"K@	c #F9D3CE",
"L@	c #F9D3CF",
"M@	c #F9D2CE",
"N@	c #F75350",
"O@	c #F81312",
"P@	c #E7716F",
"Q@	c #D8A39F",
"R@	c #D9A4A1",
"S@	c #DBA5A1",
"T@	c #DAA09E",
"U@	c #DA9F9C",
"V@	c #CE9492",
"W@	c #AD7A79",
"X@	c #CA8E8D",
"Y@	c #D69593",
"Z@	c #8C5F5E",
"`@	c #A98584",
" #	c #F0EDED",
".#	c #F0F0F0",
"+#	c #DADADA",
"@#	c #B5B5B5",
"##	c #888888",
"$#	c #282828",
"%#	c #CE4744",
"&#	c #D6201D",
"*#	c #E3120E",
"=#	c #EF5D56",
"-#	c #FACCC6",
";#	c #FDE1DE",
">#	c #FAD4D0",
",#	c #FAD0CB",
"'#	c #FACAC6",
")#	c #F9BBB5",
"!#	c #F91F1D",
"~#	c #F91B1B",
"{#	c #DF908D",
"]#	c #D9A5A1",
"^#	c #D99D9A",
"/#	c #B68180",
"(#	c #C88D8C",
"_#	c #865A5A",
":#	c #A28484",
"<#	c #8D8B8B",
"[#	c #161616",
"}#	c #D25754",
"|#	c #DB2D29",
"1#	c #F4857C",
"2#	c #F9BEB6",
"3#	c #FAC8C0",
"4#	c #F76B63",
"5#	c #F73330",
"6#	c #FAC0B9",
"7#	c #F98A82",
"8#	c #FC1313",
"9#	c #F73130",
"0#	c #DA9F9B",
"a#	c #D8A5A0",
"b#	c #DAA19E",
"c#	c #D99E9B",
"d#	c #DA9E9B",
"e#	c #7A5452",
"f#	c #A18282",
"g#	c #DBDBDB",
"h#	c #978989",
"i#	c #5F1614",
"j#	c #1A0201",
"k#	c #CE514F",
"l#	c #D8100A",
"m#	c #E4130E",
"n#	c #F8A096",
"o#	c #F9BAB1",
"p#	c #FAC2B9",
"q#	c #F7746D",
"r#	c #F51714",
"s#	c #F71513",
"t#	c #F95852",
"u#	c #FAC0B7",
"v#	c #FB504C",
"w#	c #FB1313",
"x#	c #F04B49",
"y#	c #E2AFAC",
"z#	c #D8A29F",
"A#	c #D8A19E",
"B#	c #D89E9C",
"C#	c #AF7B79",
"D#	c #968483",
"E#	c #B9B9B9",
"F#	c #9D9595",
"G#	c #8C5755",
"H#	c #9C0C05",
"I#	c #700804",
"J#	c #D06360",
"K#	c #DA120B",
"L#	c #E51C16",
"M#	c #F9AD9F",
"N#	c #F9B7AC",
"O#	c #F99E94",
"P#	c #F41713",
"Q#	c #F51713",
"R#	c #F81513",
"S#	c #F9746D",
"T#	c #FAAFA4",
"U#	c #F92A28",
"V#	c #F81313",
"W#	c #E75E5B",
"X#	c #E1AEAC",
"Y#	c #D6A09D",
"Z#	c #D8A29E",
"`#	c #D79F9C",
" $	c #D79C99",
".$	c #85625F",
"+$	c #B7B5B4",
"@$	c #BBBBBB",
"#$	c #A09595",
"$$	c #865D5D",
"%$	c #C38584",
"&$	c #C43F3A",
"*$	c #AB0D06",
"=$	c #170201",
"-$	c #CF6360",
";$	c #E63229",
">$	c #F7A7A4",
",$	c #F9B0A4",
"'$	c #F23C35",
")$	c #F31511",
"!$	c #F71512",
"~$	c #F81615",
"{$	c #F98278",
"]$	c #F99287",
"^$	c #F61815",
"/$	c #F31210",
"($	c #E16863",
"_$	c #DEAAA7",
":$	c #D49D9A",
"<$	c #D49D99",
"[$	c #D49B98",
"}$	c #D69B98",
"|$	c #805D5B",
"1$	c #A99D9C",
"2$	c #968887",
"3$	c #8A6060",
"4$	c #A16C6B",
"5$	c #D79392",
"6$	c #DC817E",
"7$	c #AE0E07",
"8$	c #5A0703",
"9$	c #C8625F",
"0$	c #D9120B",
"a$	c #E84137",
"b$	c #F68779",
"c$	c #EF1611",
"d$	c #F11511",
"e$	c #F31713",
"f$	c #F31612",
"g$	c #F51613",
"h$	c #F51411",
"i$	c #F51715",
"j$	c #F5776B",
"k$	c #F5665A",
"l$	c #F2130F",
"m$	c #F01511",
"n$	c #DD6A67",
"o$	c #DCA6A3",
"p$	c #D19996",
"q$	c #D19894",
"r$	c #D39895",
"s$	c #D59996",
"t$	c #D79996",
"u$	c #AB7674",
"v$	c #815858",
"w$	c #7D5453",
"x$	c #B87D7B",
"y$	c #B87D7C",
"z$	c #CD8988",
"A$	c #B82B25",
"B$	c #930903",
"C$	c #010000",
"D$	c #BD615F",
"E$	c #DF3F3A",
"F$	c #E9483C",
"G$	c #FA9D8C",
"H$	c #EF453C",
"I$	c #EE1610",
"J$	c #F31613",
"K$	c #F21411",
"L$	c #F11A14",
"M$	c #F26356",
"N$	c #F14B40",
"O$	c #EC120F",
"P$	c #EA120F",
"Q$	c #D9615D",
"R$	c #CC938F",
"S$	c #CF9491",
"T$	c #D09592",
"U$	c #D29592",
"V$	c #D39592",
"W$	c #D59693",
"X$	c #C38886",
"Y$	c #A3706F",
"Z$	c #BC807E",
"`$	c #AD7573",
" %	c #B77B79",
".%	c #BD524F",
"+%	c #A00903",
"@%	c #1D0000",
"#%	c #973936",
"$%	c #E46561",
"%%	c #E94539",
"&%	c #F78A7B",
"*%	c #E41410",
"=%	c #EC1510",
"-%	c #EF1411",
";%	c #F11411",
">%	c #F11310",
",%	c #F21511",
"'%	c #EF1410",
")%	c #E7130E",
"!%	c #E94335",
"~%	c #E72B23",
"{%	c #E6100C",
"]%	c #E3100C",
"^%	c #DF827F",
"/%	c #D69A97",
"(%	c #C98E89",
"_%	c #CB8E8B",
":%	c #CD908D",
"<%	c #CF928F",
"[%	c #D1928F",
"}%	c #D3918F",
"|%	c #C18381",
"1%	c #A26D6B",
"2%	c #BD7B7A",
"3%	c #B66765",
"4%	c #B83631",
"5%	c #400300",
"6%	c #5B0503",
"7%	c #E36561",
"8%	c #E73F33",
"9%	c #E9514B",
"0%	c #E0120C",
"a%	c #EA1510",
"b%	c #ED1611",
"c%	c #EE1510",
"d%	c #EE1310",
"e%	c #ED120F",
"f%	c #EB110E",
"g%	c #E9100C",
"h%	c #E2110A",
"i%	c #DF281D",
"j%	c #DF1F17",
"k%	c #DA0F08",
"l%	c #DA645F",
"m%	c #D2908D",
"n%	c #C67975",
"o%	c #C88986",
"p%	c #CA8B88",
"q%	c #CE8C89",
"r%	c #D08C88",
"s%	c #D08B88",
"t%	c #BF7D7B",
"u%	c #AF726F",
"v%	c #B6726E",
"w%	c #D0716E",
"x%	c #560501",
"y%	c #2C0301",
"z%	c #E16561",
"A%	c #DE3D36",
"B%	c #DC3D38",
"C%	c #E4150D",
"D%	c #E6150E",
"E%	c #EB140F",
"F%	c #EA140F",
"G%	c #E9130E",
"H%	c #E7120E",
"I%	c #E4110C",
"J%	c #DC0F08",
"K%	c #DA1B11",
"L%	c #D21009",
"M%	c #D20E08",
"N%	c #D10E08",
"O%	c #D5504C",
"P%	c #CF807B",
"Q%	c #CE8F8C",
"R%	c #C38380",
"S%	c #C68380",
"T%	c #C78381",
"U%	c #C7827F",
"V%	c #CA8380",
"W%	c #CA827F",
"X%	c #CE817F",
"Y%	c #B88584",
"Z%	c #C36865",
"`%	c #5D0601",
" &	c #030000",
".&	c #D66560",
"+&	c #DD4A45",
"@&	c #DA3632",
"#&	c #DC110A",
"$&	c #E3150D",
"%&	c #E5170D",
"&&	c #E7140D",
"*&	c #E7140F",
"=&	c #E6130E",
"-&	c #E6120E",
";&	c #E4120E",
">&	c #E2110C",
",&	c #DF0F0C",
"'&	c #DD0F0B",
")&	c #DB0F0A",
"!&	c #D30D08",
"~&	c #CF0D07",
"{&	c #C90C07",
"]&	c #D0413D",
"^&	c #CB5E5A",
"/&	c #D08482",
"(&	c #BC7B77",
"_&	c #BD7875",
":&	c #BE7977",
"<&	c #C07976",
"[&	c #C47A77",
"}&	c #C38381",
"|&	c #D59A97",
"1&	c #A10903",
"2&	c #9B3A36",
"3&	c #E06660",
"4&	c #D7312D",
"5&	c #DC120A",
"6&	c #DF130A",
"7&	c #E1150D",
"8&	c #E2150D",
"9&	c #E0140D",
"0&	c #E0110B",
"a&	c #DE110B",
"b&	c #DC100B",
"c&	c #DA0F0A",
"d&	c #D80E09",
"e&	c #D50D08",
"f&	c #CF0E08",
"g&	c #CB0C07",
"h&	c #C80C07",
"i&	c #C20A06",
"j&	c #C10A05",
"k&	c #BC0A04",
"l&	c #C4332E",
"m&	c #C1342F",
"n&	c #CD6864",
"o&	c #CE8A87",
"p&	c #B56E6B",
"q&	c #CD9B99",
"r&	c #D09A99",
"s&	c #DC9494",
"t&	c #CA625D",
"u&	c #970803",
"v&	c #3F0400",
"w&	c #DC6660",
"x&	c #D5302C",
"y&	c #D5110A",
"z&	c #D8110A",
"A&	c #DA110A",
"B&	c #DB110A",
"C&	c #D51009",
"D&	c #D31009",
"E&	c #D00E08",
"F&	c #C90D08",
"G&	c #C60A07",
"H&	c #C20A05",
"I&	c #BF0A05",
"J&	c #BB0905",
"K&	c #B50904",
"L&	c #B10904",
"M&	c #AF0804",
"N&	c #AD0803",
"O&	c #B32521",
"P&	c #BE3A38",
"Q&	c #C85C59",
"R&	c #C54B48",
"S&	c #BD3734",
"T&	c #B93533",
"U&	c #A62924",
"V&	c #8A0802",
"W&	c #1A0100",
"X&	c #B6635F",
"Y&	c #D2352F",
"Z&	c #CC0F07",
"`&	c #D01007",
" *	c #D20F08",
".*	c #D10F08",
"+*	c #CE0D07",
"@*	c #C60C07",
"#*	c #C40A06",
"$*	c #C00A05",
"%*	c #BD0905",
"&*	c #B90905",
"**	c #B60904",
"=*	c #B10903",
"-*	c #AC0903",
";*	c #A60703",
">*	c #B22723",
",*	c #AE120E",
"'*	c #AE0C09",
")*	c #A30603",
"!*	c #9A0603",
"~*	c #9A0602",
"{*	c #930603",
"]*	c #870702",
"^*	c #8B0602",
"/*	c #650702",
"(*	c #3D3D3D",
"_*	c #B7A7A7",
":*	c #B9130C",
"<*	c #C60D06",
"[*	c #C50E06",
"}*	c #C70E06",
"|*	c #C50C07",
"1*	c #C30C07",
"2*	c #BD0A05",
"3*	c #BC0905",
"4*	c #B90904",
"5*	c #B80905",
"6*	c #B20903",
"7*	c #AF0903",
"8*	c #A50703",
"9*	c #A20703",
"0*	c #9E0703",
"a*	c #990703",
"b*	c #940602",
"c*	c #A81D1A",
"d*	c #A41916",
"e*	c #A11916",
"f*	c #9F1B18",
"g*	c #9F211E",
"h*	c #9F241F",
"i*	c #9D2621",
"j*	c #170100",
"k*	c #060606",
"l*	c #A7A7A7",
"m*	c #6A6A6A",
"n*	c #653938",
"o*	c #B20C06",
"p*	c #BB0D06",
"q*	c #BA0D06",
"r*	c #B90B04",
"s*	c #B70A04",
"t*	c #B40A04",
"u*	c #B30903",
"v*	c #AF0803",
"w*	c #AE0803",
"x*	c #AB0703",
"y*	c #A90803",
"z*	c #9D0703",
"A*	c #9A0703",
"B*	c #950603",
"C*	c #910602",
"D*	c #8D0602",
"E*	c #880602",
"F*	c #860602",
"G*	c #800502",
"H*	c #800602",
"I*	c #7F0602",
"J*	c #7E0702",
"K*	c #280200",
"L*	c #020202",
"M*	c #787878",
"N*	c #707070",
"O*	c #4E4E4E",
"P*	c #210201",
"Q*	c #990903",
"R*	c #C23B36",
"S*	c #AE0A04",
"T*	c #AC0A04",
"U*	c #AA0803",
"V*	c #A80803",
"W*	c #A70803",
"X*	c #A30703",
"Y*	c #990603",
"Z*	c #930602",
"`*	c #8F0602",
" =	c #8A0602",
".=	c #850502",
"+=	c #830502",
"@=	c #860502",
"#=	c #820501",
"$=	c #7D0602",
"%=	c #720502",
"&=	c #1E0100",
"*=	c #5B5B5B",
"==	c #7F7F7F",
"-=	c #575757",
";=	c #202020",
">=	c #773A38",
",=	c #B43C37",
"'=	c #A60903",
")=	c #A40803",
"!=	c #A10703",
"~=	c #9F0703",
"{=	c #980703",
"]=	c #970703",
"^=	c #920602",
"/=	c #8B0502",
"(=	c #900502",
"_=	c #9A110E",
":=	c #9A1E1A",
"<=	c #962320",
"[=	c #440300",
"}=	c #0A0000",
"|=	c #3B3B3B",
"1=	c #606060",
"2=	c #323232",
"3=	c #3A3232",
"4=	c #643331",
"5=	c #933330",
"6=	c #9C0703",
"7=	c #9C0704",
"8=	c #9B0704",
"9=	c #9B0703",
"0=	c #9B0603",
"a=	c #960603",
"b=	c #900602",
"c=	c #8D0502",
"d=	c #9C1714",
"e=	c #9A1613",
"f=	c #89231F",
"g=	c #360300",
"h=	c #0C0000",
"i=	c #1F1F1F",
"j=	c #494949",
"k=	c #474747",
"l=	c #372D2D",
"m=	c #512E2C",
"n=	c #6C302E",
"o=	c #81312E",
"p=	c #91332E",
"q=	c #9E322E",
"r=	c #A1322E",
"s=	c #A1312D",
"t=	c #9A302B",
"u=	c #8F2E2A",
"v=	c #7D2B28",
"w=	c #6C2421",
"x=	c #57221F",
"y=	c #100000",
"z=	c #030303",
"A=	c #181818",
"B=	c #585858",
"C=	c #0E0E0E",
"D=	c #8A8A8A",
"E=	c #747474",
"F=	c #7D7D7D",
"G=	c #454545",
"H=	c #242424",
"I=	c #111111",
"J=	c #050505",
"K=	c #252525",
"L=	c #7A7A7A",
"M=	c #727272",
"N=	c #232323",
"O=	c #777777",
"P=	c #686868",
"Q=	c #5F5F5F",
"R=	c #5C5C5C",
"S=	c #6B6B6B",
"T=	c #797979",
"U=	c #404040",
"V=	c #2E2E2E",
"                                                                                                ",
"                                                                                                ",
"                                                              . .                               ",
"                                                            + @ # $                             ",
"                            . % & & . . .                 * = - ; > ,                           ",
"                          ' ) ! ~ ~ { ] ^ / .           ( _ - : < [ } |                         ",
"                        1 2 3 4 5 6 7 8 9 0 a b .     c d - e f g } h |                         ",
"                      i j k l m n o p q r s t u v . w x ; y z A } * B                           ",
"                    C D E F G H I J K L M N O P Q R S T U V W X Y +                             ",
"                  . Z `  ...+.@.#.$.%.&.*.=.-.;.>.,.'.).!.~.X {.].                              ",
"                  ^./.(._.:.<.[.}.|.1.2.3.4.5.6.7.8.9.0.[ a.b.].                                ",
"                . c.d.e.f.g.h.i.j.k.l.m.n.o.p.q.r.s.0.t.u.v.w.                .                 ",
"                x.y.z.A.B.C.D.E.F.G.H.I.J.K.L.e s.0.= M.N.O.P..             Q.R.S.T.            ",
"                U.V.W.X.Y.Z.`. +.+++H.@+#+$+%+s.0.&+*+=+-+;+>+,+.         '+)+!+'.~+{+          ",
"              ]+^+/+(+_+:+<+[+}+|+1+2+3+4+5+6+!.&+7+8+9+0+a+b+c+d+.   . e+f+- e < g+h+          ",
"              i+j+k+l+m+n+o+p+q+r+s+t+u+v+w+x+y+z+A+B+C+D+E+F+G+H+I+. e+g+J+K+V &+a.L+          ",
"              M+N+O+P+Q+R+S+T+U+V+W+X+Y+Y+v+Z+`+ @.@+@@@#@D+$@%@&@*@=@[ ; -@d ;@>@,@            ",
"              '@)@!@~@{@]@^@/@(@_@:@<@[@}@|@v+1@2@3@4@5@6@7@8@9@0@a@b@T ).!.c@Y d@              ",
"              e@f@g@h@i@j@k@l@m@n@o@p@q@[@r@}@s@t@u@v@w@x@y@z@o.A@B@C@s.0.t.D@i+                ",
"            . E@F@G@H@I@J@K@L@M@N@O@P@Q@R@S@r@T@U@V@W@v@X@Y@Z@`@ #.#< +#@###$#                  ",
"            . %#&#*#=#-#;#>#,#'#)#!#~#{#]#R@S@r@Y+U@^#/#(#_#:#x r.< +#t.<#[#.                   ",
"            . }#|#*#1#2#>#3#4#5#6#7#8#9#0#a#R@r@b#Y+c#d#e#f#< e s.g#c@h#i#j#.                   ",
"            . k#l#m#n#o#p#q#r#s#t#u#v#w#x#y#Q@z#A#B#c#d#C#D#%+s.!.E#F#G#H#I#.                   ",
"            . J#K#L#M#N#O#P#Q#s#R#S#T#U#V#W#X#Y#Z#`#t+ $d#.$+$0.@$#$$$%$&$*$=$.                 ",
"            . -$K#;$>$,$'$)$P#Q#!$~${$]$^$/$($_$:$<$[$}$}$4+|$1$2$3$4$5$6$7$8$.                 ",
"            . 9$0$a$n#b$c$d$e$f$g$h$i$j$k$l$m$n$o$p$q$r$1+s$t$u$v$w$x$y$z$A$B$C$                ",
"            . D$E$F$G$H$I$m$d$J$f$)$K$L$M$N$O$P$Q$X+R$S$T$U$V$W$X$Y$Z$`$ %.%+%@%.               ",
"            . #%$%%%&%*%=%c$-%;%>%,%;%'%)%!%~%{%]%^%/%(%_%:%<%[%}%k.|%1%2%3%4%5%.               ",
"              6%7%8%9%0%a%=%b%c%d%d%e%f%g%h%i%j%k%`.l%m%n%o%p%E.q%r%s%t%u%v%w%x%.               ",
"              y%z%A%B%C%D%a%a%E%F%E%G%H%I%]%J%K%L%M%N%O%P%Q%R%S%T%U%V%W%X%Y%Z%`%.               ",
"               &.&+&@&#&$&%&&&*&=&-&;&>&,&'&)&!&~&{&:.{&]&^&/&(&_&:&<&[&}&|&1&x%.               ",
"              . 2&3&4&5&6&7&8&9&0&a&b&c&d&e&!&f&g&h&i&j&k&l&m&n&o&p&q&r&s&t&u&v&.               ",
"                y%w&x&y&z&A&B&K#z&C&D&E&f&g.F&G&H&I&J&K&L&M&N&O&P&Q&R&S&T&U&V&W&.               ",
"                . X&Y&Z&`& *.*.*+*g&{&@*#*H&$*%*&***=*-*;*>*,*'*)*!*~*{*]*^*/*.                 ",
"                (*_*:*<*[*}*}*|*1*j&2*3*4*5***6*7*N&8*9*0*a*b*c*d*e*f*g*h*i*j*.                 ",
"              k*l*m*n*o*p*p*q*r*s*t*u*6*v*w*x*y*;*9*z*A*B*C*D*E*F*G*H*I*J*K*.                   ",
"            L*M*N*O*{+P*Q*R*L&S*T*U*V*W*8*8*X*9*z*A*Y*Z*`* =.=+=@=#=$=%=&=.                     ",
"          . *===-=;=. Q.C >=,='=)=!=!=!=~=~=z*A*{=]=^=D*E*/=(=_=:=<=[=}=+                       ",
"          |={.1=2=.       w.3=4=5=6=7=8=9=A*0=Y*a=Z*b=c=c=d=e=f=g=h=. e+                        ",
"        i=D@m*j=. ;=        k=| + l=m=n=o=p=q=r=s=t=u=v=w=x=y=. z=A=B=                          ",
"      C=D=E=1=C=i=        F=F=F=E=G=H=I=J=. . . . . . . k*I=K=j=L=F=                            ",
"        ==M=N=i=            F=F=F=F=F=F=F=O=P=Q=R=Q=S=T=F=F=F=F=F=                              ",
"        F=U=N=                    F=F=F=F=F=F=F=F=F=F=F=F=F=F=                                  ",
"          V=                                                                                    ",
"                                                                                                ",
"                                                                                                ",
"                                                                                                ",
"                                                                                                "};
