/* XPM */
static const char * xpmInfoArrow16[] = {
"16 16 119 2",
"  	c None",
". 	c #0568C4",
"+ 	c #0069C8",
"@ 	c #006CCD",
"# 	c #0070D3",
"$ 	c #136BBF",
"% 	c #3482CC",
"& 	c #3485D0",
"* 	c #066ECB",
"= 	c #006DCF",
"- 	c #0071D4",
"; 	c #0074DA",
"> 	c #0078DF",
", 	c #2473C0",
"' 	c #5F9BD4",
") 	c #4C91D3",
"! 	c #3587D2",
"~ 	c #6E9DCB",
"{ 	c #6699CB",
"] 	c #0072D6",
"^ 	c #0075DB",
"/ 	c #0079E0",
"( 	c #007CE6",
"_ 	c #1466B8",
": 	c #78A9D9",
"< 	c #649FD6",
"[ 	c #4C92D4",
"} 	c #5993CC",
"| 	c #F9FAFC",
"1 	c #3987CE",
"2 	c #0076DC",
"3 	c #007AE2",
"4 	c #007DE7",
"5 	c #0081EB",
"6 	c #6299D0",
"7 	c #7CACDB",
"8 	c #64A0D7",
"9 	c #5795D0",
"0 	c #E7EBF2",
"a 	c #FFFFFF",
"b 	c #E6EBF2",
"c 	c #197ED7",
"d 	c #007BE3",
"e 	c #007EE8",
"f 	c #0181EC",
"g 	c #0159AF",
"h 	c #8EB6DE",
"i 	c #7CADDC",
"j 	c #669FD7",
"k 	c #CAD6E4",
"l 	c #C6D4E4",
"m 	c #067DE3",
"n 	c #007FEA",
"o 	c #1A8EEE",
"p 	c #0081EC",
"q 	c #1B6BBA",
"r 	c #94BBE0",
"s 	c #A9BED6",
"t 	c #99B8D8",
"u 	c #0381EB",
"v 	c #339AF0",
"w 	c #0182EC",
"x 	c #196BBA",
"y 	c #94BBE1",
"z 	c #7CAEDD",
"A 	c #64A1DA",
"B 	c #4C95D8",
"C 	c #358BD7",
"D 	c #F1F4F7",
"E 	c #147CD8",
"F 	c #007EE7",
"G 	c #0784ED",
"H 	c #48A5F1",
"I 	c #0282EC",
"J 	c #015DB5",
"K 	c #8EB8E0",
"L 	c #7CAEDE",
"M 	c #64A1DB",
"N 	c #4C96D9",
"O 	c #358BD8",
"P 	c #D5DEE9",
"Q 	c #3E8AD1",
"R 	c #007FE9",
"S 	c #3199F0",
"T 	c #629CD5",
"U 	c #7CAFDF",
"V 	c #64A2DC",
"W 	c #4C96DA",
"X 	c #358CDA",
"Y 	c #93B3D4",
"Z 	c #699FD1",
"` 	c #007CE5",
" .	c #0080EA",
"..	c #0F88ED",
"+.	c #136BC1",
"@.	c #78ADDE",
"#.	c #64A3DC",
"$.	c #4C97DB",
"%.	c #358DDB",
"&.	c #3287D5",
"*.	c #D9E2EC",
"=.	c #DBE3ED",
"-.	c #0A7FE2",
";.	c #247BCB",
">.	c #5FA0DC",
",.	c #4C98DC",
"'.	c #358EDB",
").	c #167FDB",
"!.	c #107CD9",
"~.	c #ABC3DC",
"{.	c #A4BFDB",
"].	c #1475CE",
"^.	c #348BD9",
"/.	c #348DDD",
"(.	c #0677DA",
"_.	c #007BE4",
":.	c #0985EC",
"<.	c #0573D6",
"[.	c #007CE4",
"                                ",
"            . + @ #             ",
"        $ % & * = - ; >         ",
"      , ' ) ! ~ { ] ^ / (       ",
"    _ : < [ } | | 1 2 3 4 5     ",
"    6 7 8 9 0 a a b c d e f     ",
"  g h i j k a a a a l m n o p   ",
"  q r i s a a a a a a t u v w   ",
"  x y z A B C D a E 3 F G H I   ",
"  J K L M N O P a Q d R I S 5   ",
"    T U V W X Y a Z `  .p ..    ",
"    +.@.#.$.%.&.*.=.-.p p p     ",
"      ;.>.,.'.).!.~.{.'.p       ",
"        ].^./.(.> _.R :.        ",
"            <.^ / [.            ",
"                                "};
