/* XPM */
static const char *xpmSet[] = {
/* columns rows colors chars-per-pixel */
"16 16 119 2",
"   c #00510000",
".  c #00520000",
"X  c #00530000",
"o  c #00540000",
"O  c #00550000",
"+  c #00560000",
"@  c #00570000",
"#  c #00580000",
"$  c #00590000",
"%  c #005A0000",
"&  c #005B0000",
"*  c #015B0100",
"=  c #005C0000",
"-  c #005D0000",
";  c #005F0000",
":  c #00600000",
">  c #00610000",
",  c #00620000",
"<  c #00630000",
"1  c DarkGreen",
"2  c #006E0000",
"3  c #08660800",
"4  c #0B6F0B00",
"5  c #00740000",
"6  c #06720600",
"7  c #017B0100",
"8  c #007D0000",
"9  c #0C770C00",
"0  c #0A790A00",
"q  c #097E0900",
"w  c #127F1200",
"e  c #018C0100",
"r  c #09850900",
"t  c #0C8B0C00",
"y  c #0B950B00",
"u  c #10831000",
"i  c #14821400",
"p  c #188D1800",
"a  c #1C8F1C00",
"s  c #07A30700",
"d  c #00AC0000",
"f  c #00AD0000",
"g  c #00AE0000",
"h  c #00B10000",
"j  c #00B70000",
"k  c #00B90000",
"l  c #00BA0000",
"z  c #00BE0000",
"x  c #00BF0000",
"c  c #13A11300",
"v  c #24932400",
"b  c #23A12300",
"n  c #22A92200",
"m  c #2BA42B00",
"M  c #2FA12F00",
"N  c #2EA42E00",
"B  c #22B52200",
"V  c #00C00000",
"C  c #00C10000",
"Z  c #00C40000",
"A  c #00C70000",
"S  c #00C80000",
"D  c #00C90000",
"F  c #00CB0000",
"G  c #00CE0000",
"H  c #04CB0400",
"J  c #0BC70B00",
"K  c #0ACC0A00",
"L  c #0ACD0A00",
"P  c #09D10900",
"I  c #0DD30D00",
"U  c #0ED40E00",
"Y  c #13C11300",
"T  c #1FCE1F00",
"R  c #2DC92D00",
"E  c #2EC92E00",
"W  c #24DC2400",
"Q  c #30CD3000",
"!  c #38CC3800",
"~  c #3ACC3A00",
"^  c #36D83600",
"/  c #43D34300",
"(  c #42D74200",
")  c #47D44700",
"_  c #48D54800",
"`  c #54D95400",
"'  c #5DD65D00",
"]  c #6FC76F00",
"[  c #6CD06C00",
"{  c #75C27500",
"}  c #77C37700",
"|  c #77C47700",
" . c #79C47900",
".. c #7FE17F00",
"X. c #8FD98F00",
"o. c #92DB9200",
"O. c #9EDF9E00",
"+. c #82E68200",
"@. c #8BE48B00",
"#. c #8CE58C00",
"$. c #8EE58E00",
"%. c #8EE68E00",
"&. c #96E49600",
"*. c #AAE3AA00",
"=. c #BFEFBF00",
"-. c #C2F0C200",
";. c #C3F0C300",
":. c #C0FAC000",
">. c #CBF7CB00",
",. c #CFF9CF00",
"<. c #D4F7D400",
"1. c #D2FAD200",
"2. c #D3FAD300",
"3. c #F0FEF000",
"4. c #F2FCF200",
"5. c #F9FEF900",
"6. c #FCFEFC00",
"7. c #FEFEFE00",
"8. c None",
/* pixels */
"8.8.8.8.8.8.$ 3 $ 8.8.8.8.8.8.8.",
"8.8.8.8.8.o a m = 8.8.8.8.8.8.8.",
"8.8.8.8.X u ^ n $ 8.8.8.8.8.8.8.",
"8.8.8.o q T W c o 8.8.8.8.8.8.8.",
"8.8.o 7 J U I s > > > > > > > $ ",
"8.o 5 x G S G x d d d d d d h 8 ",
"o 2 j S V V V A S S H L L L P e ",
"1 d V k k k k k Y Q / ) ) _ ( t ",
"> B ` ~ R R ! ' ..%.%.@.@.%.+.p ",
"o 4 [ >.;.=.;.<.1.,.,.,.,.1.=.v ",
"8.X 6 o.7.7.3.o.{ | | | |  .] i ",
"8.8.X 9 &.7.3.v $ = = = = = > 1 ",
"8.8.8.X 0 *.5.N o 8.8.8.8.8.8.8.",
"8.8.8.8.X w &.N o 8.8.8.8.8.8.8.",
"8.8.8.8.8.X r y = 8.8.8.8.8.8.8.",
"8.8.8.8.8.8.$ 1 = 8.8.8.8.8.8.8."
};
