/* XPM */
static const char * xpmStats48[] = {
"48 48 537 2",
"  	c None",
". 	c #8E8E8E",
"+ 	c #858585",
"@ 	c #A3A3A3",
"# 	c #BABABA",
"$ 	c #C4C4C4",
"% 	c #AFAFAF",
"& 	c #ACACAC",
"* 	c #9B9B9B",
"= 	c #8C8C8C",
"- 	c #A7A7A7",
"; 	c #C2C2C2",
"> 	c #DADADA",
", 	c #E5E5E5",
"' 	c #E6E6E6",
") 	c #E3E3E3",
"! 	c #E1E1E1",
"~ 	c #D2D2D2",
"{ 	c #9F9F9F",
"] 	c #8D8D8D",
"^ 	c #AAAAAA",
"/ 	c #C8C8C8",
"( 	c #DDDDDD",
"_ 	c #E7E7E7",
": 	c #DEDEDE",
"< 	c #D9D9D9",
"[ 	c #D3D3D3",
"} 	c #CDCDCD",
"| 	c #A0A0A0",
"1 	c #959595",
"2 	c #B2B2B2",
"3 	c #CFCFCF",
"4 	c #DFDFDF",
"5 	c #D8D8D8",
"6 	c #CACACA",
"7 	c #CCCCCC",
"8 	c #D7D7D7",
"9 	c #9D9D9D",
"0 	c #B6B6B6",
"a 	c #E2E2E2",
"b 	c #E8E8E8",
"c 	c #DBDBDB",
"d 	c #D1D1D1",
"e 	c #CBCBCB",
"f 	c #D0D0D0",
"g 	c #C4C5C5",
"h 	c #3F3F3F",
"i 	c #717171",
"j 	c #A4A4A4",
"k 	c #909090",
"l 	c #C3C3C3",
"m 	c #ECECEC",
"n 	c #EDEDED",
"o 	c #E9E9E9",
"p 	c #D4D4D4",
"q 	c #C9C9C9",
"r 	c #C2C3C2",
"s 	c #B8B8B8",
"t 	c #ADADAD",
"u 	c #9AA19B",
"v 	c #8B9A8E",
"w 	c #BBC3BC",
"x 	c #DBDCDB",
"y 	c #797979",
"z 	c #999999",
"A 	c #B0B0B0",
"B 	c #F0F0F0",
"C 	c #F1F1F1",
"D 	c #D5D5D5",
"E 	c #CECECE",
"F 	c #B7B7B7",
"G 	c #9CA19C",
"H 	c #859587",
"I 	c #6B8870",
"J 	c #517C59",
"K 	c #3D7447",
"L 	c #478051",
"M 	c #AAC3AE",
"N 	c #DEE0DE",
"O 	c #DCDCDC",
"P 	c #A8A8A8",
"Q 	c #EAEAEA",
"R 	c #F2F2F2",
"S 	c #F3F3F3",
"T 	c #EEEEEE",
"U 	c #D6D6D6",
"V 	c #9BA19C",
"W 	c #819284",
"X 	c #68856D",
"Y 	c #527C59",
"Z 	c #43794C",
"` 	c #357740",
" .	c #277334",
"..	c #176F26",
"+.	c #0E6C1E",
"@.	c #2D7E3B",
"#.	c #A6C6AB",
"$.	c #DFE2E0",
"%.	c #7E7E7E",
"&.	c #F4F4F4",
"*.	c #9BA09C",
"=.	c #839385",
"-.	c #68866D",
";.	c #4E7956",
">.	c #397043",
",.	c #2C6E37",
"'.	c #226F2F",
").	c #1B732A",
"!.	c #157426",
"~.	c #137323",
"{.	c #117121",
"].	c #0F6F1F",
"^.	c #0D6D1E",
"/.	c #2D7F3B",
"(.	c #A6C7AB",
"_.	c #DFE3E0",
":.	c #767676",
"<.	c #EBEBEB",
"[.	c #E0E0E0",
"}.	c #C0C0C0",
"|.	c #B5B5B5",
"1.	c #9A9F9B",
"2.	c #839285",
"3.	c #4D7954",
"4.	c #2B6D36",
"5.	c #1D692A",
"6.	c #10661E",
"7.	c #076417",
"8.	c #0A6A1A",
"9.	c #117222",
"0.	c #147624",
"a.	c #137524",
"b.	c #127422",
"c.	c #117221",
"d.	c #0F701F",
"e.	c #0E6E1E",
"f.	c #2E7F3B",
"g.	c #E0E3E0",
"h.	c #C7C7C7",
"i.	c #BFBFBF",
"j.	c #9C9F9C",
"k.	c #869388",
"l.	c #69856E",
"m.	c #4E7855",
"n.	c #3A7044",
"o.	c #2C6C36",
"p.	c #1E682A",
"q.	c #10641E",
"r.	c #086217",
"s.	c #056214",
"t.	c #036213",
"u.	c #036413",
"v.	c #076A17",
"w.	c #107320",
"x.	c #147825",
"y.	c #147725",
"z.	c #137624",
"A.	c #127423",
"B.	c #0F7020",
"C.	c #2E803B",
"D.	c #6B6B6B",
"E.	c #859287",
"F.	c #6C8670",
"G.	c #527959",
"H.	c #3E7146",
"I.	c #2F6C39",
"J.	c #1F672C",
"K.	c #11631F",
"L.	c #096118",
"M.	c #056015",
"N.	c #046113",
"O.	c #026012",
"P.	c #016111",
"Q.	c #026312",
"R.	c #076917",
"S.	c #107420",
"T.	c #167A27",
"U.	c #157826",
"V.	c #147625",
"W.	c #137523",
"X.	c #117322",
"Y.	c #107120",
"Z.	c #0E6F1F",
"`.	c #696969",
" +	c #E4E4E4",
".+	c #788A7C",
"++	c #45724C",
"@+	c #2F6B39",
"#+	c #21672E",
"$+	c #146222",
"%+	c #0A6019",
"&+	c #065F16",
"*+	c #045F14",
"=+	c #1D7F2D",
"-+	c #157726",
";+	c #026113",
">+	c #016011",
",+	c #056716",
"'+	c #0F7320",
")+	c #177C28",
"!+	c #187C29",
"~+	c #177B28",
"{+	c #157926",
"]+	c #127322",
"^+	c #2E813C",
"/+	c #A6C7AC",
"(+	c #E0E3E1",
"_+	c #686868",
":+	c #B1B2B1",
"<+	c #5D7D62",
"[+	c #186324",
"}+	c #075E15",
"|+	c #045E14",
"1+	c #035D12",
"2+	c #015E11",
"3+	c #066516",
"4+	c #42AA54",
"5+	c #3BA44E",
"6+	c #0E701F",
"7+	c #046514",
"8+	c #0C701D",
"9+	c #197E2A",
"0+	c #187D29",
"a+	c #167926",
"b+	c #E1E4E1",
"c+	c #676767",
"d+	c #B1B1B1",
"e+	c #587C5E",
"f+	c #11611E",
"g+	c #025D11",
"h+	c #015D11",
"i+	c #1D7F2E",
"j+	c #5FCD72",
"k+	c #5BC86E",
"l+	c #1F8330",
"m+	c #026212",
"n+	c #0A6D1A",
"o+	c #157B26",
"p+	c #1A802B",
"q+	c #197F2B",
"r+	c #666666",
"s+	c #046114",
"t+	c #3CA44E",
"u+	c #76E889",
"v+	c #74E587",
"w+	c #309742",
"x+	c #036313",
"y+	c #016211",
"z+	c #056816",
"A+	c #117622",
"B+	c #1A812C",
"C+	c #197F2A",
"D+	c #177B27",
"E+	c #167A26",
"F+	c #238835",
"G+	c #329944",
"H+	c #248835",
"I+	c #646464",
"J+	c #127323",
"K+	c #56C369",
"L+	c #7BEE8E",
"M+	c #7FF292",
"N+	c #41AC53",
"O+	c #086918",
"P+	c #1B822C",
"Q+	c #1D832E",
"R+	c #278E38",
"S+	c #359E47",
"T+	c #44AF57",
"U+	c #53BF65",
"V+	c #60CE72",
"W+	c #6BDB7E",
"X+	c #45AF57",
"Y+	c #157626",
"Z+	c #11611F",
"`+	c #025D12",
" @	c #015F11",
".@	c #2F9440",
"+@	c #68D87B",
"@@	c #5DCB70",
"#@	c #6CDD80",
"$@	c #54C066",
"%@	c #066917",
"&@	c #137824",
"*@	c #1C832E",
"=@	c #258D36",
"-@	c #3CA64E",
";@	c #53C166",
">@	c #60CF73",
",@	c #6DDD80",
"'@	c #72E486",
")@	c #61CF74",
"!@	c #51BD64",
"~@	c #319742",
"{@	c #147524",
"]@	c #2E803C",
"^@	c #626262",
"/@	c #0B6B1C",
"(@	c #4EB961",
"_@	c #66D579",
":@	c #329943",
"<@	c #4FBB62",
"[@	c #64D478",
"}@	c #2A923C",
"|@	c #0D711E",
"1@	c #187F2A",
"2@	c #208732",
"3@	c #40AC53",
"4@	c #6DDF80",
"5@	c #73E587",
"6@	c #63D276",
"7@	c #54C167",
"8@	c #369D47",
"9@	c #268C38",
"0@	c #177928",
"a@	c #E1E5E2",
"b@	c #616161",
"c@	c #B2B3B2",
"d@	c #11621F",
"e@	c #035F13",
"f@	c #036113",
"g@	c #046315",
"h@	c #258A36",
"i@	c #65D478",
"j@	c #4DB960",
"k@	c #177A27",
"l@	c #39A24B",
"m@	c #6DDE80",
"n@	c #42AC54",
"o@	c #157A26",
"p@	c #319A43",
"q@	c #5FCF73",
"r@	c #6EDF81",
"s@	c #47B259",
"t@	c #2B923C",
"u@	c #1C802D",
"v@	c #107020",
"w@	c #A7C7AC",
"x@	c #E2E5E2",
"y@	c #606060",
"z@	c #186A25",
"A@	c #177727",
"B@	c #268936",
"C@	c #339A45",
"D@	c #55C268",
"E@	c #6ADA7D",
"F@	c #339A44",
"G@	c #238934",
"H@	c #65D578",
"I@	c #58C56A",
"J@	c #228934",
"K@	c #258B36",
"L@	c #4EBB60",
"M@	c #6FE082",
"N@	c #4CB95F",
"O@	c #1E832F",
"P@	c #106F20",
"Q@	c #0D6C1D",
"R@	c #2D7E3A",
"S@	c #B3B3B3",
"T@	c #587D5E",
"U@	c #318840",
"V@	c #4BB45D",
"W@	c #64D376",
"X@	c #46B158",
"Y@	c #197C29",
"Z@	c #0D6F1E",
"`@	c #52C065",
" #	c #36A049",
".#	c #3CA74E",
"+#	c #60CF72",
"@#	c #2B923D",
"##	c #0E6D1E",
"$#	c #0C6C1D",
"%#	c #2C7E3A",
"&#	c #E2E5E3",
"*#	c #3B944A",
"=#	c #51BC64",
"-#	c #4BB65D",
";#	c #3BA44D",
">#	c #298F3A",
",#	c #056515",
"'#	c #3FA950",
")#	c #71E183",
"!#	c #55C368",
"~#	c #5CCA6F",
"{#	c #6EDE81",
"]#	c #3EA850",
"^#	c #177A28",
"/#	c #107121",
"(#	c #0F6F20",
"_#	c #0C6B1C",
":#	c #2C7D3A",
"<#	c #1C712B",
"[#	c #076718",
"}#	c #016012",
"|#	c #2C933D",
"1#	c #6BDC7E",
"2#	c #78EB8B",
"3#	c #6EDF82",
"4#	c #51BE64",
"5#	c #218532",
"6#	c #0B6A1B",
"7#	c #2B7C39",
"8#	c #A5C6AB",
"9#	c #025F12",
"0#	c #016311",
"a#	c #1D822E",
"b#	c #85F999",
"c#	c #64D377",
"d#	c #2F9540",
"e#	c #0C6A1C",
"f#	c #0B691B",
"g#	c #2E7D3B",
"h#	c #A7C6AD",
"i#	c #E2E6E3",
"j#	c #B3B4B3",
"k#	c #026412",
"l#	c #107321",
"m#	c #4DB85F",
"n#	c #6FE083",
"o#	c #40A951",
"p#	c #177927",
"q#	c #0F6E1F",
"r#	c #116E21",
"s#	c #136E23",
"t#	c #167025",
"u#	c #1E742D",
"v#	c #498E55",
"w#	c #B5CFB9",
"x#	c #E4E7E5",
"y#	c #046614",
"z#	c #0D6F1D",
"A#	c #359D46",
"B#	c #42AC53",
"C#	c #218632",
"D#	c #127122",
"E#	c #157224",
"F#	c #187327",
"G#	c #1F772E",
"H#	c #328240",
"I#	c #4B9057",
"J#	c #649F6E",
"K#	c #7FAF87",
"L#	c #A4C5AA",
"M#	c #D7E2D9",
"N#	c #E6E7E6",
"O#	c #11641F",
"P#	c #056715",
"Q#	c #1B7E2C",
"R#	c #1A7D2A",
"S#	c #127222",
"T#	c #147323",
"U#	c #157325",
"V#	c #177427",
"W#	c #20792F",
"X#	c #338441",
"Y#	c #4D9359",
"Z#	c #67A271",
"`#	c #82B28A",
" $	c #9DC2A3",
".$	c #B9D1BD",
"+$	c #D5E1D7",
"@$	c #EAEDEA",
"#$	c #B4B4B4",
"$$	c #066817",
"%$	c #137223",
"&$	c #217B30",
"*$	c #398847",
"=$	c #52975E",
"-$	c #6AA574",
";$	c #85B58D",
">$	c #A0C4A6",
",$	c #BBD2BF",
"'$	c #E8EBE8",
")$	c #587E5E",
"!$	c #147125",
"~$	c #358542",
"{$	c #549860",
"]$	c #74AB7D",
"^$	c #91BC98",
"/$	c #ABCBB1",
"($	c #C1D7C5",
"_$	c #E7EAE7",
":$	c #939393",
"<$	c #B4B5B4",
"[$	c #026112",
"}$	c #0F6B1E",
"|$	c #2B7D38",
"1$	c #4B9056",
"2$	c #6CA576",
"3$	c #8DB994",
"4$	c #AACAB0",
"5$	c #C4D8C8",
"6$	c #DDE5DF",
"7$	c #EBECEB",
"8$	c #A6A6A6",
"9$	c #898989",
"0$	c #969696",
"a$	c #A9A9A9",
"b$	c #597E5F",
"c$	c #1D6C2B",
"d$	c #2C7B39",
"e$	c #4C9058",
"f$	c #6EA577",
"g$	c #8CB793",
"h$	c #BFD4C2",
"i$	c #D8E1DA",
"j$	c #E6E8E6",
"k$	c #E7E8E8",
"l$	c #E4E5E5",
"m$	c #C1C1C1",
"n$	c #8A8A8A",
"o$	c #A0B1A3",
"p$	c #99BB9E",
"q$	c #A8C7AD",
"r$	c #BED3C1",
"s$	c #D5DFD6",
"t$	c #E2E4E3",
"u$	c #E1E2E1",
"v$	c #A1A1A1",
"w$	c #888888",
"x$	c #D7D9D8",
"y$	c #E1E3E1",
"z$	c #E0E2E0",
"A$	c #DFE0DF",
"B$	c #DDDEDD",
"C$	c #BEBEBE",
"D$	c #838383",
"E$	c #808080",
"F$	c #B9B9B9",
"G$	c #9E9E9E",
"H$	c #AEAEAE",
"I$	c #777777",
"J$	c #868686",
"K$	c #A5A5A5",
"L$	c #949494",
"                                                                                                ",
"                                                                                                ",
"                                                                                                ",
"                                                                                                ",
"                                                                                                ",
"                                                                                                ",
"                                                                      . + @ # $ % %             ",
"                                                            & * = - ; > , ' , ) ! ~             ",
"                                                    # { ] ^ / ( , _ ' ) ! : < [ } }             ",
"                                              | 1 2 3 ! , ' , ! 4 ( 5 ~ } 6 7 ~ 8 >             ",
"                                      @ 9 0 [ a ' b , ! : c 8 d 7 6 e f ~ } g f > >             ",
"                      h i j k . - l ( b m n o a ( 5 p f 7 q 7 f ~ } r s t u v w x c             ",
"                y % j z A q ! m B C n ' 4 c D 3 6 / 6 3 ~ E ; F & G H I J K L M N O             ",
"              P F p Q C R S T ' 4 > U d 7 q 6 E ~ E l s t V W X Y Z `  ...+.@.#.$.O             ",
"            %.< T &.C b 4 < p f } 6 6 E d } ; F & *.=.-.;.>.,.'.).!.~.{.].^./.(._.(             ",
"            :.b <.[.[ f } 6 6 } f e }.|.^ 1.2.-.3.>.4.5.6.7.8.9.0.a.b.c.d.e.f.(.g.(             ",
"            i b ) f h.7 3 6 i.|.^ j.k.l.m.n.o.p.q.r.s.t.u.v.w.x.y.z.A.c.B.e.C.(.g.(             ",
"            D.' ! f e $ % j.E.F.G.H.I.J.K.L.M.N.O.P.P.Q.R.S.T.T.U.V.W.X.Y.Z.C.(.g.:             ",
"            `. +[.d e 0 .+++@+#+$+%+&+*+=+-+;+>+>+P.P.,+'+)+!+~+{+y.W.]+Y.Z.^+/+(+:             ",
"            _+! 4 d e :+<+[+}+|+1+2+2+3+4+5+6+>+P.P.7+8+)+9+0+~+a+y.a.]+Y.Z.^+/+b+:             ",
"            c+4 : d e d+e+f+g+h+2+2+2+i+j+k+l+m+P.Q.n+o+p+q+0+~+a+y.a.]+Y.Z.^+/+b+4             ",
"            r+( ( d 7 :+e+f+g+h+2+2+s+t+u+v+w+x+y+z+A+p+B+C+!+D+E+!+F+G+H+].^+/+b+4             ",
"            I+> O d 7 :+e+f+g+h+2+2+J+K+L+M+N+O+Q.8+C+P+p+Q+R+S+T+U+V+W+X+Y+^+(.b+4             ",
"            I+< c ~ 7 :+e+Z+`+2+2+ @.@+@@@#@$@{+%@&@*@=@-@;@>@,@'@,@)@!@~@{@]@(.b+4             ",
"            ^@U > ~ } 2 e+Z+`+2+2+/@(@_@:@<@[@}@|@1@2@3@4@5@6@7@X+8@9@0@].e.C./+a@[.            ",
"            b@p < ~ } c@e+d@e@f@g@h@i@j@k@l@m@n@o@*@p@q@r@s@t@u@0.A.c.v@].^./.w@x@[.            ",
"            y@[ 5 ~ } c@e+z@A@B@C@D@E@F@O+G@H@I@J@K@L@M@N@O@U.V.W.]+{.P@e.Q@R@(.a@[.            ",
"            y@~ 5 ~ } S@T@U@V@@@i@W@X@Y@u.Z@`@+@ #.#E@+#@#U.y.a.]+c.v@].##$#%##.&#!             ",
"            y@~ 8 ~ E S@T@*#=#-#;#>#b.,#P.y+'#)#!#~#{#]#^#y.a.A.9./#(#e.Q@_#:##.&#!             ",
"            y@~ 8 ~ E S@T@<#~.[#}#>+P.P.y+y+|#1#2#3#4#5#V.a.A.9./#v@].##_#6#7#8#&#!             ",
"            y@~ 8 ~ E S@T@K.9#>+>+P.P.y+y+0#a#V+b#c#d#z.W.]+9./#v@].##Q@e#f#g#h#i#a             ",
"            y@~ 8 ~ 3 j#T@K.9#>+>+P.P.y+y+k#l#m#n#o#p#A.]+c./#B.q#q#r#s#t#u#v#w#x#a             ",
"            y@~ 8 ~ 3 j#T@K.O.>+P.P.y+y+0#y#z#A#B#C#]+c.{.{.D#E#F#G#H#I#J#K#L#M#N#a             ",
"            y@~ 8 [ 3 j#T@O#O.>+P.P.y+y+0#P#z#Q#R#S#T#U#V#W#X#Y#Z#`# $.$+$@$T Q  +a             ",
"            y@~ 8 [ f #$T@O#O.P.P.y+y+0#0#$$Z.%$U#&$*$=$-$;$>$,$+$'$m b , a [.[.4 :             ",
"            y@~ 8 [ f #$)$O#O.P.P.y+Q.k#u.!$~${$]$^$/$($+$_$<._  +! 4 [.[.4 5 / % :$            ",
"            y@~ 8 [ f <$)$O#[$P.y+}$|$1$2$3$4$5$6$7$Q _ ) 4 : 4 4 4 5 ; 8$9$0$a$                ",
"            y@~ 8 [ f |.b$c$d$e$f$g$/+h$i$j$k$l$! 4 : : : ( U m$j n$k                           ",
"            y@~ 8 [ d ; o$p$q$r$s$a@t$u$4 ( ( O ( ( D i.v$w$n$                                  ",
"            y@~ 5 p [ [ x$y$z$A$B$O O O O O p C${ D$n$                                          ",
"            E$6 5 p [ 5 > c c c c c E F$G$E$.                                                   ",
"              H$5 p [ < < > } S@1 I$J$                                                          ",
"              K$q [ / 2 L$:.D$                                                                  ",
"                G$K$                                                                            ",
"                                                                                                ",
"                                                                                                ",
"                                                                                                ",
"                                                                                                "};
