/* XPM */
static const char * xpmThreading48[] = {
"48 48 399 2",
"  	c None",
". 	c #888888",
"+ 	c #909090",
"@ 	c #8E8E8E",
"# 	c #8C8C8C",
"$ 	c #8F8F8F",
"% 	c #8B8B8B",
"& 	c #878787",
"* 	c #8D8D8D",
"= 	c #868686",
"- 	c #7E7E7E",
"; 	c #7D7D7D",
"> 	c #7C7C7C",
", 	c #787878",
"' 	c #989898",
") 	c #ADADAD",
"! 	c #B4B4B4",
"~ 	c #B3B3B3",
"{ 	c #B2B2B2",
"] 	c #B1B1B1",
"^ 	c #B0B0B0",
"/ 	c #AFAFAF",
"( 	c #AEAEAE",
"_ 	c #ACACAC",
": 	c #A8A8A8",
"< 	c #929292",
"[ 	c #BEBEBE",
"} 	c #D8D8D8",
"| 	c #DBDBDB",
"1 	c #D1D1D1",
"2 	c #C7C7C7",
"3 	c #CECECE",
"4 	c #D5D5D5",
"5 	c #D7D7D7",
"6 	c #D6D6D6",
"7 	c #D4D4D4",
"8 	c #B7B7B7",
"9 	c #949494",
"0 	c #9A9A9A",
"a 	c #D2D2D2",
"b 	c #D0D0D0",
"c 	c #72706F",
"d 	c #716D6C",
"e 	c #74706E",
"f 	c #797675",
"g 	c #C9C9C9",
"h 	c #C6C6C6",
"i 	c #A7A7A7",
"j 	c #9B9B9B",
"k 	c #C4C4C4",
"l 	c #979797",
"m 	c #7A6864",
"n 	c #9B7A72",
"o 	c #B28A80",
"p 	c #B68B81",
"q 	c #A7867E",
"r 	c #8A756F",
"s 	c #807C7B",
"t 	c #BFBFBF",
"u 	c #CACACA",
"v 	c #C2C2C2",
"w 	c #A0A0A0",
"x 	c #CBCBCB",
"y 	c #C5C5C5",
"z 	c #959595",
"A 	c #6D6C6C",
"B 	c #896C65",
"C 	c #D6ACA1",
"D 	c #F1DBD7",
"E 	c #FBEAE6",
"F 	c #FDEBE7",
"G 	c #F6E6E2",
"H 	c #DFC3BC",
"I 	c #A4837B",
"J 	c #827D7B",
"K 	c #9C9C9C",
"L 	c #BCBCBC",
"M 	c #C3C3C3",
"N 	c #AAAAAA",
"O 	c #6E6D6D",
"P 	c #8E6C63",
"Q 	c #EAAFA0",
"R 	c #FFE6E0",
"S 	c #FFE6E1",
"T 	c #F3CDC3",
"U 	c #AC847A",
"V 	c #8C8786",
"W 	c #A6A6A6",
"X 	c #A3A3A3",
"Y 	c #9F9F9F",
"Z 	c #BDBDBD",
"` 	c #746967",
" .	c #C88270",
"..	c #FDBAA9",
"+.	c #FFC1B2",
"@.	c #FFB6A4",
"#.	c #FF9C84",
"$.	c #E27053",
"%.	c #907974",
"&.	c #999999",
"*.	c #9D9D9D",
"=.	c #A2A2A2",
"-.	c #B8B8B8",
";.	c #896960",
">.	c #E3836B",
",.	c #FF9A81",
"'.	c #FF9B82",
").	c #FF957A",
"!.	c #FF7B5A",
"~.	c #FF572D",
"{.	c #FF4516",
"].	c #F93D0E",
"^.	c #9E6C5F",
"/.	c #969696",
"(.	c #939393",
"_.	c #919191",
":.	c #8A8A8A",
"<.	c #A9A9A9",
"[.	c #917067",
"}.	c #E76E50",
"|.	c #FF704D",
"1.	c #FF714D",
"2.	c #FF714E",
"3.	c #FF6D49",
"4.	c #FF5930",
"5.	c #FF491C",
"6.	c #FF4618",
"7.	c #FB481B",
"8.	c #A47265",
"9.	c #848484",
"0.	c #A4A4A4",
"a.	c #838383",
"b.	c #887773",
"c.	c #DE6B4F",
"d.	c #FF653F",
"e.	c #FF6640",
"f.	c #FF6843",
"g.	c #FF6742",
"h.	c #FF6540",
"i.	c #F16846",
"j.	c #A0837D",
"k.	c #858585",
"l.	c #A5A5A5",
"m.	c #7F7D7C",
"n.	c #B88274",
"o.	c #F98569",
"p.	c #FF8668",
"q.	c #FF8769",
"r.	c #FC866A",
"s.	c #CF8572",
"t.	c #9D9592",
"u.	c #828282",
"v.	c #6D6D6D",
"w.	c #A1A1A1",
"x.	c #8B8786",
"y.	c #C8988C",
"z.	c #F4A692",
"A.	c #FDAB96",
"B.	c #FFAC96",
"C.	c #FFAB96",
"D.	c #F7A894",
"E.	c #D69D8F",
"F.	c #A49794",
"G.	c #818181",
"H.	c #6F6F6F",
"I.	c #9E9E9E",
"J.	c #918E8D",
"K.	c #B6A09A",
"L.	c #D4AFA6",
"M.	c #E5BAAF",
"N.	c #E7BBB0",
"O.	c #DCB4AA",
"P.	c #C1A6A0",
"Q.	c #A49D9B",
"R.	c #929190",
"S.	c #9A9796",
"T.	c #A49E9D",
"U.	c #A7A19F",
"V.	c #A49F9E",
"W.	c #A19F9F",
"X.	c #808080",
"Y.	c #717171",
"Z.	c #898989",
"`.	c #7F7F7F",
" +	c #767676",
".+	c #707070",
"++	c #727272",
"@+	c #777777",
"#+	c #6A6967",
"$+	c #807867",
"%+	c #9F9379",
"&+	c #BBA983",
"*+	c #C0AD83",
"=+	c #A99D83",
"-+	c #8C8573",
";+	c #7E7C77",
">+	c #797979",
",+	c #6B6A67",
"'+	c #95886D",
")+	c #DBCCAD",
"!+	c #F8EED9",
"~+	c #FFF9ED",
"{+	c #FFFAEE",
"]+	c #FDF5E5",
"^+	c #E4D9C1",
"/+	c #ACA088",
"(+	c #858179",
"_+	c #7A7A7A",
":+	c #6B6B6B",
"<+	c #8B7F64",
"[+	c #E4D0A5",
"}+	c #FEF5E0",
"|+	c #FFF7E4",
"1+	c #FFF7E5",
"2+	c #FFF6E3",
"3+	c #EFE2C3",
"4+	c #A89B80",
"5+	c #8A8986",
"6+	c #7B7B7B",
"7+	c #757066",
"8+	c #D1B479",
"9+	c #FEE4AC",
"0+	c #FFE6B0",
"a+	c #FFE5B0",
"b+	c #FFE5AE",
"c+	c #FFE09E",
"d+	c #FFD884",
"e+	c #E9BB59",
"f+	c #918773",
"g+	c #8A7E63",
"h+	c #E4C071",
"i+	c #FFD885",
"j+	c #FFD479",
"k+	c #FFCB5D",
"l+	c #FFBF38",
"m+	c #FFB821",
"n+	c #FAB219",
"o+	c #9E8C63",
"p+	c #928569",
"q+	c #E8BB59",
"r+	c #FFCA59",
"s+	c #FFCB59",
"t+	c #FFC953",
"u+	c #FFC23E",
"v+	c #FFBB2B",
"w+	c #FFB926",
"x+	c #FFB925",
"y+	c #FCB828",
"z+	c #A59167",
"A+	c #868176",
"B+	c #DAB159",
"C+	c #FFC64A",
"D+	c #FFC64C",
"E+	c #FFC850",
"F+	c #FFC851",
"G+	c #EFBE56",
"H+	c #9E9582",
"I+	c #757575",
"J+	c #7E7E7D",
"K+	c #B3A17B",
"L+	c #F6CE76",
"M+	c #FFD476",
"N+	c #FAD076",
"O+	c #CAB17B",
"P+	c #9D9B95",
"Q+	c #737373",
"R+	c #8C8A85",
"S+	c #C7B58F",
"T+	c #F9DB99",
"U+	c #FFDF9B",
"V+	c #FFE09B",
"W+	c #FCDD9A",
"X+	c #D9C393",
"Y+	c #A49F94",
"Z+	c #9E9E9D",
"`+	c #747474",
" @	c #8E8D8C",
".@	c #ABA69A",
"+@	c #CFC3AA",
"@@	c #E5D6B6",
"#@	c #E7D8B7",
"$@	c #D9CDB0",
"%@	c #B9B2A2",
"&@	c #9E9D9B",
"*@	c #8F8F8E",
"=@	c #979795",
"-@	c #9F9E9B",
";@	c #A1A09D",
">@	c #A09F9E",
",@	c #6E6E6E",
"'@	c #6C6C6C",
")@	c #6A6A6A",
"!@	c #686868",
"~@	c #696A68",
"{@	c #6C7561",
"]@	c #82986C",
"^@	c #98B67B",
"/@	c #9BBB7B",
"(@	c #8FA677",
"_@	c #77826B",
":@	c #777975",
"<@	c #666666",
"[@	c #606060",
"}@	c #686B66",
"|@	c #7F906D",
"1@	c #C8DFB1",
"2@	c #F3FAEC",
"3@	c #FDFEFB",
"4@	c #FDFEFC",
"5@	c #FBFEF7",
"6@	c #DDEBD0",
"7@	c #98AA87",
"8@	c #7E8279",
"9@	c #878786",
"0@	c #646464",
"a@	c #778A64",
"b@	c #C4DEA9",
"c@	c #EFFAE4",
"d@	c #DBECCA",
"e@	c #93A780",
"f@	c #868984",
"g@	c #626262",
"h@	c #636363",
"i@	c #6C7266",
"j@	c #99BC78",
"k@	c #D0EEB1",
"l@	c #D5F1B9",
"m@	c #CCEEA9",
"n@	c #B5E684",
"o@	c #8AC74D",
"p@	c #7E8971",
"q@	c #728461",
"r@	c #9ECE6F",
"s@	c #B4E681",
"t@	c #B3E67F",
"u@	c #ABE373",
"v@	c #94DB4D",
"w@	c #78D21E",
"x@	c #6CCE09",
"y@	c #69CA08",
"z@	c #78935D",
"A@	c #798969",
"B@	c #8EC953",
"C@	c #96DC50",
"D@	c #97DD51",
"E@	c #94DB4C",
"F@	c #87D736",
"G@	c #7BD323",
"H@	c #79D21F",
"I@	c #79D022",
"J@	c #809868",
"K@	c #676767",
"L@	c #7C8375",
"M@	c #8CC156",
"N@	c #91DA48",
"O@	c #92DB4A",
"P@	c #95DC4D",
"Q@	c #94DC4D",
"R@	c #93DB4B",
"S@	c #93DB4A",
"T@	c #90D04F",
"U@	c #8C987F",
"V@	c #656565",
"W@	c #7C7D7C",
"X@	c #91A47E",
"Y@	c #ABDB7C",
"Z@	c #B1E57C",
"`@	c #B1E67C",
" #	c #AEE07C",
".#	c #9BB780",
"+#	c #999C96",
"@#	c #5B5B5B",
"##	c #878985",
"$#	c #A4B791",
"%#	c #C0E09F",
"&#	c #C8EBA4",
"*#	c #C9EDA5",
"=#	c #C3E4A0",
"-#	c #ADC496",
";#	c #9CA196",
">#	c #999998",
",#	c #696969",
"'#	c #5E5E5E",
")#	c #8E8F8C",
"!#	c #A3AA9B",
"~#	c #B9C7AC",
"{#	c #CADBB9",
"]#	c #CBDDBA",
"^#	c #C0CFB1",
"/#	c #ABB4A1",
"(#	c #9FA19C",
"_#	c #5F5F5F",
":#	c #929291",
"<#	c #989897",
"[#	c #9B9B9A",
"}#	c #5A5A5A",
"|#	c #585858",
"1#	c #5C5C5C",
"2#	c #535353",
"                                                                                                ",
"                                                                                                ",
"                                . + @ # $ + $ + + % & * = - ; ; > ,                             ",
"                              ' ) ! ! ! ! ! ! ! ~ { ] ^ / / ( ) _ : <                           ",
"                            & [ } | | | | | } 1 2 2 3 4 5 5 6 6 6 7 8 9                         ",
"                            0 a } } } 5 b / & c d e f # / g a a a 1 h i                         ",
"                            j b 1 a 1 k l c m n o p q r s j t u u u v w                         ",
"                            0 u x x y z A B C D E F G H I J K [ v v L z                         ",
"                            K M k k N O P Q R S S R R R T U V W ! / X .                         ",
"                            Y [ t Z # `  ...+.+.+.+.+.@.#.$.%.&.*.l < .                         ",
"                            =.-.-.{ - ;.>.,.'.'.'.).!.~.{.].^././.(._.:.&.                      ",
"                            w ^ / <.; [.}.|.1.2.3.4.5.6.6.7.8.&./.< + & 9.                      ",
"                          + Y <.: 0.a.b.c.d.e.f.g.e.h.h.e.i.j.K z _.$ k.,                       ",
"                          9 w l.0.=.$ m.n.o.p.q.q.q.q.q.r.s.t.*.< $ * u.v.                      ",
"                          u.0 X =.w.j & x.y.z.A.B.B.C.D.E.F.w z $ @ # G.H.                      ",
"                          . &.=.w.w I./.:.J.K.L.M.N.O.P.Q.Y ' + @ * % G.H.                      ",
"                          % &.w w Y *.j /.+ R.S.T.U.V.W.I.l + @ * # :.X.Y.                      ",
"                          a.l Y I.*.K 0 &.' /.z /.' ' z _.$ @ # % :.Z.X.9.                      ",
"                          u./.I.*.K 0 &.' /._.% . . :.* @ @ * % :.Z.. `.%                       ",
"                          X.z *.K j &.' z k. +Y..+++, X.& # % :.Z.& = `.#                       ",
"                          X.9 K 0 &.l $ @+#+$+%+&+*+=+-+;+k.:.. & = k.; &                       ",
"                          X.(.0 &.' (.>+,+'+)+!+~+{+]+^+/+(+:.Z.= k.9.> _+                      ",
"                          X.< &.' l Z.:+<+[+}+|+1+1+1+2+3+4+5+* k.9.u.6+ +                      ",
"                          6+_.' /.9 >+7+8+9+0+0+0+a+b+c+d+e+f+_.& u.G._+@+                      ",
"                          `.+ /.z _. +g+h+d+i+i+d+j+k+l+m+n+o+(.. G.X.>+@+                      ",
"                          - $ z 9 + @+p+q+r+r+s+t+u+v+w+x+y+z+/.. X.`.,  +                      ",
"                          a.* 9 < _.- A+B+C+D+E+F+F+F+F+F+G+H+' k.`.;  +I+                      ",
"                          9.# < _.+ = J+K+L+M+M+M+M+M+M+N+O+P+9 X.; > Q+++                      ",
"                          _+% _.+ $ % G.R+S+T+U+V+V+V+W+X+Y+Z+& ; > 6+Y.`+                      ",
"                          >+:.+ @ * # Z.=  @.@+@@@#@$@%@&@*.:.; > 6+>+.+k.                      ",
"                          , . @ * # % :.. Z.*@=@-@;@>@K /.Z.- > 6+_+, ,@9.                      ",
"                          Q+= * # % :.Z.. & & :.* @ # . u.; 6+6+_+, @+'@u.                      ",
"                          6+& # :.Z.Z.& = 9.X.; 6+> ; ; ; > _+>+, @+I+)@'@                      ",
"                          % Z.:.Z.. & = u., .+:+'@,@Q+_+- > >+, @+ +Q+!@                        ",
"                            Z.Z.. & = G.Y.~@{@]@^@/@(@_@:@u.> @+ +`+++<@[@                      ",
"                            k.. & k.u.Y.}@|@1@2@3@4@5@6@7@8@9@>+`+Q+.+0@,@                      ",
"                            9.& = k.6+)@a@b@c@c@c@c@c@c@d@e@f@9.`+++,@g@h@                      ",
"                            G.k.k.a.Q+i@j@k@l@l@l@l@l@m@n@o@p@* @+.+'@0@++                      ",
"                            - 9.a.X.Y.q@r@s@s@s@t@u@v@w@x@y@z@_._+,@)@h@>                       ",
"                            > a.u.`.`+A@B@C@C@D@E@F@G@H@H@I@J@(.>+v.K@0@                        ",
"                            _+G.G.`., L@M@N@O@P@Q@R@S@S@S@T@U@9 I+:+V@[@                        ",
"                            _+X.`.- 6+W@X@Y@Z@`@`@Z@Z@Z@ #.#+#% v.)@h@@#                        ",
"                            `.`.- ; 6+; ##$#%#&#*#*#*#=#-#;#>#@+)@,#[@'#                        ",
"                            `.- ; > _+6+u.)#!#~#{#]#^#/#(#K - :+,#K@_#:+                        ",
"                              > 6+_+>+@+, X.:.:#<#[#0 ' *  +:+!@K@V@}#,@                        ",
"                            a._+>+, @+ +`+`+, ; G.u.X., ,@,#!@K@0@'#|#`+                        ",
"                              @+.+,@v.'@)@,#K@K@V@h@g@[@_#'#1#@#|#2#0@                          ",
"                                                                                                "};
