/* XPM */
static const char * xpmTracing48[] = {
"48 48 90 1",
" 	c None",
".	c #000000",
"+	c #010101",
"@	c #020202",
"#	c #030303",
"$	c #040404",
"%	c #060606",
"&	c #070707",
"*	c #090909",
"=	c #0B0B0B",
"-	c #0C0C0C",
";	c #0A0A0A",
">	c #080808",
",	c #0D0D0D",
"'	c #0F0F0F",
")	c #101010",
"!	c #0E0E0E",
"~	c #111111",
"{	c #141414",
"]	c #151515",
"^	c #121212",
"/	c #181818",
"(	c #1A1A1A",
"_	c #171717",
":	c #161616",
"<	c #1C1C1C",
"[	c #1E1E1E",
"}	c #050505",
"|	c #212121",
"1	c #222222",
"2	c #232323",
"3	c #1F1F1F",
"4	c #282828",
"5	c #252525",
"6	c #1B1B1B",
"7	c #1D1D1D",
"8	c #272727",
"9	c #2C2C2C",
"0	c #2A2A2A",
"a	c #131313",
"b	c #303030",
"c	c #333333",
"d	c #343434",
"e	c #383838",
"f	c #3A3A3A",
"g	c #393939",
"h	c #373737",
"i	c #313131",
"j	c #434343",
"k	c #414141",
"l	c #404040",
"m	c #3F3F3F",
"n	c #3E3E3E",
"o	c #323232",
"p	c #454545",
"q	c #4B4B4B",
"r	c #494949",
"s	c #424242",
"t	c #4E4E4E",
"u	c #4A4A4A",
"v	c #3C3C3C",
"w	c #191919",
"x	c #292929",
"y	c #2B2B2B",
"z	c #2E2E2E",
"A	c #262626",
"B	c #3B3B3B",
"C	c #464646",
"D	c #484848",
"E	c #3D3D3D",
"F	c #545454",
"G	c #585858",
"H	c #595959",
"I	c #565656",
"J	c #5A5A5A",
"K	c #646464",
"L	c #626262",
"M	c #474747",
"N	c #525252",
"O	c #606060",
"P	c #5C5C5C",
"Q	c #2D2D2D",
"R	c #202020",
"S	c #363636",
"T	c #242424",
"U	c #2F2F2F",
"V	c #4C4C4C",
"W	c #4D4D4D",
"X	c #5D5D5D",
"Y	c #5E5E5E",
"                             ...+++.            ",
"                             ...+++.            ",
"                          .++@@@@@@++           ",
"                         +++@@@@@@@@+           ",
"                       +@@#########@+.          ",
"                      +$%&&&&&&&&&%$@           ",
"                     $&*=---------;%#           ",
"                    $>,'))))))))))!&$           ",
"                   #,~{]]]]]]]]]]]^&#           ",
"                  &-]/(((((((((((_^%            ",
"                 @,:<[[[[[[[[[[[[_'}            ",
"                 >]|122222222221|{&             ",
"                %{344444444444456~$             ",
"                %789999999999905a=              ",
"               +%64bbbbbbbbbbb47;               ",
"                $!79cdddddddc9[)                ",
"                 +)1cefffgghi1^.                ",
"             +.   >^9fjklmnd5!%                 ",
"            &*=>   =[opqrsb1]%                  ",
"            ']_~>   )8mtuv3!                    ",
"           %wxy5(>   w8vz_-                     ",
"           {AeBei1]   /57                       ",
"           |cCrqDf5=            ..+.            ",
"           8EFGHHIlA         ..+++@++.          ",
"           (fJKLHMo(       .+++@@@@@+.          ",
"           &bNOPtbw      ..++@@@@@@@+.          ",
"             _w6        ++@@@@@@@@@@++          ",
"                       @@@@@@@@@@@@@@.          ",
"                      @$$$$$$$$$$$$$@.          ",
"                    .$&>***********&$.          ",
"                    %;,!!!!!!!!!!!,*}           ",
"                   },~aaaaaaaaaaaa~>}           ",
"                  >,:/wwwwwwwwwww_a%            ",
"                 @!_7[[[[[[[[[[[[_!}            ",
"                 }{1222222222222|{&             ",
"                $!<44444444444456~              ",
"                @>:5yQQQQQQQQQ4R^=              ",
"                .+!79iccooooob5/&               ",
"                 .$-2iggeeeeSQ<*                ",
"              $   +%:0BkklnSy6~                 ",
"             };*   #;3SCrCnz<&                  ",
"            ;'<_!   #^2kqp8_>                   ",
"            :R90T:   ;{yUyw                     ",
"            |dBnB8(   %{)>                      ",
"           .4prVWrd<                            ",
"           .QtIJPXCx=                           ",
"            zqHXYPqi=                           ",
"            /TBneA7                             "};
