/* XPM */
static const char *xpmAdd32[] = {
/* columns rows colors chars-per-pixel */
"32 32 137 2",
"   c #14730E00",
".  c #117B0C00",
"X  c #167B1000",
"o  c #1D7E1700",
"O  c #0F830A00",
"+  c #0E8B0A00",
"@  c #069C0500",
"#  c #08930600",
"$  c #0D910A00",
"%  c #0C9E0A00",
"&  c #12840D00",
"*  c #118D0C00",
"=  c #16831000",
"-  c #12950D00",
";  c #14990E00",
":  c #169C1300",
">  c #1A9C1500",
",  c #1F9C1900",
"<  c #05A10400",
"1  c #08A00600",
"2  c #0FA40B00",
"3  c #0FB40B00",
"4  c #0DBB0A00",
"5  c #12A30D00",
"6  c #10AC0C00",
"7  c #14AC1000",
"8  c #10BC0D00",
"9  c #22811C00",
"0  c #239D1E00",
"q  c #28842200",
"w  c #2F882A00",
"e  c #368C3100",
"r  c #369F3200",
"t  c #3E913900",
"y  c #20A11B00",
"u  c #2AA12400",
"i  c #2FA42A00",
"p  c #32A52D00",
"a  c #35A63000",
"s  c #37AB3100",
"d  c #3AA93500",
"f  c #0BC40800",
"g  c #09CE0700",
"h  c #0ACA0800",
"j  c #06D60500",
"k  c #07DA0500",
"l  c #08D30600",
"z  c #3EC03A00",
"x  c #41933C00",
"c  c #42AC3D00",
"v  c #43BA3F00",
"b  c #46AE4100",
"n  c #49A64400",
"m  c #49AF4400",
"M  c #46B14500",
"N  c #48B34700",
"B  c #4DB34A00",
"V  c #5BAE5600",
"C  c #50B44D00",
"Z  c #54B55100",
"A  c #5AB75600",
"S  c #5CB75800",
"D  c #5EB85A00",
"F  c #61B95D00",
"G  c #65BB6100",
"H  c #6BB66700",
"J  c #6BBE6700",
"K  c #6FBF6B00",
"L  c #7BBE7800",
"P  c #47CD4400",
"I  c #55C35400",
"U  c #59CE5600",
"Y  c #6EC26A00",
"T  c #72C16F00",
"R  c #75C37200",
"E  c #76CA7500",
"W  c #79C47500",
"Q  c #7FC77C00",
"!  c #7BCD7900",
"~  c #7FD17E00",
"^  c #80D77F00",
"/  c #85CA8200",
"(  c #8AC58700",
")  c #8BC28800",
"_  c #88CA8500",
"`  c #8DCD8A00",
"'  c #84D58300",
"]  c #8ED78C00",
"[  c #8EDC8C00",
"{  c #95CD9200",
"}  c #91D38F00",
"|  c #91DE8F00",
" . c #94D39200",
".. c #94DC9200",
"X. c #99D39700",
"o. c #9DD49A00",
"O. c #98DD9600",
"+. c #9DDC9B00",
"@. c #95E29300",
"#. c #98E09700",
"$. c #9CE39B00",
"%. c #A1D49E00",
"&. c #A3D7A100",
"*. c #A5DAA300",
"=. c #A9D9A700",
"-. c #ADDBAB00",
";. c #B1DDAF00",
":. c #B5DEB300",
">. c #B8DFB600",
",. c #A0E39F00",
"<. c #A4E4A300",
"1. c #A4EAA300",
"2. c #A9E2A700",
"3. c #ACE4AB00",
"4. c #A8E8A700",
"5. c #ADEBAC00",
"6. c #B0E3AE00",
"7. c #B0EAAF00",
"8. c #B3E6B200",
"9. c #B5ECB400",
"0. c #BBE1BA00",
"q. c #BCECBB00",
"w. c #B5F1B400",
"e. c #BCF3BB00",
"r. c #C0E3BE00",
"t. c #C0EDBF00",
"y. c #C4E5C200",
"u. c #C4EEC300",
"i. c #C8E7C700",
"p. c #CAEFC900",
"a. c #C3F2C300",
"s. c #CCF3CB00",
"d. c #D0EACE00",
"f. c #D0F3CF00",
"g. c #D2F4D100",
"h. c gray100",
"j. c None",
/* pixels */
"j.j.j.j.j.j.j.j.j.j.j.< < < 1 % % ; 5 > $ j.j.j.j.j.j.j.j.j.j.j.",
"j.j.j.j.j.j.j.j.j.j.< I s.g.s.s.s.a.a.a.' O j.j.j.j.j.j.j.j.j.j.",
"j.j.j.j.j.j.j.j.j.j.< ' g.g.s.p.a.a.e.e.1.O j.j.j.j.j.j.j.j.j.j.",
"j.j.j.j.j.j.j.j.j.j.< ' s.s.p.a.e.e.e.w.$.O j.j.j.j.j.j.j.j.j.j.",
"j.j.j.j.j.j.j.j.j.j.< ' p.a.u.q.e.w.w.5.$.O j.j.j.j.j.j.j.j.j.j.",
"j.j.j.j.j.j.j.j.j.j.@ ~ u.t.q.q.9.9.5.5.$.O j.j.j.j.j.j.j.j.j.j.",
"j.j.j.j.j.j.j.j.j.j.@ ! t.q.9.9.7.5.4.1.#.O j.j.j.j.j.j.j.j.j.j.",
"j.j.j.j.j.j.j.j.j.j.@ ! q.8.8.7.5.4.1.1...O j.j.j.j.j.j.j.j.j.j.",
"j.j.j.j.j.j.j.j.j.j.@ E 8.8.6.4.2.1.$.$.} O j.j.j.j.j.j.j.j.j.j.",
"j.j.j.j.j.j.j.j.j.j.@ R 6.3.2.2.,.$.$.@.[ O j.j.j.j.j.j.j.j.j.j.",
"# : Z C C B B B N N M / 2.2.<.+.$.#.@.@.^ + * * + + * * * + &   ",
"$ &.i.y.y.0.0.>.:.6.-.-.*.*.+.+.O...| [ P f f f h g g l j k j & ",
"$ y.y.0.0.0.:.:.;.-.-.*.&.+.+.O...} [ U 8 4 f f f h g l j j k & ",
"+ y.0.0.0.:.;.-.-.*.&.%.o.X...} [ ^ z 3 3 4 4 f f f h g l l j * ",
"+ 0.0.0.:.-.-.=.&.&.o.o.X. .} ! v 6 6 3 3 4 4 4 f f f h g l l & ",
"+ 0.:.-.-.=.*.&.%.o.X. . .Y s 5 5 6 6 6 3 3 8 4 4 f f h h g l & ",
"O ;.;.-.=.&.%.%.o.{ ^ F u ; : ; 5 5 6 6 3 3 3 3 4 4 f f h h g O ",
"O R =.=.%.X.W A d 0 * ; ; ; ; ; ; 5 5 6 6 6 3 3 4 4 4 f f h h & ",
"& ; 0 i u ; ; - - - - ; ; ; ; ; ; 5 5 5 6 6 6 3 3 4 4 4 f f h O ",
"& ; ; ; ; ; ; ; - - ; ; ; ; ; ; ; ; ; 5 5 6 6 6 3 3 3 4 4 f f & ",
"& & * - * - * * * * * - ; - - ; ; ; ; ; 5 - - - ; % % 2 2 2 ; . ",
"j.. . . . . . . . . . = ; ; ; ; ; ; > y 0                     j.",
"j.j.j.j.j.j.j.j.j.j.X = ; - ; ; 0 y p s r   j.j.j.j.j.j.j.j.j.j.",
"j.j.j.j.j.j.j.j.j.j.  = ; ; ; 0 p d b B n   j.j.j.j.j.j.j.j.j.j.",
"j.j.j.j.j.j.j.j.j.j.  & ; ; 0 a c C A F V   j.j.j.j.j.j.j.j.j.j.",
"j.j.j.j.j.j.j.j.j.j.  . ; 0 p b Z G K W H   j.j.j.j.j.j.j.j.j.j.",
"j.j.j.j.j.j.j.j.j.j.  & > i c Z G L ^ ( L   j.j.j.j.j.j.j.j.j.j.",
"j.j.j.j.j.j.j.j.j.j.  & 0 d m F K / { %.)   j.j.j.j.j.j.j.j.j.j.",
"j.j.j.j.j.j.j.j.j.j.  & u c Z J ^ { &.:.{   j.j.j.j.j.j.j.j.j.j.",
"j.j.j.j.j.j.j.j.j.j.  = i b S L ) o.;.y.o.  j.j.j.j.j.j.j.j.j.j.",
"j.j.j.j.j.j.j.j.j.j.  X p b F W ( &.>.d.(   j.j.j.j.j.j.j.j.j.j.",
"j.j.j.j.j.j.j.j.j.j.j.  X o o q w e t x   j.j.j.j.j.j.j.j.j.j.j."
};
