/* XPM */
static const char *xpmConnected48[]={
"48 48 256 2",
"Qt c None",
".h c #000000",
"b2 c #000500",
"bL c #000a00",
"b1 c #001600",
"bS c #002200",
"bX c #002d00",
"bU c #003a00",
"bM c #005a00",
"bN c #006300",
"bG c #006c00",
"bH c #007300",
"bj c #007900",
"bk c #008400",
"bd c #008c00",
"be c #009400",
"bn c #009b00",
"a9 c #00a200",
"bo c #00a900",
"a8 c #00ad00",
"bu c #00b100",
"bf c #00b900",
"bg c #00d600",
"bI c #00e900",
"a0 c #00ec00",
"b. c #00ee00",
"aS c #00ef00",
"aT c #00f500",
"a1 c #00fa00",
"b# c #00fd00",
"a2 c #01c101",
"aV c #01c501",
"aK c #01cc01",
"aZ c #01d001",
"aY c #01d801",
"aU c #01dc01",
".B c #020406",
"bK c #024502",
"bT c #025102",
"ba c #02bd02",
"aJ c #02e102",
".Q c #04090b",
"bp c #04be04",
".s c #050c10",
"a3 c #05b105",
"aI c #05eb05",
"bw c #06ab06",
"bv c #06ae06",
"aW c #06b406",
"aL c #06b806",
"ax c #07c007",
"aw c #07d307",
".6 c #08131a",
"bm c #081621",
"bB c #08a608",
".l c #0b1a25",
"bi c #0b1e2e",
"bW c #0b290b",
"a4 c #0bb10b",
"aM c #0bb40b",
"ay c #0bb90b",
"aR c #0beb0b",
".Y c #0c0c0c",
"b6 c #0d240d",
"bx c #0dad0d",
"br c #0db20d",
"bh c #0e263a",
"ao c #0ec00e",
"av c #0ee20e",
"aH c #0ff10f",
".O c #101010",
"aX c #10b310",
".A c #11232e",
"bq c #112c42",
"ap c #11ba11",
"bc c #123149",
"az c #12b512",
"an c #12ce12",
"aA c #131a1c",
"bF c #135d13",
"bb c #143651",
"#8 c #153955",
"#W c #163b5a",
"bt c #16b616",
".P c #172a38",
"#9 c #173e5d",
"b9 c #18a118",
".c c #191919",
"#X c #194162",
"#K c #194364",
"#L c #194467",
"ag c #19c319",
"aQ c #19e519",
"#Y c #1a466a",
"bl c #1b486d",
"aa c #1b4a70",
"#M c #1c4a6f",
"#Q c #1c4c72",
"#Z c #1d4e75",
"a# c #1e5077",
"#B c #1f5179",
"#0 c #1f527c",
"#A c #205580",
"bs c #20b920",
"am c #20dd20",
"#N c #215681",
"af c #21ca21",
"#2 c #225985",
"au c #22ee22",
".r c #233948",
"#C c #235b8a",
"aG c #23f223",
"a7 c #245e8e",
"a. c #246091",
"#V c #252525",
"#1 c #256394",
"#u c #276596",
"#t c #28679a",
"#s c #296aa0",
"aP c #29e229",
"aB c #2a5c84",
"a5 c #2a6fa6",
"#O c #2a70a9",
"bR c #2aaf2a",
"#P c #2b6798",
"#D c #2b72aa",
".X c #2c6390",
"a6 c #2c76b0",
"bA c #2cff2c",
"#n c #2d618a",
"## c #2d6899",
"#g c #2d6c9f",
"#r c #2d72ab",
"#f c #2d74ad",
"#m c #2e7ab6",
"#E c #2e7bb8",
"bJ c #2ea92e",
"ae c #2ed32e",
"#v c #2f7cba",
"#F c #2f7ebe",
"b0 c #2fb42f",
"#a c #306591",
"ah c #307fbf",
"#J c #313131",
".4 c #31648e",
"#e c #337ab3",
".g c #34414a",
".W c #356994",
"#7 c #36d836",
".3 c #3773a5",
"aO c #37e337",
"b3 c #38aa38",
"#w c #3a6b91",
".N c #3c729d",
"#d c #3c81b9",
"aN c #3ce53c",
".x c #3d3d3d",
"aF c #3df33d",
"#. c #3e7db1",
"al c #3eeb3e",
"#b c #427096",
"ad c #43e043",
"at c #43fa43",
"#x c #464646",
"#h c #477498",
".M c #487ca5",
"bE c #4afb4a",
".I c #4c6272",
".2 c #4c85b3",
"b8 c #4cf64c",
".V c #4e81aa",
"#6 c #4edf4e",
".q c #4f6574",
".z c #4f6778",
".k c #4f697a",
"#I c #505050",
".9 c #508ec1",
"bz c #54ff54",
"#o c #557ea0",
".H c #5589b3",
"aE c #58f258",
"#i c #5a82a3",
"#j c #5d5d5d",
"#l c #5d92bd",
"b7 c #5de45d",
".b c #5e6a71",
".L c #6393b9",
"#U c #63ec63",
"ak c #64fc64",
".1 c #669dc9",
".o c #676767",
"#p c #678daa",
"#5 c #69e869",
"aD c #6af16a",
"by c #6dfc6d",
".8 c #6ea6d2",
"bQ c #6ee66e",
"aC c #6ef16e",
"b5 c #6ff56f",
".G c #709cc0",
"bV c #70f370",
"bZ c #71ea71",
"bD c #72fc72",
"#z c #767676",
".w c #7ba6c9",
".f c #819bac",
"#T c #81ef81",
"as c #81fd81",
"ac c #82f882",
"#4 c #83f083",
"#c c #84aecf",
".U c #85aed1",
"aj c #86ff86",
".n c #878787",
"bC c #89fc89",
".j c #8ca1af",
".F c #8cb2d0",
".0 c #8cbadf",
".5 c #8ea4b2",
"#H c #8ef48e",
"ar c #8efb8e",
"bP c #8ffc8f",
"aq c #90f790",
".p c #91a6b5",
"#y c #929292",
"b4 c #96ff96",
"#S c #97f697",
"ab c #98fd98",
".m c #999999",
".a c #99b1c2",
".v c #99bbd7",
"ai c #99ff99",
"bO c #9afd9a",
"#q c #9bb9cf",
"bY c #9cfd9c",
".7 c #9dc3e1",
".R c #9e9e9e",
"#G c #9ff79f",
".C c #a1a1a1",
".T c #a2c6e3",
"#R c #a2f7a2",
"#3 c #a2fca2",
".t c #a4a4a4",
".E c #a5c4dd",
".Z c #a7cceb",
"#k c #a9c1d3",
".u c #adc8df",
".K c #aecce3",
".e c #afc6d6",
".i c #b2c9d8",
".D c #b3cee3",
".J c #b4d2ea",
".# c #b5d1e5",
".S c #b9d5eb",
".y c #bdd5e6",
".d c #bed6e6",
"QtQtQtQtQtQtQtQtQtQtQtQtQtQtQtQtQtQtQtQtQtQtQtQtQtQtQtQtQtQtQtQtQtQtQtQtQtQtQtQtQtQtQtQtQtQtQtQt",
"QtQtQtQtQtQtQtQtQtQtQtQtQtQtQtQtQtQtQtQtQtQtQtQtQtQtQtQtQtQtQtQtQtQtQtQtQtQtQtQtQtQtQt.#.a.b.cQt",
"QtQtQtQtQtQtQtQtQtQtQtQtQtQtQtQtQtQtQtQtQtQtQtQtQtQtQtQtQtQtQtQtQtQtQtQtQtQtQtQtQtQt.d.e.f.g.hQt",
"QtQtQtQtQtQtQtQtQtQtQtQtQtQtQtQtQtQtQtQtQtQtQtQtQtQtQtQtQtQtQtQtQtQtQtQtQtQtQtQtQt.d.i.j.k.l.hQt",
"QtQtQtQtQtQtQtQtQtQtQtQtQtQtQtQtQtQtQtQtQtQt.m.n.oQtQtQtQtQtQtQtQtQtQtQtQtQtQtQt.d.i.p.q.r.s.hQt",
"QtQtQtQtQtQtQtQtQtQtQtQtQtQtQtQtQtQtQtQtQt.t.u.v.w.xQtQtQtQtQtQtQtQtQtQtQtQtQt.y.e.p.z.A.s.B.BQt",
"QtQtQtQtQtQtQtQtQtQtQtQtQtQtQtQtQtQtQtQt.C.D.E.F.G.H.cQtQtQtQtQtQtQtQtQtQtQt.y.e.p.I.A.s.B.hQtQt",
"QtQtQtQtQtQtQtQtQtQtQtQtQtQtQtQtQtQtQt.C.J.K.v.w.L.M.N.OQtQtQtQtQtQtQtQtQt.y.e.p.z.P.Q.B.hQtQtQt",
"QtQtQtQtQtQtQtQtQtQtQtQtQtQtQtQtQtQt.R.S.J.T.U.L.V.N.W.X.YQtQtQtQtQtQtQt.d.e.j.z.A.Q.B.hQtQtQtQt",
"QtQtQtQtQtQtQtQtQtQtQtQtQtQtQtQtQt.m.#.J.Z.0.1.2.3.W.W.4.4.cQtQtQtQtQt.d.i.5.I.P.6.B.hQtQtQtQtQt",
"QtQtQtQtQtQtQtQtQtQtQtQtQtQtQtQt.n.E.E.7.0.8.9#..3###a.4.4#b.xQtQtQt.y.e.5.I.P.s.B.hQtQtQtQtQtQt",
"QtQtQtQtQtQtQtQtQtQtQtQtQtQtQt.o.U.U#c.w.1.9#d#e#f#g.X.4.W#h#i#jQt.D#k.5.q.A.s.B.hQtQtQtQtQtQtQt",
"QtQtQtQtQtQtQtQtQtQtQtQtQtQtQt.x#l#l.H.2#.#e#e#m#m#f#g#n.4#b#o#p.o#q.f.q.P.s.B.hQtQtQtQtQtQtQtQt",
"QtQtQtQtQtQtQtQtQtQtQtQtQtQtQt.Y#r#s#t#u#u#s#r#m#v#v#f###n#w#h#i#p#x.I.r.s.B.hQtQtQtQtQtQtQtQtQt",
"QtQtQtQtQtQtQtQtQtQtQtQt.C#y#z#j.h#A#B#B#A#C#t#D#E#F#v#r##.4#w#b#h#w.h.6.Q.hQtQtQtQtQtQtQtQtQtQt",
"QtQtQtQtQtQtQtQtQtQtQt.t#G#H#z#I#J.h#K#L#M#B#N#u#O#E#F#v#r#P#n#n#n#N#Q.h.hQtQtQtQtQtQtQtQtQtQtQt",
"QtQtQtQtQtQtQtQtQtQt.C#R#S#T#U#x#V.c.h#W#X#Y#Z#0#1#O#E#F#E#D#u#2#N#0#Q#K.hQtQtQtQtQtQtQtQtQtQtQt",
"QtQtQtQtQtQtQtQtQt.C#3#S#4#5#6#7#V.c.O.h#8#9#Y#Z#0a.#O#E#F#E#O#1#N#0a#aa#L.hQtQtQtQtQtQtQtQtQtQt",
"QtQtQtQtQtQtQtQt.R#3abac#Uadaeafag.O.Y.Y.h#8#9#L#Q#0a.#O#Eah#E#O#1#A#0#Ba##Z.hQtQtQtQtQtQtQtQtQt",
"QtQtQtQtQtQtQt.m#3aiajakalamanaoapap.O.Y.Y.h#8#9#L#Q#0a.#O#E#F#E#O#1#N#N#N#N#N.hQtQtQtQtQtQtQtQt",
"QtQtQtQtQtQt.naqarasakatauavawaxayapaz.OaA.Y.h#8#9#L#Q#0a.#O#E#F#E#D#uaBaBaBaBaB.BQtQtQtQtQtQtQt",
"QtQtQtQtQt.oaCaCaDaEaFaGaHaIaJaKaLaMazaz.O.Y.Y.h#8#9#L#Q#0a.#O#E#F#v#D#PaBaBaBaB#2.hQtQtQtQtQtQt",
"QtQtQtQtQt.xalaNaOaPaQaRaSaTaSaUaVaWaMaXaz.O.Y.Y.h#8#9#L#Q#0a.#O#E#F#E#O#uaBaB#B#B#A.hQtQtQtQtQt",
"QtQtQtQtQt.YaJaYaZaKaZaUa0aTa1aSaUa2a3a4aXaz.O.Y.Y.h#8#9#L#Q#Ba.a5#m#va6#sa7#B#M#Y#Y#Y.hQtQtQtQt",
"QtQtQtQtQtQt.ha8a9a9a8a2aYb.a1b#aSaYbaa3a4aXaz.O.Y.Y.h#8#9#L#Qa#a.a5a6a6#s#C#Z#Xbbbbbc.hQtQtQtQt",
"QtQtQtQtQtQtQt.hbdbdbea9bfbgb.b#b#aSaYbaa3a4aXaz.O.Y.Y.h#8#9#L#Ma#a7#s#s#1#0#Xbcbhbibi.hQtQtQtQt",
"QtQtQtQtQtQtQtQt.hbjbkbea9bfbgaSb#b#aSaYbaa3a4aXaz.O.Y.Y.h#8#9#Kbl#Z#2#C#0#Kbcbibmbm.hQtQtQtQtQt",
"QtQtQtQtQtQtQtQtQt.hbkbdbnbobaaYaSb#b#aSaYbaa3a4aXaz.O.Y.Y.h#8#W#X#Lblbl#9bcbi.6bm.hQtQtQtQtQtQt",
"QtQtQtQtQtQtQtQtQtQt.hbea9a8a3bpaYaSb#b#aSaYbaa3a4aXaz.O.Y.Y.hbb#8#W#Wbbbqbi.6bm.hQtQtQtQtQtQtQt",
"QtQtQtQtQtQtQtQtQtQtQt.ha3a4braWbabgaSb#b#aSaYbaa3a4aXaX.O.Y.Q.hbbbcbcbhbibmbm.hQtQtQtQtQtQtQtQt",
"QtQtQtQtQtQtQtQtQtQtQtQt#Vbsbta4bubfbgb.b#b#aSaYbabva4aXaX.Y.B.h.hbcbhbibmbm.hQtQtQtQtQtQtQtQtQt",
"QtQtQtQtQtQtQtQtQtQtQtQtat#Jbta8a9a9buaZa0b#b#aSaYbabwbxbxa4.h.h.h.hbh.l.l.hQtQtQtQtQtQtQtQtQtQt",
"QtQtQtQtQtQtQtQtQtQtQtbybzbA.hbebdbdbna8aZa0a1b#b.bgbabwbBboa8.h.h.h.h.h.hQtQtQtQtQtQtQtQtQtQtQt",
"QtQtQtQtQtQtQtQtQtQtbCbDbEbF.h.hbGbHbkbea8aZa0a1a1bIaZbfbobnbebd.h.hQtQtQtQtQtQtQtQtQtQtQtQtQtQt",
"QtQtQtQtQtQtQtQtQtabbCakbJbKbL.h.hbMbGbkbebuaZbIaTb.aYbfa9bkbHbNbM.hQtQtQtQtQtQtQtQtQtQtQtQtQtQt",
"QtQtQtQtQtQtQtQtbObPbQbRbNbSbL.hQt.hbMbHbkbebuaKaJaJaZa8bdbGbTbUbU.hQtQtQtQtQtQtQtQtQtQtQtQtQtQt",
"QtQtQtQtQtQtQtbObPbVbJbTbWbL.hQtQtQt.hbNbjbkbea8a2aVbubebGbKbXbX.hQtQtQtQtQtQtQtQtQtQtQtQtQtQtQt",
"QtQtQtQtQtQtbYabbZb0bTb1b2.hQtQtQtQtQt.hbGbjbkbea9a9bdbGbKbXbX.hQtQtQtQtQtQtQtQtQtQtQtQtQtQtQtQt",
"QtQtQtQtQtbYbPbZb3bKbSbL.hQtQtQtQtQtQtQt.hbGbHbjbkbjbNbKbXbX.hQtQtQtQtQtQtQtQtQtQtQtQtQtQtQtQtQt",
"QtQtQtQtbObPbZb0bTb1b2.hQtQtQtQtQtQtQtQtQt.hbGbGbNbTbUbXbX.hQtQtQtQtQtQtQtQtQtQtQtQtQtQtQtQtQtQt",
"QtQtQtabb4bQbJbTb1b2.hQtQtQtQtQtQtQtQtQtQtQt.hbNbTbUbXbX.hQtQtQtQtQtQtQtQtQtQtQtQtQtQtQtQtQtQtQt",
"QtQtbPbCb5b0bKb6b2.hQtQtQtQtQtQtQtQtQtQtQtQtQt.hbKbUbU.hQtQtQtQtQtQtQtQtQtQtQtQtQtQtQtQtQtQtQtQt",
"QtbDbDb7bRbTb1b2.hQtQtQtQtQtQtQtQtQtQtQtQtQtQtQt.h.h.hQtQtQtQtQtQtQtQtQtQtQtQtQtQtQtQtQtQtQtQtQt",
"Qtb8aOb9bKb1bL.hQtQtQtQtQtQtQtQtQtQtQtQtQtQtQtQtQtQtQtQtQtQtQtQtQtQtQtQtQtQtQtQtQtQtQtQtQtQtQtQt",
"QtagbnbTb1b2.hQtQtQtQtQtQtQtQtQtQtQtQtQtQtQtQtQtQtQtQtQtQtQtQtQtQtQtQtQtQtQtQtQtQtQtQtQtQtQtQtQt",
"QtbUbXb1b2.hQtQtQtQtQtQtQtQtQtQtQtQtQtQtQtQtQtQtQtQtQtQtQtQtQtQtQtQtQtQtQtQtQtQtQtQtQtQtQtQtQtQt",
"Qt.h.h.h.hQtQtQtQtQtQtQtQtQtQtQtQtQtQtQtQtQtQtQtQtQtQtQtQtQtQtQtQtQtQtQtQtQtQtQtQtQtQtQtQtQtQtQt",
"QtQtQtQtQtQtQtQtQtQtQtQtQtQtQtQtQtQtQtQtQtQtQtQtQtQtQtQtQtQtQtQtQtQtQtQtQtQtQtQtQtQtQtQtQtQtQtQt"};
