/* XPM */
static const char * xpmDataSourceNameSystem48[] = {
"48 48 826 2",
"  	c None",
". 	c #71490A",
"+ 	c #71480A",
"@ 	c #71480B",
"# 	c #714A09",
"$ 	c #7E5616",
"% 	c #966B28",
"& 	c #A47834",
"* 	c #AC813B",
"= 	c #AB7F39",
"- 	c #9E722F",
"; 	c #906523",
"> 	c #7D5413",
", 	c #724A0A",
"' 	c #976A29",
") 	c #B3853F",
"! 	c #B28036",
"~ 	c #B07E31",
"{ 	c #AE7B2B",
"] 	c #AB7829",
"^ 	c #A8772A",
"/ 	c #A5752A",
"( 	c #A47732",
"_ 	c #8F6421",
": 	c #724A0B",
"< 	c #A87C37",
"[ 	c #B4843C",
"} 	c #B48031",
"| 	c #B88333",
"1 	c #BA8535",
"2 	c #B98434",
"3 	c #B58131",
"4 	c #B07C2C",
"5 	c #A97526",
"6 	c #A17022",
"7 	c #A0722A",
"8 	c #9B702C",
"9 	c #724909",
"0 	c #996D29",
"a 	c #B3843A",
"b 	c #BD8838",
"c 	c #C38D3D",
"d 	c #C5903F",
"e 	c #C48F3E",
"f 	c #C08B3A",
"g 	c #B17D2D",
"h 	c #A77425",
"i 	c #9D6B1C",
"j 	c #9F7129",
"k 	c #906422",
"l 	c #714809",
"m 	c #815817",
"n 	c #B2843D",
"o 	c #B37F31",
"p 	c #BD8837",
"q 	c #C6903F",
"r 	c #CD9746",
"s 	c #D19A49",
"t 	c #CF9948",
"u 	c #C99342",
"v 	c #C18C3B",
"w 	c #B78333",
"x 	c #AD792A",
"y 	c #A26F20",
"z 	c #98671A",
"A 	c #A27630",
"B 	c #72490A",
"C 	c #976C28",
"D 	c #AF7F33",
"E 	c #B68232",
"F 	c #C28C3C",
"G 	c #CC9645",
"H 	c #D69F4D",
"I 	c #DCA553",
"J 	c #D9A250",
"K 	c #C69140",
"L 	c #BB8736",
"M 	c #B07C2D",
"N 	c #A57223",
"O 	c #9A6719",
"P 	c #9C6D23",
"Q 	c #8F6522",
"R 	c #A47832",
"S 	c #AE7C2E",
"T 	c #C48E3D",
"U 	c #CF9947",
"V 	c #DAA351",
"W 	c #E6AE5B",
"X 	c #DFA856",
"Y 	c #D49E4C",
"Z 	c #B17D2E",
"` 	c #A67324",
" .	c #9B681A",
"..	c #99681C",
"+.	c #9A6F2B",
"@.	c #C37D11",
"#.	c #C37E12",
"$.	c #C17E13",
"%.	c #C47F13",
"&.	c #C17E11",
"*.	c #C38013",
"=.	c #AB7F3A",
"-.	c #AB792A",
";.	c #B78232",
">.	c #C28D3C",
",.	c #D7A04E",
"'.	c #DDA654",
").	c #DBA451",
"!.	c #D19B49",
"~.	c #C79140",
"{.	c #BC8737",
"].	c #9A6819",
"^.	c #966517",
"/.	c #A6772E",
"(.	c #B07210",
"_.	c #C9881E",
":.	c #D89D40",
"<.	c #E1A951",
"[.	c #E7B25E",
"}.	c #E7B15D",
"|.	c #E2A84E",
"1.	c #D99C39",
"2.	c #CD8C24",
"3.	c #A97D38",
"4.	c #A87627",
"5.	c #B37F2F",
"6.	c #CE9847",
"7.	c #D29C4A",
"8.	c #D09A49",
"9.	c #CA9443",
"0.	c #A26F21",
"a.	c #976517",
"b.	c #A36D15",
"c.	c #C17F15",
"d.	c #D49A3A",
"e.	c #E7B465",
"f.	c #E7B15C",
"g.	c #E6AE57",
"h.	c #E5AB4F",
"i.	c #E4A84A",
"j.	c #E4A849",
"k.	c #E3A747",
"l.	c #E4AB4F",
"m.	c #DB9D3A",
"n.	c #C48115",
"o.	c #C37E11",
"p.	c #9E732E",
"q.	c #A67427",
"r.	c #AD7A2A",
"s.	c #BE8939",
"t.	c #A87526",
"u.	c #9E6B1D",
"v.	c #9A6616",
"w.	c #C07E14",
"x.	c #E0A951",
"y.	c #E8B564",
"z.	c #E7B05A",
"A.	c #E8B361",
"B.	c #E7B05B",
"C.	c #E5AC52",
"D.	c #E4A746",
"E.	c #E2A13B",
"F.	c #E3A541",
"G.	c #E3A749",
"H.	c #C58117",
"I.	c #916724",
"J.	c #A27328",
"K.	c #AE7A2B",
"L.	c #B58030",
"M.	c #B98534",
"N.	c #BB8636",
"O.	c #BA8635",
"P.	c #AA7627",
"Q.	c #A16E20",
"R.	c #986618",
"S.	c #B87813",
"T.	c #D59839",
"U.	c #E8B563",
"V.	c #E6AF59",
"W.	c #E8B566",
"X.	c #EABA70",
"Y.	c #EBBC75",
"Z.	c #EABC74",
"`.	c #E9B96D",
" +	c #E8B362",
".+	c #E6AD54",
"++	c #E3A644",
"@+	c #E19E34",
"#+	c #E2A23C",
"$+	c #DC9F3E",
"%+	c #7D5515",
"&+	c #A27530",
"*+	c #9F6C1F",
"=+	c #AA7728",
"-+	c #AF7B2C",
";+	c #AC7929",
">+	c #996719",
",+	c #A36B14",
"'+	c #C5831C",
")+	c #E7B462",
"!+	c #E7AF57",
"~+	c #ECC281",
"{+	c #EDC588",
"]+	c #EDC586",
"^+	c #ECC07D",
"/+	c #EABA6F",
"(+	c #E7B25F",
"_+	c #E5AA4E",
":+	c #E2A13C",
"<+	c #DF992A",
"[+	c #D08F28",
"}+	c #C27F12",
"|+	c #704809",
"1+	c #926523",
"2+	c #9E7028",
"3+	c #A06D1E",
"4+	c #A37021",
"5+	c #A47122",
"6+	c #986517",
"7+	c #966416",
"8+	c #AF7314",
"9+	c #D59938",
"0+	c #E6B05A",
"a+	c #E9B86C",
"b+	c #ECC17F",
"c+	c #EFC98F",
"d+	c #F0CE9B",
"e+	c #F0CD98",
"f+	c #EEC78A",
"g+	c #EBBE79",
"h+	c #E8B667",
"i+	c #E3A441",
"j+	c #E09B2E",
"k+	c #E19E33",
"l+	c #C37F12",
"m+	c #474105",
"n+	c #6F490B",
"o+	c #9D712D",
"p+	c #976518",
"q+	c #996618",
"r+	c #BD7C17",
"s+	c #DDA347",
"t+	c #EDC383",
"u+	c #F0CC97",
"v+	c #F2D5AA",
"w+	c #F2D3A4",
"x+	c #EFC990",
"y+	c #E9B76A",
"z+	c #E6AE56",
"A+	c #E3A543",
"B+	c #E09C2F",
"C+	c #E09929",
"D+	c #E3A84B",
"E+	c #C17D11",
"F+	c #414803",
"G+	c #535A12",
"H+	c #6F641F",
"I+	c #714B0B",
"J+	c #8F6622",
"K+	c #9B6C22",
"L+	c #98681B",
"M+	c #C17D12",
"N+	c #E5AD55",
"O+	c #E5A94B",
"P+	c #ECC180",
"Q+	c #EFCA91",
"R+	c #F1CF9D",
"S+	c #F0CE9A",
"T+	c #EEC78C",
"U+	c #EBBF7A",
"V+	c #E9B667",
"W+	c #DF9725",
"X+	c #C58319",
"Y+	c #414804",
"Z+	c #61691A",
"`+	c #828B38",
" @	c #646D15",
".@	c #585708",
"+@	c #6B4A09",
"@@	c #7C5515",
"#@	c #916725",
"$@	c #9C702C",
"%@	c #A27732",
"&@	c #916624",
"*@	c #C07D11",
"=@	c #E4AB52",
"-@	c #EBBD76",
";@	c #EEC689",
">@	c #EABA71",
",@	c #E7B360",
"'@	c #E5AA4F",
")@	c #E2A23D",
"!@	c #414704",
"~@	c #6B7422",
"{@	c #828A36",
"]@	c #6B7612",
"^@	c #636E09",
"/@	c #5A6308",
"(@	c #525907",
"_@	c #685D11",
":@	c #6D530E",
"<@	c #6F4A0B",
"[@	c #704A0A",
"}@	c #70490A",
"|@	c #6E490A",
"1@	c #6C510E",
"2@	c #685F13",
"3@	c #B17B13",
"4@	c #DCA041",
"5@	c #E4A94B",
"6@	c #E9B668",
"7@	c #EABB72",
"8@	c #EBBD77",
"9@	c #E8B464",
"0@	c #E3A646",
"a@	c #E19E35",
"b@	c #5F661A",
"c@	c #7F8834",
"d@	c #68730D",
"e@	c #677209",
"f@	c #687409",
"g@	c #636D08",
"h@	c #5C6508",
"i@	c #626D10",
"j@	c #717E1D",
"k@	c #5B6411",
"l@	c #4A4F07",
"m@	c #494D07",
"n@	c #464E06",
"o@	c #606A14",
"p@	c #73811E",
"q@	c #96740F",
"r@	c #D49630",
"s@	c #E3A645",
"t@	c #E2A33F",
"u@	c #E4A94C",
"v@	c #E6AF58",
"w@	c #E8B463",
"x@	c #E7B15E",
"y@	c #E4A748",
"z@	c #E2A13A",
"A@	c #DF992B",
"B@	c #E19D32",
"C@	c #C27E12",
"D@	c #454C07",
"E@	c #808737",
"F@	c #6B7413",
"G@	c #657008",
"H@	c #697409",
"I@	c #6A7609",
"J@	c #667209",
"K@	c #606A08",
"L@	c #77851A",
"M@	c #5C660A",
"N@	c #555E07",
"O@	c #535C07",
"P@	c #5F6B0E",
"Q@	c #717F17",
"R@	c #7E700B",
"S@	c #C3841B",
"T@	c #E5AA4C",
"U@	c #E19E36",
"V@	c #E5AA4D",
"W@	c #E5AB51",
"X@	c #E5AB50",
"Y@	c #E3A544",
"Z@	c #E2A039",
"`@	c #E09A2D",
" #	c #DF9726",
".#	c #E4A848",
"+#	c #CF8E27",
"@#	c #BD7B11",
"##	c #424803",
"$#	c #6B7224",
"%#	c #767F28",
"&#	c #636E08",
"*#	c #687309",
"=#	c #6A7509",
"-#	c #6B7709",
";#	c #6C7709",
">#	c #6D770A",
",#	c #656F08",
"'#	c #606B08",
")#	c #5E6908",
"!#	c #616B08",
"~#	c #667109",
"{#	c #68740A",
"]#	c #AA790F",
"^#	c #D29430",
"/#	c #E4A645",
"(#	c #E09A2C",
"_#	c #DF9929",
":#	c #E2A23B",
"<#	c #C07C11",
"[#	c #474D07",
"}#	c #80883A",
"|#	c #636D0C",
"1#	c #646F08",
"2#	c #667108",
"3#	c #6B7609",
"4#	c #65700C",
"5#	c #455750",
"6#	c #BA7C18",
"7#	c #DFA241",
"8#	c #DF9827",
"9#	c #BD7F1B",
"0#	c #615137",
"a#	c #535A14",
"b#	c #798232",
"c#	c #616C08",
"d#	c #626D08",
"e#	c #697509",
"f#	c #626F10",
"g#	c #30546D",
"h#	c #3B6196",
"i#	c #757673",
"j#	c #BD7F19",
"k#	c #D49534",
"l#	c #E2A038",
"m#	c #E09B2D",
"n#	c #E19F35",
"o#	c #DB9D3C",
"p#	c #BF801A",
"q#	c #877249",
"r#	c #1E4277",
"s#	c #424704",
"t#	c #5F661D",
"u#	c #727B28",
"v#	c #5F6908",
"w#	c #5F6A08",
"x#	c #566007",
"y#	c #5C6B19",
"z#	c #294F79",
"A#	c #426A9F",
"B#	c #5A85BA",
"C#	c #37659F",
"D#	c #657C91",
"E#	c #AB7B2C",
"F#	c #C48723",
"G#	c #D99B38",
"H#	c #E0A445",
"I#	c #E5AB4E",
"J#	c #E2A647",
"K#	c #CA8B28",
"L#	c #B67B1C",
"M#	c #6C7371",
"N#	c #486995",
"O#	c #4E74A5",
"P#	c #24508B",
"Q#	c #214B87",
"R#	c #676E24",
"S#	c #6D7622",
"T#	c #5D6708",
"U#	c #545D07",
"V#	c #5A6408",
"W#	c #626C08",
"X#	c #606C10",
"Y#	c #254E7E",
"Z#	c #4B72A7",
"`#	c #5581B9",
" $	c #396CAE",
".$	c #3468A9",
"+$	c #527CAC",
"@$	c #5A7BA0",
"#$	c #7A7460",
"$$	c #B0833B",
"%$	c #BE801E",
"&$	c #C17F18",
"*$	c #BE7E19",
"=$	c #B58332",
"-$	c #806F4B",
";$	c #556F8B",
">$	c #587BA1",
",$	c #325D95",
"'$	c #4976AD",
")$	c #577DAF",
"!$	c #29548D",
"~$	c #204C89",
"{$	c #3E4503",
"]$	c #5C631B",
"^$	c #727B2B",
"/$	c #596408",
"($	c #4E5707",
"_$	c #5C6608",
":$	c #3C5952",
"<$	c #3C6598",
"[$	c #5781B8",
"}$	c #376BAC",
"|$	c #366BAE",
"1$	c #376DB1",
"2$	c #4777B2",
"3$	c #6289B2",
"4$	c #456D9A",
"5$	c #788BA2",
"6$	c #ACACAC",
"7$	c #A6A29C",
"8$	c #A59F95",
"9$	c #A5A5A5",
"0$	c #87919E",
"a$	c #2F5381",
"b$	c #597DA3",
"c$	c #537BA8",
"d$	c #3265A3",
"e$	c #3364A2",
"f$	c #4572A9",
"g$	c #557DAD",
"h$	c #224D88",
"i$	c #4C530F",
"j$	c #798136",
"k$	c #515A07",
"l$	c #505907",
"m$	c #5D6808",
"n$	c #5E6808",
"o$	c #55651D",
"p$	c #275086",
"q$	c #5A83B7",
"r$	c #3D6FAD",
"s$	c #366AAC",
"t$	c #366CAF",
"u$	c #3870B4",
"v$	c #5E8CC1",
"w$	c #3B6BA7",
"x$	c #3E69A0",
"y$	c #C6C6C7",
"z$	c #C2C2C2",
"A$	c #C0C0C0",
"B$	c #647FA1",
"C$	c #2D588F",
"D$	c #5883B4",
"E$	c #3D6EAC",
"F$	c #3366A5",
"G$	c #3364A3",
"H$	c #3263A0",
"I$	c #406089",
"J$	c #3E6599",
"K$	c #204C88",
"L$	c #767D32",
"M$	c #596118",
"N$	c #5B6508",
"O$	c #2F526A",
"P$	c #4871A4",
"Q$	c #4C79B1",
"R$	c #3568A9",
"S$	c #386EB3",
"T$	c #3C73B7",
"U$	c #3A70B6",
"V$	c #376CB0",
"W$	c #BBC7D8",
"X$	c #DFDFDF",
"Y$	c #DDDDDD",
"Z$	c #E2E2E3",
"`$	c #4371AA",
" %	c #36517A",
".%	c #6B6477",
"+%	c #4B4B64",
"@%	c #274D7D",
"#%	c #506E94",
"$%	c #C1C2C3",
"%%	c #67727F",
"&%	c #2A548F",
"*%	c #394103",
"=%	c #4D540F",
"-%	c #6A7130",
";%	c #5F6812",
">%	c #556214",
",%	c #254D85",
"'%	c #5D84B7",
")%	c #3667A7",
"!%	c #3468A8",
"~%	c #3569AB",
"{%	c #366BAD",
"]%	c #376CAF",
"^%	c #386FB4",
"/%	c #86A7CF",
"(%	c #F6F6F6",
"_%	c #D2DCE9",
":%	c #38486D",
"<%	c #C04943",
"[%	c #B55552",
"}%	c #C7706D",
"|%	c #B24844",
"1%	c #544F5C",
"2%	c #DCDCDC",
"3%	c #CCCCCC",
"4%	c #485769",
"5%	c #4971A3",
"6%	c #204B88",
"7%	c #404503",
"8%	c #555A16",
"9%	c #7B8338",
"0%	c #6E7725",
"a%	c #67701A",
"b%	c #616B12",
"c%	c #4B5E29",
"d%	c #315A89",
"e%	c #557EB2",
"f%	c #3365A4",
"g%	c #3467A7",
"h%	c #366AAD",
"i%	c #376DB0",
"j%	c #4779B6",
"k%	c #ECECED",
"l%	c #EDEDED",
"m%	c #8BA2BD",
"n%	c #A54A49",
"o%	c #D23932",
"p%	c #D08E8B",
"q%	c #DC9895",
"r%	c #B78786",
"s%	c #E5DDDD",
"t%	c #B3B1B1",
"u%	c #415164",
"v%	c #34629A",
"w%	c #567AA7",
"x%	c #1B3D71",
"y%	c #3E4504",
"z%	c #4A510C",
"A%	c #636B1F",
"B%	c #70782A",
"C%	c #788034",
"D%	c #7D853B",
"E%	c #7C843A",
"F%	c #556C5B",
"G%	c #3E6598",
"H%	c #4C77AC",
"I%	c #3365A5",
"J%	c #30609A",
"K%	c #3367A6",
"L%	c #3569AA",
"M%	c #BFCAD9",
"N%	c #E5E5E5",
"O%	c #676E88",
"P%	c #D8322E",
"Q%	c #E6534C",
"R%	c #D28784",
"S%	c #D29593",
"T%	c #CBBDBD",
"U%	c #B2AEAE",
"V%	c #B26B6A",
"W%	c #5A2E33",
"X%	c #264D7D",
"Y%	c #606B78",
"Z%	c #313504",
"`%	c #3C4404",
" &	c #404604",
".&	c #424806",
"+&	c #434908",
"@&	c #2F4953",
"#&	c #416A9F",
"$&	c #4773A8",
"%&	c #30619D",
"&&	c #2E5C95",
"*&	c #3467A8",
"=&	c #95ABC6",
"-&	c #7E4E5E",
";&	c #DF2620",
">&	c #F5ABA7",
",&	c #E25754",
"'&	c #D8A09D",
")&	c #BB8B88",
"!&	c #956A69",
"~&	c #DF9998",
"{&	c #D16865",
"]&	c #6E5A59",
"^&	c #E1E1E1",
"/&	c #8A8D92",
"(&	c #233E65",
"_&	c #1B3453",
":&	c #365D93",
"<&	c #4E77AA",
"[&	c #31619E",
"}&	c #2C578D",
"|&	c #305F9B",
"1&	c #3264A2",
"2&	c #3365A3",
"3&	c #3466A6",
"4&	c #6F8FB6",
"5&	c #C4C9CF",
"6&	c #92353C",
"7&	c #EB5651",
"8&	c #FAD7D3",
"9&	c #F76C69",
"0&	c #DF8D8A",
"a&	c #DAA3A0",
"b&	c #CA928F",
"c&	c #C38887",
"d&	c #C0A1A1",
"e&	c #E1E0E0",
"f&	c #787778",
"g&	c #31517F",
"h&	c #1C4074",
"i&	c #2A528C",
"j&	c #587DAD",
"k&	c #2E5B95",
"l&	c #2B5489",
"m&	c #31609D",
"n&	c #31629F",
"o&	c #3263A1",
"p&	c #4D76A8",
"q&	c #A0AEBF",
"r&	c #912C2E",
"s&	c #F17971",
"t&	c #F7756F",
"u&	c #F85D58",
"v&	c #F54744",
"w&	c #DC9E9B",
"x&	c #D89F9C",
"y&	c #B38583",
"z&	c #DBDBDB",
"A&	c #A99494",
"B&	c #591211",
"C&	c #264C80",
"D&	c #204A86",
"E&	c #5278A7",
"F&	c #386092",
"G&	c #305F9A",
"H&	c #30609C",
"I&	c #31609C",
"J&	c #31619D",
"K&	c #31629E",
"L&	c #33639F",
"M&	c #7C94B3",
"N&	c #8F3234",
"O&	c #F2756A",
"P&	c #F11A15",
"Q&	c #F51612",
"R&	c #F54D45",
"S&	c #EA3D39",
"T&	c #D49592",
"U&	c #D49895",
"V&	c #B08381",
"W&	c #AA7473",
"X&	c #AC3D39",
"Y&	c #16294C",
"Z&	c #1B3D70",
"`&	c #2F578F",
" *	c #4C6D95",
".*	c #325E93",
"+*	c #2F5D97",
"@*	c #2F5E98",
"#*	c #305E99",
"$*	c #436CA0",
"%*	c #753B44",
"&*	c #E63B33",
"**	c #EB1510",
"=*	c #EE1410",
"-*	c #EA120E",
";*	c #E21E16",
">*	c #D93530",
",*	c #CD8380",
"'*	c #CB8B88",
")*	c #C58381",
"!*	c #BD6E6B",
"~*	c #261423",
"{*	c #1F4782",
"]*	c #385C8C",
"^*	c #577BA8",
"/*	c #426B9E",
"(*	c #3A669B",
"_*	c #346098",
":*	c #2F5D96",
"<*	c #433B53",
"[*	c #DA3530",
"}*	c #E0140C",
"|*	c #DF120C",
"1*	c #D90F0A",
"2*	c #D20D08",
"3*	c #C50B06",
"4*	c #BF1E19",
"5*	c #C05652",
"6*	c #C3706D",
"7*	c #B54844",
"8*	c #1D0506",
"9*	c #1F467E",
"0*	c #2C558C",
"a*	c #43699A",
"b*	c #4D73A2",
"c*	c #557AA7",
"d*	c #597CA9",
"e*	c #587CA9",
"f*	c #577BA9",
"g*	c #465870",
"h*	c #AC3C38",
"i*	c #C60E07",
"j*	c #C30C06",
"k*	c #BC0A05",
"l*	c #B50904",
"m*	c #AB0803",
"n*	c #A00B06",
"o*	c #9C0D09",
"p*	c #920D0A",
"q*	c #620C08",
"r*	c #1D447B",
"s*	c #204A87",
"t*	c #234B86",
"u*	c #244E88",
"v*	c #244E87",
"w*	c #244D87",
"x*	c #203F6A",
"y*	c #5A5B5D",
"z*	c #1E232F",
"A*	c #682527",
"B*	c #9D120D",
"C*	c #A10703",
"D*	c #9E0703",
"E*	c #960603",
"F*	c #8E0804",
"G*	c #850E0B",
"H*	c #460806",
"I*	c #221D1D",
"J*	c #494C50",
"K*	c #2D2F31",
"L*	c #444950",
"M*	c #52555B",
"N*	c #434245",
"O*	c #4B3636",
"P*	c #522C2B",
"Q*	c #4F2927",
"R*	c #472E2C",
"S*	c #353333",
"T*	c #5C5C5C",
"U*	c #404040",
"V*	c #424242",
"W*	c #5E5E5E",
"X*	c #646464",
"Y*	c #676767",
"                                                                                                ",
"                                                                                                ",
"                                                                                                ",
"                              . + @ + . .                                                       ",
"                          # $ % & * = - ; > .                                                   ",
"                        , ' ) ! ~ { ] ^ / ( _ .                                                 ",
"                      : < [ } | 1 2 3 4 5 6 7 8 .                                               ",
"                    9 0 a 3 b c d e f 2 g h i j k l                                             ",
"                    m n o p q r s t u v w x y z A >                                             ",
"                  B C D E F G H I J s K L M N O P Q B                                           ",
"                  . R S | T U V W X Y u b Z `  ...+.B   @.#.$.%.&.*.                            ",
"                  . =.-.;.>.r ,.'.).!.~.{.g N ].^./.(._.:.<.[.}.|.1.2.#.                        ",
"                  . 3.4.5.b ~.6.7.8.9.F | x 0.a.b.c.d.e.f.g.h.i.j.k.l.m.n.o.                    ",
"                  . p.q.r.E s.e ~.q v 1 Z t.u.v.w.x.y.z.}.A.A.B.C.D.E.F.G.H.                    ",
"                  B I.J.` K.L.M.N.O.;.g P.Q.R.S.T.U.V.W.X.Y.Z.`. +.+++@+#+$+o.                  ",
"                    %+&+*+N =+K.4 -+;+h Q.>+,+'+)+!+y.Z.~+{+]+^+/+(+_+:+<+j.[+}+                ",
"                    |+1+2+ .3+4+5+5+Q.i 6+7+8+9+z.0+a+b+c+d+e+f+g+h+.+i+j+k+$+l+                ",
"                    m+n+o+2+p+6+q+R.7+7+7+p+r+s+.+f.X.t+u+v+w+x+^+y+z+A+B+C+D+E+                ",
"                  F+G+H+I+J+&+K+L+^.^.L+K+&+M+N+O+z.`.P+Q+R+S+T+U+V+.+i+j+W+O+X+                ",
"                Y+Z+`+ @.@+@@@#@$@%@%@$@&@%+*@=@D..+W.-@t+f+;@b+>@,@'@)@<+W+O+X+                ",
"              !@~@{@]@^@/@(@_@:@<@[@}@|@1@2@3@4@D.5@z.6@7@8@-@/+9@z+0@a@W+C+D+E+                ",
"            Y+b@c@d@e@f@g@h@i@j@k@l@m@n@o@p@q@r@s@t@u@v@,@9@w@x@.+y@z@A@W+B@$+C@                ",
"            D@E@F@G@e@H@I@J@K@L@M@N@O@O@P@Q@R@S@T@U@)@D.V@W@X@u@Y@Z@`@W+ #.#+#@#                ",
"          ##$#%#&#G@e@*#=#-#;#>#,#'#)#!#~#{#e@]#^#/#(#a@z@)@)@Z@B@_#W+W+:#$+<#                  ",
"          [#}#|#g@1#2#e@f@=#3#;#;#;#-#I@H@*#4#5#6#7#A+C+8#<+_# #W+W+ ##+G.9#0#                  ",
"          a#b#K@c#K@d#2#e@*#H@H@e#e#H@*#e@f#g#h#i#j#k#O+l#j+8# #m#n#j.o#p#q#r#                  ",
"        s#t#u#v#w#x#g@1#G@2#~#e@e@e@e@2#y#z#A#B#C#D#E#F#G#H#I#I#J#m.K#L#M#N#O#P#Q#              ",
"        s#R#S#T#U#V#!#W#g@&#1#1#1#1#1#X#Y#Z#`# $.$+$@$#$$$%$c.&$*$=$-$;$>$,$'$)$!$~$            ",
"        {$]$^$/$($_$v#K@'#c#W#W#d#d#W#:$<$[$}$|$1$2$3$4$5$6$7$8$9$0$a$b$c$d$e$f$g$h$            ",
"          i$j$k$l$_$T#m$n$v#w#w#w#w#o$p$q$r$s$t$1$u$v$w$x$y$z$A$z$B$C$D$E$F$G$H$I$J$K$          ",
"          !@L$M$N@N$N$N$_$_$T#T#T#T#O$P$Q$R$s$|$1$S$T$U$V$W$X$Y$Z$`$ %.%+%@%e$#%$%%%&%          ",
"          *%=%-%;%N$N$N$N$N$N$N$N$>%,%'%)%!%~%{%]%1$S$^%^%/%(%(%_%:%<%[%}%|%1%2%3%4%5%6%        ",
"            7%8%9%0%a%b%M@N$N$N$N$c%d%e%f%g%R$g%h%|$]%i%1$j%k%l%m%n%o%p%q%r%s%t%u%v%w%x%        ",
"              y%z%A%B%C%D%E%E%E%E%F%G%H%G$I%J%K%L%~%s$h%{%h%M%N%O%P%Q%R%S%T%U%V%W%X%Y%A$        ",
"                Z%`% & &.&+&+&+&+&@&#&$&H$%&&&F$g%*&!%R$R$R$=&2%-&;&>&,&'&)&!&~&{&]&^&/&(&      ",
"                                  _&:&<&[&}&|&1&2&f%F$F$3&F$4&5&6&7&8&9&0&a&b&c&d&e&f&g&h&      ",
"                                    i&j&k&l&m&n&H$o&o&1&1&1&p&q&r&s&t&u&v&w&x&y&z&A&B&C&        ",
"                                    D&E&F&}&G&H&I&J&[&[&K&[&L&M&N&O&P&Q&R&S&T&U&V&W&X&Y&        ",
"                                    Z&`& *.*+*@*#*G&G&G&|&G&G&$*%*&***=*-*;*>*,*'*)*!*~*        ",
"                                      {*]*^*/*(*_*:*+*+*+*+*+*:*<*[*}*|*1*2*3*4*5*6*7*8*        ",
"                                        9*0*a*b*c*d*^*^*^*^*e*f*g*h*i*j*k*l*m*n*o*p*q*          ",
"                                            r*D&s*t*u*v*v*v*w*x*y*z*A*B*C*D*E*F*G*H*I*          ",
"                                                              J*K*L*M*N*O*P*Q*R*S*T*            ",
"                                                              U*V*      W*X*Y*                  ",
"                                                                                                ",
"                                                                                                ",
"                                                                                                ",
"                                                                                                "};
