/* XPM */
static const char * xpmDataSourceNameUser48[] = {
"48 48 652 2",
"  	c None",
". 	c #C37E12",
"+ 	c #C37F13",
"@ 	c #C27E12",
"# 	c #C17D12",
"$ 	c #CC8B25",
"% 	c #D99D3D",
"& 	c #DDA346",
"* 	c #E1A84D",
"= 	c #DEA446",
"- 	c #DB9D3B",
"; 	c #D49431",
"> 	c #C58117",
", 	c #C17E12",
"' 	c #D29534",
") 	c #E6B15C",
"! 	c #E7B25F",
"~ 	c #E5AD53",
"{ 	c #E5AB4E",
"] 	c #E4A848",
"^ 	c #E4A746",
"/ 	c #E4A747",
"( 	c #E5A849",
"_ 	c #E5AB50",
": 	c #DDA03F",
"< 	c #C8851C",
"[ 	c #C58219",
"} 	c #E3AC56",
"| 	c #E8B360",
"1 	c #E6AC51",
"2 	c #E5AB4F",
"3 	c #E5AA4E",
"4 	c #E5A84A",
"5 	c #E4A644",
"6 	c #E2A23C",
"7 	c #E19E34",
"8 	c #E3A23C",
"9 	c #E5A94C",
"0 	c #D59530",
"a 	c #C7851D",
"b 	c #E7B360",
"c 	c #E6B05A",
"d 	c #E6AC52",
"e 	c #E7AF58",
"f 	c #E7B15D",
"g 	c #E8B25F",
"h 	c #E7B15C",
"i 	c #E7AF57",
"j 	c #E4A748",
"k 	c #E3A33E",
"l 	c #E19E33",
"m 	c #E09A2C",
"n 	c #C28015",
"o 	c #E4AF59",
"p 	c #E7AE56",
"q 	c #E6AD54",
"r 	c #E7B25E",
"s 	c #E9B565",
"t 	c #E9B86B",
"u 	c #EAB96E",
"v 	c #EAB96D",
"w 	c #E9B86A",
"x 	c #E8B564",
"y 	c #E6AC53",
"z 	c #E19C30",
"A 	c #DF9826",
"B 	c #D49430",
"C 	c #DCA144",
"D 	c #E7B15B",
"E 	c #E8B25E",
"F 	c #E9B769",
"G 	c #EBBB72",
"H 	c #ECBE79",
"I 	c #ECC07C",
"J 	c #EBBE78",
"K 	c #EABB70",
"L 	c #E9B667",
"M 	c #E6AB50",
"N 	c #E2A037",
"O 	c #E0992A",
"P 	c #DF9828",
"Q 	c #C8861C",
"R 	c #C7851C",
"S 	c #E8B361",
"T 	c #E7B05A",
"U 	c #EBBC73",
"V 	c #ECC17D",
"W 	c #EEC586",
"X 	c #EEC78A",
"Y 	c #EDC484",
"Z 	c #EABB71",
"` 	c #E9B564",
" .	c #E5A94A",
"..	c #E3A23D",
"+.	c #E09C2F",
"@.	c #DF9725",
"#.	c #DDA03E",
"$.	c #D99D3E",
"%.	c #E7AE55",
"&.	c #ECBF7A",
"*.	c #EEC587",
"=.	c #EFCA92",
"-.	c #F0CE99",
";.	c #F0CD98",
">.	c #EFC990",
",.	c #EDC485",
"'.	c #E3A441",
").	c #E19D32",
"!.	c #E5AA4C",
"~.	c #C68319",
"{.	c #E4AD56",
"].	c #E5A94B",
"^.	c #E8B462",
"/.	c #ECC17F",
"(.	c #EFC88D",
"_.	c #F1CE9B",
":.	c #F2D4A6",
"<.	c #F2D3A5",
"[.	c #E3A543",
"}.	c #DF9726",
"|.	c #E3A33F",
"1.	c #D2922E",
"2.	c #C48016",
"3.	c #E7B05B",
"4.	c #E4A645",
"5.	c #EDC27F",
"6.	c #EFC88E",
"7.	c #F1CF9C",
"8.	c #F3D5A9",
"9.	c #F2D4A7",
"0.	c #EEC78B",
"a.	c #ECC07D",
"b.	c #EABA6E",
"c.	c #E19E35",
"d.	c #DB9D3A",
"e.	c #C8861D",
"f.	c #E6AE56",
"g.	c #EEC689",
"h.	c #F0CC94",
"i.	c #F1CF9B",
"j.	c #EFCB93",
"k.	c #ECBF79",
"l.	c #EAB86C",
"m.	c #DEA141",
"n.	c #C37F12",
"o.	c #C98820",
"p.	c #E3A440",
"q.	c #E9B768",
"r.	c #EBBD75",
"s.	c #EDC280",
"t.	c #EFC98E",
"u.	c #EEC688",
"v.	c #ECC17E",
"w.	c #E9B666",
"x.	c #E7B059",
"y.	c #E09B2E",
"z.	c #E0A343",
"A.	c #C58319",
"B.	c #E5AC52",
"C.	c #E2A13B",
"D.	c #E6AD55",
"E.	c #ECC07B",
"F.	c #E9B76A",
"G.	c #E4A646",
"H.	c #E2A039",
"I.	c #E09A2B",
"J.	c #DC9F3D",
"K.	c #C27E13",
"L.	c #E19F35",
"M.	c #E6AE55",
"N.	c #E2A139",
"O.	c #D89935",
"P.	c #E2A13A",
"Q.	c #E2A038",
"R.	c #E8B463",
"S.	c #E6AD53",
"T.	c #E29F36",
"U.	c #E09A2A",
"V.	c #CA8923",
"W.	c #C17D11",
"X.	c #D08F29",
"Y.	c #E5AA4D",
"Z.	c #E3A84A",
"`.	c #E2A547",
" +	c #E19D31",
".+	c #E09B2D",
"++	c #E2A23B",
"@+	c #D1922C",
"#+	c #B87811",
"$+	c #B57610",
"%+	c #C98822",
"&+	c #E09929",
"*+	c #E19F36",
"=+	c #DF9827",
"-+	c #E1A444",
";+	c #A97520",
">+	c #D39431",
",+	c #BE801C",
"'+	c #815E26",
")+	c #214B88",
"!+	c #31568D",
"~+	c #587292",
"{+	c #B87C1C",
"]+	c #D49530",
"^+	c #E2A748",
"/+	c #C2841F",
"(+	c #897042",
"_+	c #1D4074",
":+	c #41699F",
"<+	c #5781B4",
"[+	c #38659D",
"}+	c #506C8C",
"|+	c #B07D28",
"1+	c #C98A25",
"2+	c #E3A84B",
"3+	c #D79834",
"4+	c #C07D15",
"5+	c #8A7956",
"6+	c #456892",
"7+	c #4A6D9A",
"8+	c #29518C",
"9+	c #204A87",
"0+	c #476FA5",
"a+	c #5782B8",
"b+	c #376BAD",
"c+	c #3364A2",
"d+	c #3C689E",
"e+	c #5E7D9D",
"f+	c #887856",
"g+	c #BF7D14",
"h+	c #CF902D",
"i+	c #DDA040",
"j+	c #E4A94A",
"k+	c #E4A94C",
"l+	c #D99B37",
"m+	c #C38521",
"n+	c #B67C1D",
"o+	c #6C7372",
"p+	c #577AA0",
"q+	c #2D578C",
"r+	c #456EA1",
"s+	c #5980B1",
"t+	c #2A548E",
"u+	c #486FA4",
"v+	c #5380B7",
"w+	c #376BAC",
"x+	c #366BAE",
"y+	c #366AAC",
"z+	c #3565A2",
"A+	c #5E84AD",
"B+	c #597BA1",
"C+	c #55718F",
"D+	c #84734F",
"E+	c #BD8122",
"F+	c #C17F16",
"G+	c #C48421",
"H+	c #C88A28",
"I+	c #C58724",
"J+	c #C2811B",
"K+	c #C17E14",
"L+	c #AD7E31",
"M+	c #766F5A",
"N+	c #507091",
"O+	c #57799D",
"P+	c #5278A3",
"Q+	c #2E5B93",
"R+	c #3363A1",
"S+	c #426FA8",
"T+	c #587EAF",
"U+	c #28528D",
"V+	c #3C649B",
"W+	c #5681B7",
"X+	c #366AAB",
"Y+	c #366BAD",
"Z+	c #376CAF",
"`+	c #376DB0",
" @	c #5480B1",
".@	c #5F85AD",
"+@	c #597CA2",
"@@	c #375D8B",
"#@	c #A0A4AA",
"$@	c #A8A39B",
"%@	c #A79983",
"&@	c #A8926F",
"*@	c #A69478",
"=@	c #A49A88",
"-@	c #A5A39F",
";@	c #5B718C",
">@	c #3C5F88",
",@	c #587A9F",
"'@	c #5E83AA",
")@	c #456FA2",
"!@	c #3365A3",
"~@	c #3263A1",
"{@	c #436FA7",
"]@	c #567DAE",
"^@	c #234C89",
"/@	c #2B538D",
"(@	c #5B83B6",
"_@	c #396CAC",
":@	c #386DB1",
"<@	c #386EB3",
"[@	c #4174B3",
"}@	c #678FBB",
"|@	c #527CA9",
"1@	c #2F5C96",
"2@	c #6C85A4",
"3@	c #BBBBBB",
"4@	c #B5B5B5",
"5@	c #B2B2B2",
"6@	c #B4B4B4",
"7@	c #B6B7B8",
"8@	c #305787",
"9@	c #2C5589",
"0@	c #5B81AB",
"a@	c #638BB7",
"b@	c #3769A7",
"c@	c #3466A5",
"d@	c #3364A1",
"e@	c #32629F",
"f@	c #4A74AA",
"g@	c #4A70A5",
"h@	c #5279AC",
"i@	c #4372AE",
"j@	c #3569AA",
"k@	c #386FB3",
"l@	c #3970B5",
"m@	c #5385BE",
"n@	c #4C7BB4",
"o@	c #3F6AA3",
"p@	c #CECECF",
"q@	c #CBCBCB",
"r@	c #C8C8C8",
"s@	c #CACACA",
"t@	c #A2AEBD",
"u@	c #2E5A91",
"v@	c #2F5D97",
"w@	c #5681B3",
"x@	c #4576B2",
"y@	c #3467A7",
"z@	c #32629E",
"A@	c #557CAD",
"B@	c #375F97",
"C@	c #325891",
"D@	c #5680B5",
"E@	c #3567A8",
"F@	c #3569A9",
"G@	c #376DB1",
"H@	c #386EB2",
"I@	c #386FB4",
"J@	c #3970B6",
"K@	c #4178BB",
"L@	c #366AAA",
"M@	c #B5C1D2",
"N@	c #DDDDDD",
"O@	c #DBDBDB",
"P@	c #DCDCDC",
"Q@	c #7F9ABB",
"R@	c #3364A3",
"S@	c #3D70AF",
"T@	c #3568A8",
"U@	c #31619D",
"V@	c #3A67A0",
"W@	c #557BAB",
"X@	c #214C87",
"Y@	c #4E74A8",
"Z@	c #4170AB",
"`@	c #3568A9",
" #	c #366AAD",
".#	c #85A5CE",
"+#	c #F1F1F1",
"@#	c #EFEFEF",
"##	c #F0F0F0",
"$#	c #F2F2F2",
"%#	c #5783BB",
"&#	c #3466A6",
"*#	c #3365A4",
"=#	c #31609B",
"-#	c #4F77A8",
";#	c #3A6196",
">#	c #254E8A",
",#	c #5A81B2",
"'#	c #3465A4",
")#	c #3669AB",
"!#	c #386EB1",
"~#	c #497AB8",
"{#	c #ECEDED",
"]#	c #EEEEEE",
"^#	c #DAE0E7",
"/#	c #305E98",
"(#	c #31629E",
"_#	c #31619C",
":#	c #305F9A",
"<#	c #3C679F",
"[#	c #4E74A5",
"}#	c #335A92",
"|#	c #517AAF",
"1#	c #3467A6",
"2#	c #3365A5",
"3#	c #376BAE",
"4#	c #376CB0",
"5#	c #BCC9D9",
"6#	c #E7E7E7",
"7#	c #A3B7D0",
"8#	c #3263A0",
"9#	c #305E99",
"0#	c #315F99",
"a#	c #597EAB",
"b#	c #224C87",
"c#	c #3B6298",
"d#	c #4974AB",
"e#	c #32639F",
"f#	c #2D5A92",
"g#	c #83A0C4",
"h#	c #E1E1E1",
"i#	c #7294BE",
"j#	c #31619E",
"k#	c #2C558B",
"l#	c #415E84",
"m#	c #2D548B",
"n#	c #41679B",
"o#	c #4570A7",
"p#	c #2D5991",
"q#	c #305E97",
"r#	c #3467A8",
"s#	c #3569AB",
"t#	c #5A82B5",
"u#	c #4F7AB0",
"v#	c #334C73",
"w#	c #686071",
"x#	c #474459",
"y#	c #203F68",
"z#	c #4E6A8E",
"A#	c #C2C2C3",
"B#	c #5F6A78",
"C#	c #1D447C",
"D#	c #3F659A",
"E#	c #4571A7",
"F#	c #2C568B",
"G#	c #396AA8",
"H#	c #D0D1D3",
"I#	c #CCCFD2",
"J#	c #3567A6",
"K#	c #364264",
"L#	c #C04943",
"M#	c #B55552",
"N#	c #C7706D",
"O#	c #B24844",
"P#	c #534C57",
"Q#	c #CCCCCC",
"R#	c #475465",
"S#	c #1D447B",
"T#	c #385E94",
"U#	c #4973A7",
"V#	c #2B5489",
"W#	c #2C588E",
"X#	c #31629F",
"Y#	c #3466A4",
"Z#	c #ADB8C5",
"`#	c #A9B5C4",
" $	c #2C5990",
".$	c #A54948",
"+$	c #D23932",
"@$	c #D08E8B",
"#$	c #DC9895",
"$$	c #B78786",
"%$	c #E5DDDD",
"&$	c #B3B1B1",
"*$	c #495565",
"=$	c #385F93",
"-$	c #2A528C",
";$	c #557BAA",
">$	c #2F5D96",
",$	c #295284",
"'$	c #2C578D",
")$	c #889EB8",
"!$	c #879DB8",
"~$	c #31609C",
"{$	c #495576",
"]$	c #D8322E",
"^$	c #E6534C",
"/$	c #D28784",
"($	c #D29593",
"_$	c #CBBDBD",
":$	c #B2AEAE",
"<$	c #B26B6A",
"[$	c #5E3034",
"}$	c #284875",
"|$	c #5A5E64",
"1$	c #C0C0C0",
"2$	c #204883",
"3$	c #5377A7",
"4$	c #39659C",
"5$	c #2C578B",
"6$	c #2A5387",
"7$	c #2E5A92",
"8$	c #6887AE",
"9$	c #6A88AE",
"0$	c #30609B",
"a$	c #784858",
"b$	c #DF2620",
"c$	c #F5ABA7",
"d$	c #E25754",
"e$	c #D8A09D",
"f$	c #BB8B88",
"g$	c #956A69",
"h$	c #DF9998",
"i$	c #D16865",
"j$	c #6E5959",
"k$	c #909090",
"l$	c #335A90",
"m$	c #5378A8",
"n$	c #2B5487",
"o$	c #4C74A4",
"p$	c #5076A5",
"q$	c #305F99",
"r$	c #2F5E97",
"s$	c #91343A",
"t$	c #EB5651",
"u$	c #FAD7D3",
"v$	c #F76C69",
"w$	c #DF8D8A",
"x$	c #DAA3A0",
"y$	c #CA928F",
"z$	c #C38887",
"A$	c #C0A1A1",
"B$	c #E1E0E0",
"C$	c #787777",
"D$	c #1F467F",
"E$	c #496D9E",
"F$	c #3B6190",
"G$	c #2B5488",
"H$	c #2F5E98",
"I$	c #34629B",
"J$	c #38649B",
"K$	c #2F5C95",
"L$	c #902C2D",
"M$	c #F17971",
"N$	c #F7756F",
"O$	c #F85D58",
"P$	c #F54744",
"Q$	c #DC9E9B",
"R$	c #D89F9C",
"S$	c #B38583",
"T$	c #A99494",
"U$	c #590D0A",
"V$	c #27508A",
"W$	c #5578A5",
"X$	c #426897",
"Y$	c #2E5B94",
"Z$	c #2E5C95",
"`$	c #2E5C94",
" %	c #8E3234",
".%	c #F2756A",
"+%	c #F11A15",
"@%	c #F51612",
"#%	c #F54D45",
"$%	c #EA3D39",
"%%	c #D49592",
"&%	c #D49895",
"*%	c #B08381",
"=%	c #AA7473",
"-%	c #AC3D39",
";%	c #244D88",
">%	c #476C9C",
",%	c #5378A5",
"'%	c #456C9E",
")%	c #386398",
"!%	c #345F96",
"~%	c #315D96",
"{%	c #2F5C94",
"]%	c #2F5D95",
"^%	c #2F5D94",
"/%	c #2F5B93",
"(%	c #305B93",
"_%	c #2F5B92",
":%	c #2F5A91",
"<%	c #743A43",
"[%	c #E63B33",
"}%	c #EB1510",
"|%	c #EE1410",
"1%	c #EA120E",
"2%	c #E21E16",
"3%	c #D93530",
"4%	c #CD8380",
"5%	c #CB8B88",
"6%	c #C58381",
"7%	c #BD6E6B",
"8%	c #290100",
"9%	c #1E457D",
"0%	c #2A528B",
"a%	c #3D6296",
"b%	c #4D71A1",
"c%	c #5276A5",
"d%	c #567AA6",
"e%	c #597DA8",
"f%	c #597DA9",
"g%	c #5A7DA9",
"h%	c #5A7CA9",
"i%	c #597CA9",
"j%	c #587CA8",
"k%	c #587BA8",
"l%	c #587BA7",
"m%	c #55485A",
"n%	c #DA3530",
"o%	c #E0140C",
"p%	c #DF120C",
"q%	c #D90F0A",
"r%	c #D20D08",
"s%	c #C50B06",
"t%	c #BF1E19",
"u%	c #C05652",
"v%	c #C3706D",
"w%	c #B54844",
"x%	c #200200",
"y%	c #193A6A",
"z%	c #1F4780",
"A%	c #204984",
"B%	c #204985",
"C%	c #204A86",
"D%	c #2A3F5E",
"E%	c #AC3C38",
"F%	c #C60E07",
"G%	c #C30C06",
"H%	c #BC0A05",
"I%	c #B50904",
"J%	c #AB0803",
"K%	c #A00B06",
"L%	c #9C0D09",
"M%	c #920D0A",
"N%	c #620C08",
"O%	c #5B5B5B",
"P%	c #1B1717",
"Q%	c #6C211E",
"R%	c #9D120D",
"S%	c #A10703",
"T%	c #9E0703",
"U%	c #960603",
"V%	c #8E0804",
"W%	c #850E0B",
"X%	c #470806",
"Y%	c #272121",
"Z%	c #525252",
"`%	c #303030",
" &	c #565656",
".&	c #646464",
"+&	c #484646",
"@&	c #4E3736",
"#&	c #542D2B",
"$&	c #522B29",
"%&	c #4A302E",
"&&	c #383636",
"                                                                                                ",
"                                            . + @ @ + @                                         ",
"                                      @ # $ % & * = - ; > .                                     ",
"                                    , ' ) ! ~ { ] ^ / ( _ : < @                                 ",
"                                + [ } | 1 2 1 1 3 4 5 6 7 8 9 0 #                               ",
"                                a b c d e f g g h i _ j k l m / - @                             ",
"                              n o p q r s t u v w x h y j 8 z A ] B @                           ",
"                            @ C D y E F G H I I J K L h M 5 N O P 9 Q                           ",
"                            R S 2 T L U V W X X Y I Z ` e  ...+.@.N #.@                         ",
"                          @ $.%.1 g v &.*.=.-.;.>.,.J w f 2 '.).@.@.!.~.                        ",
"                          @ {.].q ^.K /.(._.:.<.;.X I u | 1 [.7 }.@.|.1.@                       ",
"                          2.3.4.q ^.Z 5.6.7.8.9.-.0.a.b.| 1 [.7 }.@.c.d.+                       ",
"                          e.f.5 d | u I g.h.7.i.j.*.k.l.E _ '.l @.@.z m.n.                      ",
"                          o.1 p.3 D q.r.s.g.t.6.u.v.U w.x.9 k z @.@.y.z.@                       ",
"                          A.B.C.] D.S l.r.I s.5.E.U F.g d G.H.I.@.@.).J.n.                      ",
"                          K._ L.'.9 i S F b.Z Z u L g M. .k ).@.@.@.N.O.n.                      ",
"                          @ #.P.Q.[.!.M.h S R.R.| 3.S.].'.T.U.@.@.@.^ V.                        ",
"                          W.X.4.y.Q.'.] 3 d D.q d Y./ |.T.m @.@.@.m Z.W.                        ",
"                            # `. +.+c.++'.5 ^ ^ 5 p.P.l I.@.@.@.@.5 @+#+                        ",
"                            $+%+].&+P y.l T.Q.N *+)..+=+@.@.@.@.Q.-+W.                          ",
"                              ;+>+] P @.@.P &+&+=+@.@.@.@.@.@.7 Z.,+'+                          ",
"                          )+!+~+{+]+Y.c.@.@.@.@.@.@.@.@.@.}.C.^+/+(+_+                          ",
"                        )+:+<+[+}+|+1+2+5 l }.@.@.@.@.I.P.Y.3+4+5+6+7+8+9+                      ",
"                      )+0+a+b+c+d+e+f+g+h+i+3 j+4./ Y.k+l+m+n+o+p+q+r+s+t+)+                    ",
"                    )+u+v+w+x+y+z+A+B+C+D+E+F+G+H+I+J+K+L+M+N+O+P+Q+R+S+T+U+                    ",
"                  )+V+W+X+Y+Z+`+X+ @.@+@@@#@$@%@&@*@=@-@;@>@,@'@)@c+!@~@{@]@^@                  ",
"                  /@(@_@y+Y+Z+:@<@[@}@|@1@2@3@4@5@5@6@7@8@9@0@a@b@c@!@d@e@f@g@)+                ",
"                )+h@i@j@y+x+Z+:@k@l@m@n@!@o@p@q@r@r@s@t@u@v@w@x@y@c@!@d@e@z@A@B@9+              ",
"                C@D@E@F@X+Y+Z+G@H@I@J@K@k@L@M@N@O@O@P@Q@R@E@S@T@y@c@!@~@e@U@V@W@X@              ",
"              )+Y@Z@y@`@j@y+ #Z+:@H@I@l@l@l@.#+#@###$#%#Y+X+j@T@&#*#c+~@e@U@=#-#;#9+            ",
"              >#,#'#&#E@`@)#R@x+Z+`+!#H@<@<@~#{#]#]#^#Y+y+j@T@y@c@!@c+/#(#_#:#<#[#)+            ",
"              }#|#!@c@1#T@:#2#y+Y+3#Z+4#`+`+4#5#6#6#7#X+j@T@y@c@*#c+8#9#U@=#:#0#a#b#            ",
"              c#d#c+!@c@e#f#T@j@)#y+y+Y+Y+Y+Y+g#h#h#i#`@T@y@c@*#c+~@e@j#k#:#9#v@l#m#            ",
"              n#o#8#d@!@p#q#1#r#T@`@j@j@j@s#j@t#O@O@u#y@&#c@!@c+~@e@v#w#x#y#v@z#A#B#C#          ",
"              D#E#z@8#1@F#_#*#c@&#y@y@r#T@T@T@G#H#I#J#c@*#R@d@8#e@K#L#M#N#O#P#P@Q#R#S#          ",
"              T#U#_#j#V#W#X#c+R@!@*#Y#c@c@c@c@c@Z#`#!@c+d@8#e@(# $.$+$@$#$$$%$&$*$=$            ",
"              -$;$:#>$,$'$e@e@8#~@d@c+c+c+c+c+c+)$!$8#8#e@(#U@~${$]$^$/$($_$:$<$[$}$|$1$        ",
"              2$3$4$5$6$7$~$U@j#z@e@e@e@8#8#e@e@8$9$(#U@_#~$0$:#a$b$c$d$e$f$g$h$i$j$h#k$        ",
"                l$m$,$n$9#:#:#=#~$~$_#U@U@U@U@U@o$p$=#0$:#q$/#r$s$t$u$v$w$x$y$z$A$B$C$          ",
"                D$E$F$G$>$v@H$/#9#q$:#:#:#:#:#:#I$J$9#/#r$v@>$K$L$M$N$O$P$Q$R$S$O@T$U$          ",
"                  V$W$X$Y$Z$K$>$>$v@v@v@v@r$v@v@v@>$>$1@K$`$Q+Q+ %.%+%@%#%$%%%&%*%=%-%          ",
"                    ;%>%,%'%)%!%~%Y$`${%]%]%]%^%]%K${%{%/%(%_%:%<%[%}%|%1%2%3%4%5%6%7%8%        ",
"                      9%0%a%b%c%d%e%f%g%h%h%i%i%j%j%k%l%l%l%l%l%m%n%o%p%q%r%s%t%u%v%w%x%        ",
"                          y%z%A%B%9+C%C%C%C%C%C%C%C%C%C%C%C%9+C%D%E%F%G%H%I%J%K%L%M%N%          ",
"                                                                O%P%Q%R%S%T%U%V%W%X%Y%          ",
"                                                              Z%`% &.&+&@&#&$&%&&&              ",
"                                                                                                ",
"                                                                                                "};
