/* XPM */
static const char *xpmDisconnected48[]={
"48 48 256 2",
"Qt c None",
".n c #000000",
".g c #000500",
".m c #000b00",
".J c #001400",
"aK c #001c00",
".s c #002400",
"b3 c #002d00",
"#W c #003300",
"b0 c #004d00",
"bS c #005a00",
"bV c #006100",
".r c #006500",
"bZ c #006a00",
"#V c #006e00",
"bN c #007300",
"a7 c #007900",
"be c #007f00",
"bT c #008100",
"a8 c #008500",
"aY c #008900",
"bf c #008d00",
"a9 c #009200",
"aZ c #009400",
"bk c #009600",
"bG c #009900",
"b. c #00a000",
"a0 c #00a300",
"aM c #00a500",
"aL c #00aa00",
"bJ c #00ac00",
"aN c #00ae00",
"bU c #00b000",
"bA c #00b200",
"b# c #00b800",
"a1 c #00bb00",
"bh c #00bd00",
"aO c #00c200",
"bY c #00ce00",
"bB c #00d100",
"bt c #00d500",
"a2 c #00d600",
"ba c #00d700",
"bi c #00d800",
"aP c #00d900",
"#6 c #00e000",
"bO c #00e900",
"aC c #00ec00",
"bu c #00ee00",
"an c #00ef00",
"aE c #00f000",
"am c #00f500",
"aD c #00fa00",
"aQ c #00fc00",
"a3 c #00fd00",
".I c #013c01",
".B c #014501",
"aw c #015201",
"bg c #019d01",
"ap c #01c501",
"bH c #01d601",
"bj c #01d701",
"ay c #01d801",
"aR c #01d901",
"aF c #01db01",
"ao c #01dd01",
"b4 c #024202",
"aS c #02bd02",
"aG c #02bf02",
"#7 c #02cb02",
"aA c #02cc02",
"az c #02cf02",
"aB c #02d002",
"bn c #03b003",
"al c #03f203",
".2 c #044504",
"bl c #04b104",
"bm c #04be04",
".l c #055005",
"ax c #05e205",
"#5 c #05eb05",
".x c #064806",
"b2 c #064c06",
"#E c #065506",
"bC c #06ab06",
"bv c #06ae06",
"aT c #06b106",
"aH c #06b206",
"aq c #06b406",
"#8 c #06b806",
"#N c #07c007",
"#M c #07d307",
"bI c #08a608",
"bp c #08b208",
"#o c #0a0a0a",
"bw c #0bae0b",
"aU c #0bb10b",
"ar c #0bb20b",
"#9 c #0bb50b",
"#O c #0bb90b",
"ak c #0beb0b",
".y c #0c1c0c",
"ae c #0c2b0c",
"#n c #0d0d0d",
"bd c #0d240d",
"bo c #0db20d",
"#z c #0ec00e",
"#L c #0ee20e",
"#4 c #0ff10f",
"## c #101010",
"bD c #10ad10",
"bx c #10b010",
"as c #10b310",
"a. c #10b510",
"#A c #10bc10",
"#B c #11b911",
"by c #12b112",
"bq c #12b312",
"a# c #12b512",
"#P c #12b712",
"#y c #12ce12",
"#Q c #131a1c",
"bM c #135d13",
"#. c #161616",
"bs c #16b616",
"b9 c #18a118",
".Y c #191919",
"#m c #19c319",
"aj c #19e519",
"br c #20b920",
"#x c #20dd20",
"#l c #21ca21",
"#K c #22ee22",
".9 c #232323",
"#3 c #23f223",
".X c #292929",
"b7 c #29b029",
"ai c #29e229",
"bR c #2ba92b",
"bX c #2bae2b",
"bF c #2cff2c",
"#k c #2ed32e",
"a6 c #2fa42f",
"b1 c #2fad2f",
"av c #2fb42f",
"bc c #30b530",
".P c #313131",
"ad c #34af34",
".8 c #36d836",
"ah c #37e337",
"aJ c #38aa38",
".f c #397739",
"#U c #3cb43c",
"ag c #3ce53c",
"af c #3d3d3d",
"#2 c #3df33d",
"#w c #3eeb3e",
"#J c #42f842",
"#j c #43e043",
".W c #444444",
"bz c #44fb44",
".1 c #46ae46",
"#D c #46b346",
".A c #46bd46",
"bL c #4afb4a",
"b8 c #4cf64c",
".w c #4db94d",
".7 c #4edf4e",
".H c #4fb44f",
".O c #505050",
".k c #54b954",
"#d c #54ff54",
".q c #55be55",
"#1 c #58f258",
".F c #5b5b5b",
".b c #5cff5c",
"b6 c #5de45d",
"#i c #61ed61",
".V c #64ea64",
"#X c #656565",
"#r c #65fc65",
".6 c #69e869",
"#0 c #6af16a",
"#Y c #6cf26c",
"bE c #6dfc6d",
"bW c #6ee66e",
"#Z c #6ff06f",
"bb c #6ff56f",
"a5 c #70e870",
"au c #70ea70",
"aX c #71e971",
"ac c #71f371",
"b5 c #71fc71",
".N c #727272",
"aI c #74eb74",
"#C c #76fc76",
"#T c #77e877",
".E c #7a7a7a",
"#c c #7aff7a",
".e c #7bfc7b",
".U c #81ef81",
"#I c #81fd81",
"#h c #82f882",
".5 c #83f083",
"#v c #86ff86",
"#F c #888888",
"bQ c #88fc88",
"bK c #8bfc8b",
"#H c #8df98d",
".a c #8dff8d",
".M c #8ef48e",
"#q c #8efc8e",
"#a c #8ff78f",
"aW c #8ffc8f",
"#G c #90f790",
"ab c #90fc90",
".0 c #91ed91",
".z c #91ef91",
".D c #929292",
".Q c #92ee92",
"#S c #92fc92",
".G c #94f094",
".v c #94f694",
"#b c #94fc94",
".T c #96f496",
".j c #96fd96",
"a4 c #96ff96",
".4 c #97f797",
"at c #98fc98",
"bP c #98fd98",
"#s c #999999",
"#g c #99fd99",
"#u c #99ff99",
".p c #9aee9a",
"aV c #9bfd9b",
"aa c #9cfd9c",
"#R c #9dfd9d",
"#e c #9e9e9e",
".L c #9ff79f",
"#p c #9ffd9f",
".C c #a0a0a0",
"#t c #a0fca0",
".R c #a2a2a2",
".S c #a2f7a2",
".3 c #a2faa2",
".K c #a4a4a4",
"#f c #a4fda4",
".d c #a9fda9",
".u c #aafdaa",
".# c #acfdac",
".Z c #adffad",
".o c #aefdae",
".t c #b0fdb0",
".i c #b2fdb2",
".h c #b5fdb5",
".c c #b8fdb8",
"QtQtQtQtQtQtQtQtQtQtQtQtQtQtQtQtQtQtQtQtQtQtQtQtQtQtQtQtQtQtQtQtQtQtQtQtQtQtQtQtQtQtQtQtQtQtQtQt",
"QtQtQtQtQtQtQtQtQtQtQtQtQtQtQtQtQtQtQtQtQtQtQtQtQtQtQtQtQtQtQtQtQtQtQtQtQtQtQtQtQtQtQtQtQtQtQtQt",
"QtQtQtQtQtQtQtQtQtQtQtQtQtQtQtQtQtQtQtQtQtQtQtQtQtQtQtQtQtQtQtQtQtQtQtQtQtQtQtQtQtQtQtQtQtQtQtQt",
"QtQtQtQtQtQtQtQtQtQtQtQtQtQtQtQtQtQtQtQtQtQtQtQtQtQtQtQtQtQtQtQtQtQtQtQtQtQtQtQtQtQtQtQtQtQtQtQt",
"QtQtQtQtQtQtQtQtQtQtQtQtQtQtQtQtQtQtQtQtQtQtQtQtQtQtQtQtQtQtQtQtQtQtQtQtQtQtQtQtQtQtQtQtQtQtQtQt",
"QtQtQtQtQtQtQtQtQtQtQtQtQtQtQtQtQtQtQtQtQtQtQtQtQtQtQtQtQtQtQtQtQtQtQtQtQtQtQtQtQtQtQtQtQtQtQtQt",
"QtQtQtQtQtQtQtQtQtQtQtQtQtQtQtQtQtQtQtQtQtQtQtQtQtQtQtQt.#.a.bQtQtQtQtQtQtQtQtQtQtQtQtQtQtQtQtQt",
"QtQtQtQtQtQtQtQtQtQtQtQtQtQtQtQtQtQtQtQtQtQtQtQtQtQtQt.c.d.e.f.gQtQtQtQtQtQtQtQtQtQtQtQtQtQtQtQt",
"QtQtQtQtQtQtQtQtQtQtQtQtQtQtQtQtQtQtQtQtQtQtQtQtQtQt.h.i.j.k.l.m.nQtQtQtQtQtQtQtQtQtQtQtQtQtQtQt",
"QtQtQtQtQtQtQtQtQtQtQtQtQtQtQtQtQtQtQtQtQtQtQtQtQt.i.o.p.q.r.s.m.nQtQtQtQtQtQtQtQtQtQtQtQtQtQtQt",
"QtQtQtQtQtQtQtQtQtQtQtQtQtQtQtQtQtQtQtQtQtQtQtQt.t.u.v.w.x.y.m.nQtQtQtQtQtQtQtQtQtQtQtQtQtQtQtQt",
"QtQtQtQtQtQtQtQtQtQtQtQtQtQtQtQtQtQtQtQtQtQtQt.t.t.z.A.B.m.g.nQtQtQtQtQtQtQtQtQtQtQtQtQtQtQtQtQt",
"QtQtQtQtQtQtQtQtQtQtQtQtQtQt.C.D.E.FQtQtQtQt.t.u.G.H.I.J.m.nQtQtQtQtQtQtQtQtQtQtQtQtQtQtQtQtQtQt",
"QtQtQtQtQtQtQtQtQtQtQtQtQt.K.L.M.N.O.PQtQt.t.u.Q.A.x.m.g.nQtQtQtQtQtQtQtQtQtQtQtQtQtQtQtQtQtQtQt",
"QtQtQtQtQtQtQtQtQtQtQtQt.R.S.T.U.V.W.X.Y.u.Z.0.1.2.m.g.nQtQtQtQtQtQtQtQtQtQtQtQtQtQtQtQtQtQtQtQt",
"QtQtQtQtQtQtQtQtQtQtQt.C.3.4.5.6.7.8.9#.###a.A.I.y.g.nQtQtQtQtQtQtQtQtQtQt#b#c#dQtQtQtQtQtQtQtQt",
"QtQtQtQtQtQtQtQtQtQt#e#f#g#h#i#j#k#l#m###n#o.B.m.g.nQtQtQtQtQtQtQtQtQtQt#p#q#r.f.gQtQtQtQtQtQtQt",
"QtQtQtQtQtQtQtQtQt#s#t#u#v#r#w#x#y#z#A#B###n#o.m.nQtQtQtQtQtQtQtQtQtQt#p.j#C#D#E.J.nQtQtQtQtQtQt",
"QtQtQtQtQtQtQtQt#F#G#H#I#r#J#K#L#M#N#O#B#P###Q#oQtQtQtQtQtQtQtQtQtQt#R#S#T#U#V#W.m.nQtQtQtQtQtQt",
"QtQtQtQtQtQtQt#X#Y#Z#0#1#2#3#4#5#6#7#8#9a.a####n#oQtQtQtQtQtQtQtQtaaabacad.lae.m.nQtQtQtQtQtQtQt",
"QtQtQtQtQtQtQtaf#wagahaiajakalamanaoapaqarasa####n#oQtQtQtQtQtQtaaatauavaw.J.g.nQtQtQtQtQtQtQtQt",
"QtQtQtQtQtQtQt#naxayazaAaBaoaCamaDaEaFaGaHarasa####n#oQtQtQtQtaaabaIaJ.BaK.m.nQtQtQtQtQtQtQtQtQt",
"QtQtQtQtQtQtQtQt.naLaMaMaNaOaPaCaDaQaEaRaSaTaUasa####n#oQtQtaVaWaXav.l.J.g.nQtQtQtQtQtQtQtQtQtQt",
"QtQtQtQtQtQtQtQtQt.naYaYaZa0a1a2aCaQa3aEayaSaTaUasa####n#o.ja4a5a6.l.J.g.nQtQtQtQtQtQtQtQtQtQtQt",
"QtQtQtQtQtQtQtQtQtQt.na7a8a9b.b#baana3a3anayaSaTaUasa####n#obbbc.Bbd.g.nQtQtQtQtQtQtQtQtQtQtQtQt",
"QtQtQtQtQtQtQtQtQtQtQt.nbebfbgaLbhbiana3a3anbjaSaTaUasa####n#oawaK.g.nQtQtQtQtQtQtQtQtQtQtQtQtQt",
"QtQtQtQtQtQtQtQtQtQtQtQt.nbka0aNblbmayana3a3anbjaSaTaUasa####n#o.m.nQtQtQtQtQtQtQtQtQtQtQtQtQtQt",
"QtQtQtQtQtQtQtQtQtQtQtQtQt.nbnarbobpaSbaana3a3anbjaSaTaUasbq###o#oQtQtQtQtQtQtQtQtQtQtQtQtQtQtQt",
"QtQtQtQtQtQtQtQtQtQtQtQtQtQt.9brbsaUaNb#btbua3a3anbjaSbvbwbxby#n.g.nQtQtQtQtQtQtQtQtQtQtQtQtQtQt",
"QtQtQtQtQtQtQtQtQtQtQtQtQtQtbz.PbsaNa0a0bAbBaCaQa3anbjaSbCbwbDar.n.n.nQtQtQtQtQtQtQtQtQtQtQtQtQt",
"QtQtQtQtQtQtQtQtQtQtQtQtQtbE#dbF.nbkbfbfbGaNbBaCaDaQbubHaSbCbIaLbJ.n.n.nQtQtQtQtQtQtQtQtQtQtQtQt",
"QtQtQtQtQtQtQtQtQtQtQtQtbK#CbLbM.n.n#VbNa8aZaNbBaCaDaDbObBb#aMbGa9aY.n.nQtQtQtQtQtQtQtQtQtQtQtQt",
"QtQtQtQtQtQtQtQtQtQtQtbPbQ#rbR.x.m.n.nbS#VbTaZbUbBbOambubia1b.a8bNbVbS.nQtQtQtQtQtQtQtQtQtQtQtQt",
"QtQtQtQtQtQtQtQtQtQtaV#qbWbXbV.s.m.nQt.nbSbNa8bkbUbY#6#6bBaNbfbZb0.I#W.nQtQtQtQtQtQtQtQtQtQtQtQt",
"QtQtQtQtQtQtQtQtQtaVaWacb1b2ae.m.nQtQtQt.n.ra7a8aZaNaOapbAa9bZ.Bb3#W.nQtQtQtQtQtQtQtQtQtQtQtQtQt",
"QtQtQtQtQtQtQtQtaaatauavaw.J.g.nQtQtQtQtQt.n#Va7a8a9b.b.bfbZ.Bb3b3.nQtQtQtQtQtQtQtQtQtQtQtQtQtQt",
"QtQtQtQtQtQtQtaaabaIaJ.BaK.m.nQtQtQtQtQtQtQt.n#VbNa7bTa7bVb4b3b3.nQtQtQtQtQtQtQtQtQtQtQtQtQtQtQt",
"QtQtQtQtQtQtaVaWaXav.l.J.g.nQtQtQtQtQtQtQtQtQt.n#VbZ.raw.Ib3b3.nQtQtQtQtQtQtQtQtQtQtQtQtQtQtQtQt",
"QtQtQtQtQt.ja4a5a6.l.J.g.nQtQtQtQtQtQtQtQtQtQtQt.n.raw.Ib3#W.nQtQtQtQtQtQtQtQtQtQtQtQtQtQtQtQtQt",
"QtQtQtQt#qbQbbbc.Bbd.g.nQtQtQtQtQtQtQtQtQtQtQtQtQt.n.B#W#W.nQtQtQtQtQtQtQtQtQtQtQtQtQtQtQtQtQtQt",
"QtQtQtb5b5b6b7awaK.g.nQtQtQtQtQtQtQtQtQtQtQtQtQtQtQt.n.n.nQtQtQtQtQtQtQtQtQtQtQtQtQtQtQtQtQtQtQt",
"QtQtQtb8ahb9b4.J.m.nQtQtQtQtQtQtQtQtQtQtQtQtQtQtQtQtQtQtQtQtQtQtQtQtQtQtQtQtQtQtQtQtQtQtQtQtQtQt",
"QtQtQt#mbgawaK.g.nQtQtQtQtQtQtQtQtQtQtQtQtQtQtQtQtQtQtQtQtQtQtQtQtQtQtQtQtQtQtQtQtQtQtQtQtQtQtQt",
"QtQtQt.Ib3.J.g.nQtQtQtQtQtQtQtQtQtQtQtQtQtQtQtQtQtQtQtQtQtQtQtQtQtQtQtQtQtQtQtQtQtQtQtQtQtQtQtQt",
"QtQtQt.n.n.n.nQtQtQtQtQtQtQtQtQtQtQtQtQtQtQtQtQtQtQtQtQtQtQtQtQtQtQtQtQtQtQtQtQtQtQtQtQtQtQtQtQt",
"QtQtQtQtQtQtQtQtQtQtQtQtQtQtQtQtQtQtQtQtQtQtQtQtQtQtQtQtQtQtQtQtQtQtQtQtQtQtQtQtQtQtQtQtQtQtQtQt",
"QtQtQtQtQtQtQtQtQtQtQtQtQtQtQtQtQtQtQtQtQtQtQtQtQtQtQtQtQtQtQtQtQtQtQtQtQtQtQtQtQtQtQtQtQtQtQtQt",
"QtQtQtQtQtQtQtQtQtQtQtQtQtQtQtQtQtQtQtQtQtQtQtQtQtQtQtQtQtQtQtQtQtQtQtQtQtQtQtQtQtQtQtQtQtQtQtQt"};


