/* XPM */
static const char *xpmDrivers48[] = {
/* columns rows colors chars-per-pixel */
"48 48 226 2",
"   c black",
".  c #000004040C0C0000",
"X  c #0000050511110000",
"o  c #0101080815150000",
"O  c #03030D0D1C1C0000",
"+  c #0000070720200000",
"@  c #01010A0A24240000",
"#  c #00000C0C2B2B0000",
"$  c #00000C0C35350000",
"%  c #00000D0D3A3A0000",
"&  c #0505121226260000",
"*  c #0404111129290000",
"=  c #0505161639390000",
"-  c #060619193C3C0000",
";  c #00000E0E45450000",
":  c #010113134A4A0000",
">  c #0404191941410000",
",  c #05051B1B4B4B0000",
"<  c #0202191959590000",
"1  c #0000161664640000",
"2  c #03031B1B65650000",
"3  c #00001E1E72720000",
"4  c #00001A1A7B7B0000",
"5  c #0A0A232345450000",
"6  c #070724245A5A0000",
"7  c #080825255B5B0000",
"8  c #0E0E2C2C5D5D0000",
"9  c #121231315D5D0000",
"0  c #0707272767670000",
"q  c #0000212176760000",
"w  c #09092D2D7A7A0000",
"e  c #090933337D7D0000",
"r  c #1313353568680000",
"t  c #00001E1E86860000",
"y  c #00001D1D8A8A0000",
"u  c #00001F1F95950000",
"i  c #000024248B8B0000",
"p  c #03032B2B86860000",
"a  c #0000202095950000",
"s  c #000022229B9B0000",
"d  c #03032E2E9B9B0000",
"f  c #0C0C393987870000",
"g  c #1A1A3F3F92920000",
"h  c #00002323A3A30000",
"j  c #00002626ADAD0000",
"k  c #00002B2BADAD0000",
"l  c #00002626B3B30000",
"z  c #00002A2AB4B40000",
"x  c #00002C2CBABA0000",
"c  c #02023434A5A50000",
"v  c #00003434ADAD0000",
"b  c #01013B3BA9A90000",
"n  c #00003434B5B50000",
"m  c #01013434BDBD0000",
"M  c #05053A3AB7B70000",
"N  c #00003E3EBABA0000",
"B  c #00003636C1C10000",
"V  c #02023D3DC3C30000",
"C  c #171744448A8A0000",
"Z  c #1414424295950000",
"A  c #151543439C9C0000",
"S  c #1C1C444497970000",
"D  c #1C1C46469A9A0000",
"F  c #1A1A525299990000",
"G  c #08084343AAAA0000",
"H  c #00004646B6B60000",
"J  c #01014C4CBBBB0000",
"K  c #0B0B4242BABA0000",
"L  c #08084C4CB5B50000",
"P  c #00005656BEBE0000",
"I  c #02025959BFBF0000",
"U  c #09095151BBBB0000",
"Y  c #16164B4BA7A70000",
"T  c #17174C4CA8A80000",
"R  c #1F1F4C4CA1A10000",
"E  c #1A1A5454ACAC0000",
"W  c #14145555B2B20000",
"Q  c #14145959BBBB0000",
"!  c #1D1D5656B2B20000",
"~  c #212154549C9C0000",
"^  c #20204E4EA2A20000",
"/  c #21215252A7A70000",
"(  c #22225353A8A80000",
")  c #22225656B0B00000",
"_  c #25255B5BB2B20000",
"`  c #23235E5EBBBB0000",
"'  c #282864649E9E0000",
"]  c #28286161ACAC0000",
"[  c #27276262B9B90000",
"{  c #26266B6BB8B80000",
"}  c #28286363BABA0000",
"|  c #36367B7BBEBE0000",
" . c #07074545C5C50000",
".. c #04044B4BC3C30000",
"X. c #03034B4BCCCC0000",
"o. c #02024D4DD1D10000",
"O. c #02025353C1C10000",
"+. c #03035A5AC2C20000",
"@. c #01015C5CC8C80000",
"#. c #08085C5CC3C30000",
"$. c #09095555D3D30000",
"%. c #0D0D5B5BDADA0000",
"&. c #16165B5BCCCC0000",
"*. c #09096363C7C70000",
"=. c #09096464CCCC0000",
"-. c #08086666DBDB0000",
";. c #0A0A6C6CD4D40000",
":. c #0D0D7575DFDF0000",
">. c #17176565C6C60000",
",. c #14146A6ACACA0000",
"<. c #1B1B6C6CC9C90000",
"1. c #17176969D5D50000",
"2. c #1E1E7070C9C90000",
"3. c #17177575D7D70000",
"4. c #16166A6AE1E10000",
"5. c #16167777E3E30000",
"6. c #17177878E4E40000",
"7. c #29296969C6C60000",
"8. c #25256B6BDBDB0000",
"9. c #27277676CBCB0000",
"0. c #2C2C7575CCCC0000",
"q. c #21217474D2D20000",
"w. c #27277878D5D50000",
"e. c #29297979D4D40000",
"r. c #37377979CBCB0000",
"t. c #33337B7BD4D40000",
"y. c #32327F7FDDDD0000",
"u. c #25257A7AE6E60000",
"i. c #36367F7FE3E30000",
"p. c #47477575BABA0000",
"a. c #41417878C1C10000",
"s. c #25258181DDDD0000",
"d. c #28288181DADA0000",
"f. c #35358181CFCF0000",
"g. c #37378383D0D00000",
"h. c #24248383E2E20000",
"j. c #26268888E8E80000",
"k. c #2C2C8383EBEB0000",
"l. c #2A2A8C8CECEC0000",
"z. c #2C2C8D8DF0F00000",
"x. c #2E2E9090E9E90000",
"c. c #23239999FDFD0000",
"v. c #2C2C9E9EFDFD0000",
"b. c #37378585E2E20000",
"n. c #32328B8BE4E40000",
"m. c #34348B8BEDED0000",
"M. c #39398B8BE7E70000",
"N. c #3A3A9393E6E60000",
"B. c #35359F9FFAFA0000",
"V. c #38389999F5F50000",
"C. c #2F2FA0A0FEFE0000",
"Z. c #3333A2A2FEFE0000",
"A. c #3D3DA0A0F7F70000",
"S. c #3B3BA5A5FDFD0000",
"D. c #3F3FA8A8FDFD0000",
"F. c #45458B8BCDCD0000",
"G. c #45458989D5D50000",
"H. c #4C4C8C8CDBDB0000",
"J. c #4B4B9191D6D60000",
"K. c #4A4A9595DBDB0000",
"L. c #57578E8ED5D50000",
"P. c #52529494D7D70000",
"I. c #56569696D9D90000",
"U. c #5B5B9A9ADBDB0000",
"Y. c #47479797E8E80000",
"T. c #45459C9CEDED0000",
"R. c #48489898E9E90000",
"E. c #43439A9AF1F10000",
"W. c #41419D9DFAFA0000",
"Q. c #4E4EA1A1E9E90000",
"!. c #4343A1A1FDFD0000",
"~. c #4444AAAAFEFE0000",
"^. c #4C4CA6A6F4F40000",
"/. c #4B4BACACFCFC0000",
"(. c #4E4EB0B0FEFE0000",
"). c #5959A6A6E9E90000",
"_. c #5353AAAAF6F60000",
"`. c #5B5BAFAFF9F90000",
"'. c #5454B2B2FDFD0000",
"]. c #5D5DB5B5FCFC0000",
"[. c #5F5FB8B8FEFE0000",
"{. c #6565A1A1DCDC0000",
"}. c #6B6BA5A5DEDE0000",
"|. c #7272AAAADFDF0000",
" X c #6767A5A5E3E30000",
".X c #6161ACACF4F40000",
"XX c #6969B0B0EEEE0000",
"oX c #6565B3B3F6F60000",
"OX c #6464B6B6FAFA0000",
"+X c #6464BABAFDFD0000",
"@X c #6A6AB6B6F6F60000",
"#X c #6C6CBDBDFDFD0000",
"$X c #7676ACACE1E10000",
"%X c #7777B4B4EAEA0000",
"&X c #7474BEBEFBFB0000",
"*X c #7878BFBFFCFC0000",
"=X c #6F6FC0C0FEFE0000",
"-X c #7474C2C2FEFE0000",
";X c #7C7CC5C5FEFE0000",
":X c #7F7FC8C8FEFE0000",
">X c #8080AEAEE7E70000",
",X c #8585B7B7E6E60000",
"<X c #8686B8B8E7E70000",
"1X c #8989BFBFEEEE0000",
"2X c #8A8AC0C0EFEF0000",
"3X c #8282C6C6FCFC0000",
"4X c #8484C9C9FEFE0000",
"5X c #8B8BCCCCFEFE0000",
"6X c #9292C3C3EEEE0000",
"7X c #9292CFCFFDFD0000",
"8X c #9595D1D1FEFE0000",
"9X c #9C9CD4D4FEFE0000",
"0X c #A4A4CDCDF1F10000",
"qX c #A6A6D3D3F7F70000",
"wX c #A2A2D6D6FDFD0000",
"eX c #A6A6D8D8FEFE0000",
"rX c #ABABDADAFEFE0000",
"tX c #B3B3D8D8F6F60000",
"yX c #B3B3DEDEFDFD0000",
"uX c #B6B6E0E0FEFE0000",
"iX c #BBBBE1E1FEFE0000",
"pX c #C3C3E4E4FDFD0000",
"aX c #C8C8E7E7FEFE0000",
"sX c #CBCBE8E8FEFE0000",
"dX c #D2D2EBEBFDFD0000",
"fX c None",
/* pixels */
"fXfXfXfXfXfXfXfXfXfXfXm o.%.4.4. .4 fXfXfXl B B fXfXfXfXfXfXfXfXfXfXfXfXfXfXfXfXfXfXfXfXfXfXfXfX",
"fXfXfXfXfXfXfXfXfXfXu N 6.*XwXeXR.M 2 fXfXx 8.k.%.V z u fXfXfXfXfXfXfXfXfXfXfXfXfXfXfXfXfXfXfXfX",
"fXfXfXfXfXl l fXfXfXs N =.].iXiXwXi. . .B V ).9X*XE.%.a   fXfXfXfXfXfXfXfXfXfXfXfXfXfXfXfXfXfXfX",
"fXfXfXfXfXx m z y fXh N O.6.8XyXyX8XoXE.k.u.4XwXwX8Xb.3   fXfXfXfXfXfXfXfXfXfXfXfXfXfXfXfXfXfXfX",
"fXfXfXfXz o.u.8.B j j ..=.j.4XyXrXrXeXwX9X7X9X9X8X8XR.v t ; fXfXfXfXfXfXfXfXfXfXfXfXfXfXfXfXfXfX",
"fXfXfXl  .m.wXwX.X8.%.m.#X9XrXeXeXwX9X8X8X7X7X7X8X7X;Xm.$.m o.%.1.4. .4 fXfXfXl B B fXfXfXfXfXfX",
"fXfXu m -.*XyXyXyX8X3XwXeXwXwXwX4XoXT.M.b.n.N._.OX3X4X;Xu N 5.&XwXrXY.M 2 fXfXx 8.k.%.V z u fXfX",
"fXfXu n @.j.;XrXrXeXeXwXwXwX5X_.w.W R g Z Z D l l w.E.#Xs N =.].yXyXwXi. . .B V ).9X*XE.%.a   fX",
"fXfXa M P +.:.`.9XwXwX9XwX3Xn.W R g g g S S S z m z y 3.h N O.6.7XyXyX7XoXT.k.u.4XwXwX8Xb.3   fX",
"fXfXs N P P P :.;X9X9X8X4Xn.! D ^ ^ ^ ^ ^ ^ z X.u.8.B j j ..=.j.3XyXrXrXwXwX9X7X9X9X8X8XR.v t ; ",
"fXfXh N P P P :.4X8X8X7X^.>.( ( ( ( ( ( ( l  .m.wXwX).8.%.m.#X9XrXwXwX9X9X7X7X7X7X7X7X7X;Xm.$.l ",
"fXfXy v J P +.l.5X7X7X;Xh._ _ ) ( T T T u m -.&XyXyXyX7X3XwXwXwXwXwX4XoXT.b.b.n.N._.OX3X4X;X^.4.",
"fXl 1 1 c J @.!.7X5X5XOXq.` T f 2 : ; : u n +.j.;XrXrXwXwXwXwXwX5X_.w.W Y g g Z D T Q w.E.#X;XOX",
"fXB o...K X.6.].5X5X5X_.7.Z , .         u M P I :.`.9XqXwX9XwX3Xn.W R g g g S S S S D D E 3.V.#X",
"fXX.V.`.OX#X#X4X5X5X5X^.T #         fXfXs M P P P :.;X9X9X7X3Xn.! D R R R R R R ^ ^ ^ ^ ^ ^ ) h.",
"k O.A.4X4X5X4X5X5X4X4X_.C     fXfXfXfXfXs M P J P :.3X7X7X5X^.&.( ( ( ( ( E ( ( ( ( ^ ( ( ( ( ) ",
"n P V.:X4X4X4X4X4X4X4X].W . fXfXfXfXfXfXy v J P I l.5X7X7X;Xs.) _ ) ) T T T ( ( ) ) ) _ _ _ _ _ ",
"n P l.;X3X:X4X4X4X4X4X=Xd.5 fXfXfXfXfXl 1 1 c J @.!.7X5X5XoX3.` T f 2 : ; : 2 e A ) ` [ } ` } } ",
"v P 6.~.'.OX#X-X:X:X:X;XQ.F   fXfXfXfXB o...K X.6.].5X5X5X_.7.Z , .             # 0 A ` 7.7.{ 7.",
"v P *.*.;.;.3.j.=X:X:X:XOXd.5 fXfXfXfXX.V.].OX#X#X4X5X5X5X^.T #         v.v.        @ w ( 0.0.0.",
"v J P P P P P *.^.;X:X:X;X^.{ . fXfXk O.A.4X4X5X4X5X5X4X4X_.C     !.!.W.Z.C.v.c.=.    . 6 ! 0.t.",
"v J P P P P P P h.+X;X:X:X=XQ.' O fXn P V.:X4X4X4X4X4X4X4X].W . W.!.!.!.S.S.Z.v.=.p @     7 ` y.",
"k J P P I P P I *.^.;X;X:X;X=XK.' fXn P l.;X3X:X4X4X4X4X4X=Xe.5 V.W.W.~.D.S.S.Z.Q $     fX  8 7.",
"i c b G H H P I I d.=X;X:X:X:X=XQ.| v P 6.~.'.OX#X-X:X:X:X;XQ.F   W.!.~.~.D.S.S.1.p < fXfXfX. C ",
"X @ # % : q J P I 3.].:X:X:X4X4X-X).v P *.*.;.;.3.j.=X:X:X:XOXd.5 A.~././.~.~.D.Z.u. .c : fX  - ",
"fX        # b P ,.^.;X;X:X4X4X4X5X:Xv J P P P P I *.^.;X:X:X;X^.{ . '.'.'.(./.~.~.S.k.&.c # fX  ",
"fXfXfXfXfX  d &.^.-X;X;X:X:X4X4X5X5Xv J P P P P P P s.+X;X:X;X=XQ.' O ].'.'.(./.~.~.S.z.b o fXfX",
"fXfXfXfXfXB &.T.-X;X;X;X4X4X4X4X:X-Xk J P P I P P I *.^.;X;X;X;X=XK.' [.[.].'././.~.~.z.f   fXfX",
"fXfXfXfXfX .=._.-X;X;X;X;X;X;X-X-X-Xi c b G H H P I I d.=X;X:X;X;X=XQ.|   [._.d.x.~.~.k.w   fXfX",
"fXfXfXfXp  .P 3.].=X#X=X=X-XOXoX-X;XX @ # % : q J P I 3.].:X:X:X3X4X-X).J.' d.I #.1.x.w.0   fXfX",
"fXfXfXfXK  .P P 2._.[.=X+XQ.q.<.R.-X4X        # b P ,.^.;X;X:X4X3X4X5X;X@X).F.I P P +.U >   fXfX",
"fXfXfXfX ...P P P d.].+XN.*.P P I e.XX5X8X8X8X  d &.^.-X;X;X:X:X4X4X5X5X;X#XoX.X).F.H 0 .   fXfX",
"fXfXfXfXK O.I P P I w.w.+.P P P I I <.K.8X9X9XB &.T.-X;X;X;X4X4X4X4X;X-X-X-X-X=X&X@XXX@XoX.XOXOX",
"fXfXfXfX, G O.I P P P P O.P I +.I I ,.2.%XeXeX .=._.-X;X;X;X;X;X;X-X-X-X-X;X;X;X3X3X;X;X;X;X;X;X",
"fXfXfXfX  , G I P P P O.L G #.*.>.,.<.9.2XrXp  .P 3.].#X=X=X#X-XoXoX-X;X:X3X3X5X4X5X5X5X5X3X4X3X",
"fXfXfXfXfX  7 L O.P I g - # f Q >.<.9.9.2XuXK  .P P 2._.].=X+XR.9.<.Y.-X3X5X5X5X5X8X7X7X8X8X5X5X",
"fXfXfXfXfXfX. 0 U U e @     X 7 T <.9.f.<XiX ...P P P d.].OXN.*.P P I e.XX5X8X8X8X9X8X8X8X8X8X8X",
"fXfXfXfXfXfXfX  0 7 .     fX    * Z e.G.6XpXK O.I P P I e.w.+.P P P I I <.K.7X9X9XwX9X9XwX9X9X8X",
"fXfXfXfXfXfXfX          fXfXfXfX  T g.J.<XtX, G O.I P P P P O.P I I I I ,.2.%XeXwXrXrXrXeXeXwX9X",
"fXfXfXfXfXfXfXfXfX  fXfXfXfXfXfXfX&.G.P.U.}.  , G I P P P P L G #.*.>.,.<.9.2XrXuXuXuXuXrX%X}.).",
"fXfXfXfXfXfXfXfXfXfXfXfXfXfXfXfXfX>.G.U.{.}.|.  6 L P P P g - # f Q >.<.9.9.1XyXuXuXuXiXqXJ.f.f.",
"fXfXfXfXfXfXfXfXfXfXfXfXfXfXfXfXfX7.H. X$X$X|.>X. 0 U U e @     X 7 T <.9.r.<XiXpXpXpXpX0XJ.F.F.",
"fXfXfXfXfXfXfXfXfXfXfXfXfXfXfXfXfX7.K.}.$X>X<X<Xa.  0 7 .     }     * Z e.G.6XpXaXsXsXaX0XI.J.J.",
"fXfXfXfXfXfXfXfXfXfXfXfXfXfXfXfXfXZ ~ ] a.L.}.L.r             r r O   T f.J.<XtXaXdXdXdX,Xr.r.G.",
"fXfXfXfXfXfXfXfXfXfXfXfXfXfXfXfXfX    . & 5 r 9 .   fX  fXfXfX        &.G.I.U.}.,X<X6X0Xp.- - ~ ",
"fXfXfXfXfXfXfXfXfXfXfXfXfXfXfXfXfXfXfX            fXfXfXfXfXfXfXfXfXfX>.G.U.{.}.|.|.|.U.C     8 ",
"fXfXfXfXfXfXfXfXfXfXfXfXfXfXfXfXfXfXfXfXfXfXfXfXfXfXfXfXfXfXfXfXfXfXfX7.H. X$X$X|.$X|.( O   fXo ",
"fXfXfXfXfXfXfXfXfXfXfXfXfXfXfXfXfXfXfXfXfXfXfXfXfXfXfXfXfXfXfXfXfXfXfX7.K.}.$X>X<X<Xa.-     fX  "
};
