/* XPM */
static const char *xpmDriver48[] = {
/* columns rows colors chars-per-pixel */
"48 48 254 2",
"   c none",
".  c #00040C00",
"X  c #00051100",
"o  c #030D1C00",
"O  c #01081500",
"+  c #010A2400",
"@  c #000C2B00",
"#  c #00072000",
"$  c #000C3500",
"%  c #000D3A00",
"&  c #04112900",
"*  c #05122600",
"=  c #06193C00",
"-  c #05163900",
";  c #000E4500",
":  c #01134A00",
">  c #051B4B00",
",  c #081E4200",
"<  c #04194100",
"1  c #00125300",
"2  c #02195900",
"3  c #00166400",
"4  c #031B6500",
"5  c #001E7200",
"6  c #001A7B00",
"7  c #0A234500",
"8  c #06225B00",
"9  c #08255B00",
"0  c #0E2C5D00",
"q  c #12315D00",
"w  c #07276700",
"e  c #00217600",
"r  c #092D7A00",
"t  c #09337D00",
"y  c #13356800",
"u  c #133C7D00",
"i  c #001D8A00",
"p  c #001E8600",
"a  c #001F9500",
"s  c #00218600",
"d  c #00248B00",
"f  c #032B8600",
"g  c #00209500",
"h  c #00229B00",
"j  c #032E9B00",
"k  c #0C398700",
"l  c #00309D00",
"z  c #1A3F9200",
"x  c #0023A300",
"c  c #0026AD00",
"v  c #002BAD00",
"b  c #0026B300",
"n  c #002AB400",
"m  c #002CBA00",
"M  c #0234A500",
"N  c #0034AD00",
"B  c #013BA900",
"V  c #0034B500",
"C  c #0134BD00",
"Z  c #003EBA00",
"A  c #053AB700",
"S  c #0036C100",
"D  c #023DC300",
"F  c #0A409D00",
"G  c #17448A00",
"H  c #14429500",
"J  c #1C449700",
"K  c #1C469A00",
"L  c #1D4C9D00",
"P  c #15439C00",
"I  c #1A529900",
"U  c #0843AA00",
"Y  c #0046B600",
"T  c #0342BB00",
"R  c #014CBB00",
"E  c #0B42BA00",
"W  c #084CB500",
"Q  c #0056BE00",
"!  c #0259BF00",
"~  c #0951BB00",
"^  c #1F4BA100",
"/  c #174CA800",
"(  c #1A54AC00",
")  c #1455B200",
"_  c #1D56B200",
"`  c #1459BB00",
"'  c #1C62BF00",
"]  c #21549C00",
"[  c #204EA200",
"{  c #2253A800",
"}  c #2556A900",
"|  c #255BB200",
" . c #235EBB00",
".. c #2256B000",
"X. c #28649E00",
"o. c #2861AC00",
"O. c #2563BC00",
"+. c #2863BA00",
"@. c #266BB800",
"#. c #367BBE00",
"$. c #044BC300",
"%. c #034BCC00",
"&. c #0745C500",
"*. c #024DD100",
"=. c #0253C100",
"-. c #035AC100",
";. c #015CC800",
":. c #085CC300",
">. c #0A56CC00",
",. c #0D5BDA00",
"<. c #0955D300",
"1. c #165BCC00",
"2. c #005FE400",
"3. c #0964CC00",
"4. c #0963C700",
"5. c #0A6CD400",
"6. c #0866DB00",
"7. c #0D75DF00",
"8. c #146ACA00",
"9. c #1B6CC900",
"0. c #1765C600",
"q. c #1769D500",
"w. c #1E70C900",
"e. c #1775D700",
"r. c #036AE800",
"t. c #0B76E900",
"y. c #0675F100",
"u. c #166AE100",
"i. c #1778E400",
"p. c #2969C600",
"a. c #256BDB00",
"s. c #2F72CC00",
"d. c #2877CC00",
"f. c #2174D200",
"g. c #2B7BD200",
"h. c #2878D500",
"j. c #3779CB00",
"k. c #327FDD00",
"l. c #337BD400",
"z. c #257AE600",
"x. c #367FE300",
"c. c #4775BA00",
"v. c #4178C100",
"b. c #0887FC00",
"n. c #1D80E500",
"m. c #128EFC00",
"M. c #1687F500",
"N. c #1692FD00",
"B. c #1B95FD00",
"V. c #2682DE00",
"C. c #2881DA00",
"Z. c #3581CF00",
"A. c #3783D000",
"S. c #3C85D300",
"D. c #3E88D400",
"F. c #3683DD00",
"G. c #2382E000",
"H. c #2C83EB00",
"J. c #2A8CEC00",
"K. c #2688E800",
"L. c #2C8DF000",
"P. c #2E90E900",
"I. c #2399FD00",
"U. c #2C9EFD00",
"Y. c #2994F500",
"T. c #328BE400",
"R. c #348BED00",
"E. c #398BE700",
"W. c #3785E200",
"Q. c #3A93E600",
"!. c #359FFA00",
"~. c #3D94F200",
"^. c #3899F500",
"/. c #2FA0FE00",
"(. c #33A2FE00",
"). c #3DA0F700",
"_. c #3BA5FD00",
"`. c #3FA8FD00",
"'. c #458BCD00",
"]. c #438BD400",
"[. c #4C8CDB00",
"{. c #4688D600",
"}. c #4B91D600",
"|. c #4A95DB00",
" X c #578ED500",
".X c #5294D700",
"XX c #5696D900",
"oX c #5B9ADB00",
"OX c #459CED00",
"+X c #4898E900",
"@X c #419DFA00",
"#X c #439AF100",
"$X c #579FE800",
"%X c #4EA1E900",
"&X c #43A1FD00",
"*X c #44AAFE00",
"=X c #4CA6F400",
"-X c #4BACFC00",
";X c #49A4F500",
":X c #4EB0FE00",
">X c #59A6E900",
",X c #53ACF700",
"<X c #5BAFF900",
"1X c #54AAF600",
"2X c #54B2FD00",
"3X c #5DB5FC00",
"4X c #5FB8FE00",
"5X c #65A1DC00",
"6X c #6BA5DE00",
"7X c #72AADF00",
"8X c #67A5E300",
"9X c #61AFF400",
"0X c #62AAF400",
"qX c #69B0EE00",
"wX c #65B3F600",
"eX c #64B6FA00",
"rX c #64BAFD00",
"tX c #6BBCFD00",
"yX c #6BB7F700",
"uX c #76ACE100",
"iX c #75ABE200",
"pX c #77B4EA00",
"aX c #72BEFB00",
"sX c #78BFFC00",
"dX c #6FC0FE00",
"fX c #74C2FE00",
"gX c #7CC5FE00",
"hX c #7FC8FE00",
"jX c #80AEE700",
"kX c #86B8E700",
"lX c #8AC0EF00",
"zX c #82C6FC00",
"xX c #84C9FE00",
"cX c #8BCCFE00",
"vX c #83C1F400",
"bX c #92C3EE00",
"nX c #92CFFD00",
"mX c #95D1FE00",
"MX c #9CD4FE00",
"NX c #A0C8ED00",
"BX c #A4CDF100",
"VX c #A2D6FE00",
"CX c #A6D8FE00",
"ZX c #ABDAFE00",
"AX c #A6D3F700",
"SX c #B3DEFE00",
"DX c #B3D8F600",
"FX c #B6E0FE00",
"GX c #BBE1FE00",
"HX c #C3E4FD00",
"JX c #CBE8FE00",
"KX c #C8E7FE00",
"LX c #D2EBFD00",
"PX c None",
/* pixels */
"PXPXPXPXPXPXPXPXPXPXPXC *.,.u.u.&.6 PXPXPXb S S PXPXPXPXPXPXPXPXPXPXPXPXPXPXPXPXPXPXPXPXPXPXPXPX",
"PXPXPXPXPXPXPXPXPXPXa Z i.sXVXCX+XA 4 PXPXm a.H.,.D n a PXPXPXPXPXPXPXPXPXPXPXPXPXPXPXPXPXPXPXPX",
"PXPXPXPXPXb b PXPXPXh Z 3.3XGXGXVXx.&.&.S D >XMXsX#X,.g   PXPXPXPXPXPXPXPXPXPXPXPXPXPXPXPXPXPXPX",
"PXPXPXPXPXm C n i PXx Z =.i.mXSXSXmXwX#XH.z.xXVXVXmXW.5   PXPXPXPXPXPXPXPXPXPXPXPXPXPXPXPXPXPXPX",
"PXPXPXPXn *.z.a.S c c $.3.K.xXSXZXZXCXVXMXnXMXMXmXmX+XN p ; PXPXPXPXPXPXPXPXPXPXPXPXPXPXPXPXPXPX",
"PXPXPXb &.R.VXVX0Xa.,.R.tXMXZXCXCXVXMXmXmXnXnXnXmXnXgXR.<.n i x m m a PXPXPXPXPXPXPXPXPXPXPXPXPX",
"PXPXa C 6.sXSXSXSXmXzXVXCXVXVXVXxXwXOXE.W.T.Q.1XeXzXxXgX;Xu.Z S <.,.V 6 PXPXPXPXPXPXPXPXPXPXPXPX",
"PXPXa V ;.K.gXZXZXCXCXVXVXVXcX1Xh.) ^ z H H K / ` h.#XtXgXeXH.H.,X2Xu.V 6 PXPXPXPXPXPXPXPXPXPXPX",
"PXPXg A Q -.7.<XMXVXVXMXVXzXT.) ^ z z z J J J J K K ( e.^.tXfXdXdXtXN.r.V 2 PXPXPXPXPXPXPXPXPXPX",
"PXPXh Z Q Q Q 7.gXMXMXmXxXT._ K [ [ [ [ [ [ [ [ ^ ^ ^ ^ _ V.2XdXdX2Xb.y.l +   PXPXPXPXPXPXPXPXPX",
"PXPXx Z Q Q Q 7.xXmXmXnX=X0.{ { { { { { { { { { { { { { { _ e.;XtX_.b.R %     PXPXPXPXPXPXPXPXPX",
"PXPXi N R Q ! J.cXnXnXgXG.| | ..../ / / { { ....| | | | | |  .w.).B.b.<.6 X PXPXPXPXPXPXPXPXPXPX",
"PXb 3 3 M R ;.&XnXcXcXeXf. ./ k 4 : ; : 4 t P .. .+.+.+.+.+.+.+.h.m.m.b.%.p   PXPXPXPXPXPXPXPXPX",
"PXS *.$.E %.i.3XcXcXcX,Xp.H > .             @ w P  .p.p.@.p.p.p.p.i.m.m.y.T 3 PXPXPXPXPXPXPXPXPX",
"PX%.^.<XeXtXtXxXcXcXcX=X/ @         PXPX        + r ..s.s.s.j.s.s.s.M.N.N.t.&.D C c 1 PXPXPXPXPX",
"v =.).xXxXcXxXcXcXxXxX1XG     PXPXPXPXPXPXPXPX    . 9 _ s.l.l.l.l.l.T.B.N.N.M.t.r.$.4 PXPXPXPXPX",
"V Q ^.hXxXxXxXxXxXxXxX3X) . PXPXPXPXPXPXPXPXPXPXPX    9  .k.F.F.F.F.W.Y.B.B.N.N.m.r.s   PXPXPXPX",
"V Q J.gXzXhXxXxXxXxXxXdXC.7 PXPXPXPXPXPXPXPXPXPXPXPXPX  0 p.E.E.E.E.E.L.I.I.B.B.B.M.T ; PXPXPXPX",
"N Q i.*X2XeXtXfXhXhXhXgX%XI   PXPXPXPXPXPXPXPXPXPXPXPXPX. G x.~.~.~.~.~.U.I.I.I.B.N.6.s   PXPXPX",
"N Q 4.4.5.5.e.K.dXhXhXhXeXC.7 PXPXPXPXPXPXPXPXPXPXPXPXPX  = O.~.@X@X@X!.U.U.I.I.7.5.$.5   PXPXPX",
"N R Q Q Q Q Q 4.=XgXhXhXgX=X@.. PXPXPXPXPXPXPXPXPXPXPXPXPX  u E.@X&X&X@X(./.U.I.3.R e X   PXPXPX",
"N R Q Q Q Q Q Q G.rXgXhXhXdX%XX.o PXPXPXPXPXPXPXPXPXPXPXPXPX& h.@X&X&X&X_._.(.U.3.f #     PXPXPX",
"v R Q Q ! Q Q ! 4.=XgXgXhXgXdX|.X.PXPXPXPXPXPXPXPXPXPXPXPXPX  p.^.@X@X*X`._._.(.` $     PXPXPXPX",
"d M B U Y Y Q ! ! C.dXgXhXhXhXdX%X#.  PXPXPXPXPXPXPXPXPXPXPXPXo.~.@X&X*X*X`._._.q.f 2 PXPXPXPXPX",
"X + @ % : e R Q ! e.3XhXhXhXxXxXfX>X}.X.PXPXPXPXPXPXPXPXPXPXPXo.~.).*X-X-X*X*X`.!.z.&.M : PXPXPX",
"PX        @ B Q 8.=XgXgXhXxXxXxXcXhXyX>X'.PXPXPXPXPXPXPXPXPXPX@.~.*X2X2X2X:X-X*X*X_.H.1.M @ PXPX",
"PXPXPXPXPX  j 1.=XfXgXgXhXhXxXxXcXcXgXtXwX9X>X'.PXPXPXPXPXPX#X+X;X3X4X3X2X2X:X-X*X*X_.L.B O PXPX",
"PXPXPXPXPXS 1.OXfXgXgXgXxXxXxXxXhXfXfXfXfXfXaXaXyXyXwX9XeXeXeXeXtXdXrX4X4X3X2X-X-X*X*XL.k   PXPX",
"PXPXPXPXPX&.3.1XfXgXgXgXgXgXgXfXfXfXfXgXgXhXxXxXgXgXgXgXgXgXfXfXfXdXtXrXrX4X,XC.P.*X*XH.r   PXPX",
"PXPXPXPXf &.Q e.<XdXdXdXdXdXeXwXfXgXhXxXxXcXxXcXcXcXcXxXxXzXgXgXgXfXdXdXtX3XC.! :.q.P.h.w   PXPX",
"PXPXPXPXE &.Q Q w.,X4XdXrX%Xf.9.+XfXxXcXcXcXcXmXmXnXmXnXcXcXxXxXhXgXgXdXtXQ.! ! Q Q -.~ <   PXPX",
"PXPXPXPX&.$.Q Q Q C.3XrXQ.4.Q Q ! g.qXcXmXmXmXMXmXmXmXmXmXmXcXcXxXhXgXfXwX8.Q Q Q Q Y w .   PXPX",
"PXPXPXPXE =.! Q Q ! h.h.-.Q Q Q ! ! 9.|.nXMXMXVXVXMXVXMXMXmXmXnXcXcXzXgXtXg.Q Q Q W w .   PXPXPX",
"PXPXPXPX> U =.! Q Q Q Q =.Q ! -.! ! 8.w.pXCXCXZXZXZXCXCXVXMXMXnXnXcXcXzXgX$X>.Q ~ w X     PXPXPX",
"PXPXPXPX  > U ! Q Q Q =.W U :.4.0.8.9.d.lXZXFXFXSXFXZXpX8X>X>XXXpXmXnXxXxXaXs.l t X     PXPXPXPX",
"PXPXPXPXPX  9 W =.Q ! z = @ k ` 0.9.d.d.lXFXFXFXFXGXAX}.Z.Z.j.d.S.vXmXcXxXgX$Xu X     PXPXPXPXPX",
"PXPXPXPXPXPX. w ~ ~ t +     X 9 / 9.d.Z.kXGXHXHXHXHXBX}.'.'.S.A.Z.XXcXnXcXhXwXp.=   PXPXPXPXPXPX",
"PXPXPXPXPXPXPX  w 9 .     PX    & H g.].bXHXKXJXJXKXBXXX}.}.'.].S.A.pXmXhX>Xd.G O   PXPXPXPXPXPX",
"PXPXPXPXPXPXPX          PXPXPXPX  / A.}.kXDXKXLXLXLXkXj.j.{..X}.].D.}.8XD.d.G O   PXPXPXPXPXPXPX",
"PXPXPXPXPXPXPXPXPX  PXPXPXPXPXPXPX1.{..XoX6XjXkXbXBXc.= = ] [.XX.X}.].S.g./ *     PXPXPXPXPXPXPX",
"PXPXPXPXPXPXPXPXPXPXPXPXPXPXPXPXPX0.{.oX5X6X7X7X7XoXG     0 j.oXoXXX}.S.O.=     PXPXPXPXPXPXPXPX",
"PXPXPXPXPXPXPXPXPXPXPXPXPXPXPXPXPXp.[.8XiXuX7XjX7X} o   PXO K [.5XoXj.] 7     PXPXPXPXPXPXPXPXPX",
"PXPXPXPXPXPXPXPXPXPXPXPXPXPXPXPXPXp.|.6XuXjXkXkXv.-     PX  - +.{.| 0 O     PXPXPXPXPXPXPXPXPXPX",
"PXPXPXPXPXPXPXPXPXPXPXPXPXPXPXPXPXH ] o.v. X6X Xy     PXPXPX  y y o       PXPXPXPXPXPXPXPXPXPXPX",
"PXPXPXPXPXPXPXPXPXPXPXPXPXPXPXPXPX    . * 7 y q .   PXPXPXPXPX        PXPXPXPXPXPXPXPXPXPXPXPXPX",
"PXPXPXPXPXPXPXPXPXPXPXPXPXPXPXPXPXPXPX            PXPXPXPXPXPXPXPXPXPXPXPXPXPXPXPXPXPXPXPXPXPXPX",
"PXPXPXPXPXPXPXPXPXPXPXPXPXPXPXPXPXPXPXPXPXPXPXPXPXPXPXPXPXPXPXPXPXPXPXPXPXPXPXPXPXPXPXPXPXPXPXPX",
"PXPXPXPXPXPXPXPXPXPXPXPXPXPXPXPXPXPXPXPXPXPXPXPXPXPXPXPXPXPXPXPXPXPXPXPXPXPXPXPXPXPXPXPXPXPXPXPX"
};
