/* XPM */
static const char *xpmInformation48[]={
"48 48 256 2",
"Qt c None",
"#g c #000000",
"ba c #000101",
"aY c #000304",
"#5 c #000405",
"bg c #000709",
"aP c #000a0d",
"aJ c #000f13",
"b. c #00141a",
"aO c #00171e",
"aI c #00181f",
"aK c #001a22",
"bL c #001d26",
"b# c #001f28",
"aN c #002029",
"aM c #00202a",
"aL c #00222c",
"a9 c #00242f",
"bQ c #002a37",
"a7 c #003240",
"a1 c #003746",
"b6 c #003848",
"#z c #003a4a",
"bb c #003b4b",
"bu c #003b4c",
"aZ c #003c4d",
"#4 c #003d4e",
"aU c #003e4f",
"bA c #003f50",
"bh c #004153",
"bk c #004356",
"bY c #004558",
"b9 c #004659",
"bO c #00465a",
"aF c #00485c",
"bX c #004a5f",
"b5 c #004e64",
"bl c #005066",
"aQ c #005168",
"bV c #00536a",
"bt c #00556d",
"bc c #00576f",
"b2 c #005871",
"bZ c #005972",
"b3 c #005a73",
"a6 c #005b75",
"bS c #005e79",
"bo c #00607b",
"bj c #00617d",
"an c #00627e",
"ah c #00637f",
"au c #006481",
"aT c #006582",
"bT c #006683",
"ap c #006885",
"av c #006987",
"aE c #006a88",
"bR c #006d8c",
"aB c #006e8d",
"aA c #007191",
"at c #007293",
"aw c #007596",
"#Y c #007698",
"#8 c #007799",
"bD c #00789a",
"ay c #00799b",
"az c #00799c",
"ax c #007a9d",
"bI c #007ca0",
"bw c #007fa3",
"ag c #007fa4",
"bW c #0081a6",
"b7 c #0083a9",
"ac c #0085ab",
"am c #0086ac",
"bU c #0087ae",
"b8 c #0088af",
"bM c #008ab1",
"bJ c #008ab2",
"ad c #008bb3",
"bq c #008fb8",
"aC c #0090b9",
"#S c #0091bb",
"ao c #0092bc",
"#L c #0094be",
"bB c #0096c0",
"b0 c #0098c3",
"bK c #009ac5",
"#7 c #009bc6",
"ab c #009cc8",
"bE c #009dc9",
"bf c #009eca",
"aS c #00a0cd",
"a5 c #00a1cf",
"a0 c #00a4d2",
"bd c #00a5d4",
"af c #00a8d8",
"bP c #00a9d9",
"by c #00aada",
"#H c #00abdb",
"be c #00acdd",
"bC c #00adde",
"b4 c #00aedf",
"#R c #00afe1",
"b1 c #00b1e3",
"bG c #00b2e4",
"al c #00b3e6",
"#D c #00b6e9",
"#X c #00b6ea",
"bz c #00b8ec",
"bv c #00b9ed",
"bN c #00b9ee",
"#u c #00bbf0",
"#3 c #00bcf1",
"aR c #00bdf2",
"#6 c #00bdf3",
"#G c #00bef4",
"bp c #00bff5",
"bH c #00c0f6",
"aD c #00c1f8",
"aa c #00c2f9",
"bF c #00c3fa",
"#n c #00c3fb",
"ae c #00c4fc",
"#. c #00c5fd",
"#K c #01c5fd",
".9 c #02c5fd",
"## c #03c6fd",
"#A c #04c6fd",
"br c #050505",
"#Q c #06c6fd",
".8 c #08c7fd",
"#a c #0ac7fd",
"bx c #0cc8fd",
"#C c #0dc8fd",
"#y c #0ec8fd",
"aH c #10c9fd",
"#B c #12c9fd",
".7 c #13c9fd",
"bm c #151515",
"#r c #15cafd",
"#b c #16cafd",
"#t c #17cafd",
"bs c #18cafd",
"#k c #19cbfd",
"bn c #1ccbfd",
".1 c #1d1d1d",
"#s c #1dccfd",
"bi c #20ccfd",
"as c #21cdfd",
"a8 c #23cdfd",
"#c c #26cefd",
".6 c #28cefd",
"a4 c #29cefd",
".0 c #2a2a2a",
"#l c #2bcffd",
"#f c #2ccffd",
"#x c #2ecffd",
"a2 c #343434",
"#m c #34d1fd",
"#j c #35d1fd",
"#d c #37d2fd",
".Z c #3dd3fd",
".L c #3e3e3e",
"#e c #40d4fe",
"aV c #424242",
".T c #42d4fe",
".S c #43d4fe",
"a3 c #44d4fe",
".R c #47d5fe",
".K c #494949",
".U c #4ad6fe",
"#2 c #4cd6fe",
".Y c #4dd7fe",
"ak c #4ed7fe",
"aG c #4f4f4f",
"aW c #4fd7fe",
".v c #515151",
".J c #51d7fe",
"aX c #52d8fe",
".Q c #53d8fe",
".X c #54d8fe",
".V c #58d9fe",
".W c #5bdafe",
".u c #5d5d5d",
".I c #5edafe",
".t c #626262",
".H c #64dcfe",
"#w c #65dcfe",
"#P c #69ddfe",
"a# c #6addfe",
"aq c #6bddfe",
".s c #6ddefe",
".h c #6f6f6f",
"ar c #6fdefe",
"#q c #70defe",
"ai c #747474",
"#W c #75e0fe",
"aj c #77e0fe",
".G c #78e0fe",
".P c #7ce1fe",
"#9 c #7d7d7d",
".r c #7ee2fe",
".g c #7f7f7f",
"#1 c #7fe2fe",
"a. c #84e3fe",
".F c #85e3fe",
"#Z c #868686",
".5 c #86e3fe",
".E c #88e4fe",
".f c #898989",
".q c #89e4fe",
"#0 c #8ae4fe",
"#T c #8b8b8b",
".D c #8de5fe",
"#U c #91e6fe",
"#V c #92e6fe",
".e c #939393",
".O c #93e6fe",
".p c #94e7fe",
"#O c #96e7fe",
".d c #979797",
".C c #97e7fe",
"#M c #989898",
".o c #98e8fe",
".c c #9c9c9c",
".n c #9de9fe",
"#N c #9ee9fe",
"#I c #9f9f9f",
".B c #a0e9fe",
".4 c #a2eafe",
".b c #a3a3a3",
".m c #a6ebfe",
"#J c #a8ebfe",
"#i c #a9ebfe",
".a c #aaaaaa",
"#E c #acacac",
".l c #acecfe",
"#F c #afedfe",
"#v c #b0edfe",
".# c #b2b2b2",
"#p c #b2edfe",
".A c #b4eefe",
"#o c #b5b5b5",
".k c #b5eefe",
"#h c #b6b6b6",
".j c #b8b8b8",
".z c #b8effe",
".2 c #bababa",
".i c #bbbbbb",
".N c #bbf0fe",
".y c #bcf0fe",
".x c #bdbdbd",
".3 c #bdf0fe",
".w c #bebebe",
".M c #bef0fe",
"QtQtQtQtQtQtQtQtQtQtQtQtQtQtQtQtQtQtQtQtQtQtQtQtQtQtQtQtQtQtQtQtQtQtQtQtQtQtQtQtQtQtQtQtQtQtQtQt",
"QtQtQtQtQtQtQtQtQtQtQtQtQtQtQtQtQtQtQtQtQtQtQtQtQtQtQtQtQtQtQtQtQtQtQtQtQtQtQtQtQtQtQtQtQtQtQtQt",
"QtQtQtQtQtQtQtQtQtQtQtQtQtQtQtQtQtQtQtQtQtQtQtQtQtQtQtQtQtQtQtQtQtQtQtQtQtQtQtQtQtQtQtQtQtQtQtQt",
"QtQtQtQtQtQtQtQtQtQtQtQtQtQtQtQtQtQtQt.#.a.b.c.d.d.e.f.g.hQtQtQtQtQtQtQtQtQtQtQtQtQtQtQtQtQtQtQt",
"QtQtQtQtQtQtQtQtQtQtQtQtQtQtQtQt.i.j.j.k.l.m.n.o.o.p.q.r.s.t.u.vQtQtQtQtQtQtQtQtQtQtQtQtQtQtQtQt",
"QtQtQtQtQtQtQtQtQtQtQtQtQtQt.w.x.y.z.A.l.B.C.D.E.E.F.r.G.s.H.I.J.K.LQtQtQtQtQtQtQtQtQtQtQtQtQtQt",
"QtQtQtQtQtQtQtQtQtQtQtQt.w.w.M.N.A.m.O.P.H.Q.R.S.S.T.S.U.J.V.W.X.Y.Z.0.1QtQtQtQtQtQtQtQtQtQtQtQt",
"QtQtQtQtQtQtQtQtQtQtQt.2.3.y.k.4.5.H.T.6.7.8.9#.#.#.###a#b#c#d.S.U#e#f#b#gQtQtQtQtQtQtQtQtQtQtQt",
"QtQtQtQtQtQtQtQtQtQt#h.z.z#i.E.W#j#k.8.9#.#.#.#.#.#.#.#.#.###a#k#l#m#f#b#n#gQtQtQtQtQtQtQtQtQtQt",
"QtQtQtQtQtQtQtQtQt#o.k#p.n#q.Z#k.8.9#.#.#.#.#.#.#.#.#.#.#.#.#.###a#r#s#t###u#gQtQtQtQtQtQtQtQtQt",
"QtQtQtQtQtQtQtQt.#.A#v.o#w#x#y.9#.#.#u#z#g#g#g#g#g#g#g#g#z#u#.#.#.#A#a#B#C#n#D#gQtQtQtQtQtQtQtQt",
"QtQtQtQtQtQtQt#E#v#F.o#w#x#y.9#.#.#.#u#z#g#g#g#g#g#g#g#g#z#u#.#.#.#.#A#a#B#C#G#H#gQtQtQtQtQtQtQt",
"QtQtQtQtQtQt#I.m#J.C#w#x#y.9#.#.#.#.#u#z#g#g#g#g#g#g#g#g#z#u#.#.#.#.#.#A#a#B#K#H#L#gQtQtQtQtQtQt",
"QtQtQtQtQtQt#M#N#O#P#x#y.9#.#.#.#.#.#u#z#g#g#g#g#g#g#g#g#z#u#.#.#.#.#.#.#A#a#Q#R#S#gQtQtQtQtQtQt",
"QtQtQtQtQt#T#U#V#W#d#y.9#.#.#.#.#.#.#u#z#g#g#g#g#g#g#g#g#z#u#.#.#.#.#.#.#.#A#A#X#L#Y#gQtQtQtQtQt",
"QtQtQtQtQt#Z#0#1#2#b.9#.#.#.#.#.#.#.#3#4#g#5#5#5#5#5#5#g#4#3#.#.#.#.#.#.#.#.#K#6#7#8#gQtQtQtQtQt",
"QtQtQtQt#9a..Fa##x.8#.#.#.#.#.#.#.#.aaabacadadadadadadacabaa#.#.#.#.#.#.#.#.#Kaeafagah#gQtQtQtQt",
"QtQtQtQtai.Pajak#b.9#.#.#.#.#.#.#.#.#.#.#.#.#.#.#.#.#.#.#.#.#.#.#.#.#.#.#.#.#.#Kalaman#gQtQtQtQt",
"QtQtQtQtai.Ga##m.8#.#.#.#.#.#.#.#.#.#.#.#.#.#.#.#.#.#.#.#.#.#.#.#.#.#.#.#.#.#.#K#3aoap#gQtQtQtQt",
"QtQtQt.taqar.Vas.9#.#.#.#.#.#.#.atauavawaxayayayazawaAaBaCaD#.#.#.#.#.#.#.#.#.#.aaabaEaF#gQtQtQt",
"QtQtQtaG.W.I.SaH#.#.#.#.#.#.#.#.aI#gaJaKaLaMaMaNaMaKaOaPaQaR#.#.#.#.#.#.#.#.#.#.aeaSaTaU#gQtQtQt",
"QtQtQtaVaWaX#j.8#.#.#.#.#.#.#.#.aY#gaYaY#5#5#5#5#5aYaY#gaZ#3#.#.#.#.#.#.#.#.#.#.#Ka0ana1#gQtQtQt",
"QtQtQta2#ea3a4.9#.#.#.#.#.#.#.#.#g#g#g#g#g#g#g#g#g#g#g#g#z#u#.#.#.#.#.#.#.#.#.#.#.a5a6a7#gQtQtQt",
"QtQtQt.0#d.Za8#.#.#.#.#.#.#.#.#.a9b.b#aJaYba#g#g#g#g#g#gbb#u#.#.#.#.#.#.#.#.#.#.#.aSbca7#gQtQtQt",
"QtQtQt.0#d.Za8#.#.#.#.#.#.#.#.#.bdbebfaFaPbgba#g#g#g#g#gbh#3#.#.#.#.#.#.#.#.#.#.#.aSbca7#gQtQtQt",
"QtQtQt.0#x#jbi#.#.#.#.#.#.#.#.#.#.#.#Gbjb.aPba#g#g#g#g#gbk#3#.#.#.#.#.#.#.#.#.#.#n#7bla7#gQtQtQt",
"QtQtQtbmbn#c#kae#.#.#.#.#.#.#.#.#.#.#Gbob.aP#g#g#g#g#g#gbh#3#.#.#.#.#.#.#.#.#.#.bpbqbha7#gQtQtQt",
"QtQtQtbr#abs#b#K#.#.#.#.#.#.#.#.#.#.#6btbg#5#g#g#g#g#g#gbu#u#.#.#.#.#.#.#.#.#.#.bvbwa7a7#gQtQtQt",
"QtQtQt#gbv#.bx#K#.#.#.#.#.#.#.#.#.#.#3aF#g#g#g#g#g#g#g#g#z#u#.#.#.#.#.#.#.#.#.#nbybja7a7#gQtQtQt",
"QtQtQtQt#gbz####ae#.#.#.#.#.#.#.#.#.#3bA#g#g#g#g#g#g#g#g#z#u#.#.#.#.#.#.#.#.#.bpbBbka7#gQtQtQtQt",
"QtQtQtQt#gbC#6#K#n#.#.#.#.#.#.#.#.#.#u#z#g#g#g#g#g#g#g#g#z#u#.#.#.#.#.#.#.#.#nalbDa7a7#gQtQtQtQt",
"QtQtQtQt#gbEbe#6bFae#.#.#.#.#.#.#.#.#u#z#g#g#g#g#g#g#g#g#z#u#.#.#.#.#.#.#.#.bpbfbla7a7#gQtQtQtQt",
"QtQtQtQtQt#gbfbGbH#n#.#.#.#.#.#.#.#.#u#z#g#g#g#g#g#g#g#g#z#u#.#.#.#.#.#.#.#nalbIa7a7#gQtQtQtQtQt",
"QtQtQtQtQt#gbJbK#RaRaa#.#.#.#.#.bJbwahbL#g#g#g#g#g#g#g#gbLahbMbd#.#.#.#.#nbN#LbOa7a7#gQtQtQtQtQt",
"QtQtQtQtQtQt#gbwaobPbNaa#.#.#.#.a1aOaPaY#g#g#g#g#g#g#g#gbaaPbQbR#.#.#.#nbNbfbSa7a7#gQtQtQtQtQtQt",
"QtQtQtQtQtQt#gbTaAbUa0bNaa#.#.#.bg#gaYba#g#g#g#g#g#g#g#g#gbabgbk#.#.#nbNbfaua7a7a7#gQtQtQtQtQtQt",
"QtQtQtQtQtQtQt#gbVahbWa0bNaa#.#.#g#g#g#g#g#g#g#g#g#g#g#g#g#g#gbQ#.#nbNbfaua7a7a7#gQtQtQtQtQtQtQt",
"QtQtQtQtQtQtQtQt#gbXbSbWa0bNaa#.aMaJaMaMaMaMaMaMaMaMaMaMb#aNaMbt#nbNbfaua7a7a7#gQtQtQtQtQtQtQtQt",
"QtQtQtQtQtQtQtQtQt#gbYbZ#Yb0#R#3bF#.#.#.#.#.#.#.#.#.#.#.#.#.#n#Gb1#Sb2a7a7a7#gQtQtQtQtQtQtQtQtQt",
"QtQtQtQtQtQtQtQtQtQt#g#zbYb3bDbBb4#3bF#.#.#.#.#.#.#.#.#.#n#Gb1b0aAa1a7a7a7#gQtQtQtQtQtQtQtQtQtQt",
"QtQtQtQtQtQtQtQtQtQtQt#ga7a7a1b5aBbMa5bGaRbF#.#.#.#n#G#Da0adap#za7a7a7a7#gQtQtQtQtQtQtQtQtQtQtQt",
"QtQtQtQtQtQtQtQtQtQtQtQt#g#ga7a7a7b6blapayb7b8b8b8b7bDaTb9a7a7a7a7a7#g#gQtQtQtQtQtQtQtQtQtQtQtQt",
"QtQtQtQtQtQtQtQtQtQtQtQtQtQt#g#ga7a7a7a7a7a7a7a7a7a7a7a7a7a7a7a7#g#gQtQtQtQtQtQtQtQtQtQtQtQtQtQt",
"QtQtQtQtQtQtQtQtQtQtQtQtQtQtQtQt#g#g#ga7a7a7a7a7a7a7a7a7a7#g#g#gQtQtQtQtQtQtQtQtQtQtQtQtQtQtQtQt",
"QtQtQtQtQtQtQtQtQtQtQtQtQtQtQtQtQtQtQt#g#g#g#g#g#g#g#g#g#gQtQtQtQtQtQtQtQtQtQtQtQtQtQtQtQtQtQtQt",
"QtQtQtQtQtQtQtQtQtQtQtQtQtQtQtQtQtQtQtQtQtQtQtQtQtQtQtQtQtQtQtQtQtQtQtQtQtQtQtQtQtQtQtQtQtQtQtQt",
"QtQtQtQtQtQtQtQtQtQtQtQtQtQtQtQtQtQtQtQtQtQtQtQtQtQtQtQtQtQtQtQtQtQtQtQtQtQtQtQtQtQtQtQtQtQtQtQt",
"QtQtQtQtQtQtQtQtQtQtQtQtQtQtQtQtQtQtQtQtQtQtQtQtQtQtQtQtQtQtQtQtQtQtQtQtQtQtQtQtQtQtQtQtQtQtQtQt"};
