/* XPM */
static const char *xpmRemove32[] = {
/* columns rows colors chars-per-pixel */
"32 32 129 2",
"   c black",
".  c #58040000",
"X  c #5B040000",
"o  c #5F040000",
"O  c #7A040000",
"+  c #80000000",
"@  c #80010000",
"#  c #80020000",
"$  c #81030000",
"%  c #83000000",
"&  c #82040000",
"*  c #8C110000",
"=  c #8D140000",
"-  c #8E160000",
";  c #90180000",
":  c #921A0000",
">  c #941C0000",
",  c #961E0000",
"<  c #9A220000",
"1  c #A00A0000",
"2  c #A10B0000",
"3  c #A20D0000",
"4  c #A70F0000",
"5  c #A90F0000",
"6  c #BC000000",
"7  c #BC010000",
"8  c #BD030000",
"9  c #BE000000",
"0  c #BE040000",
"q  c #BF060000",
"w  c #BF080000",
"e  c #BF090000",
"r  c #B3140000",
"t  c #BD150000",
"y  c #BF150000",
"u  c #BF2D0000",
"i  c #C00B0000",
"p  c #C10B0000",
"a  c #C60D0000",
"s  c #C70E0000",
"d  c #CE000000",
"f  c #C9110000",
"g  c #C9170000",
"h  c #CB150000",
"j  c #CA170000",
"k  c #CB170000",
"l  c #CC170000",
"z  c #CB180000",
"x  c #CE1C0000",
"c  c #D7000000",
"v  c #D7010000",
"b  c #D7030000",
"n  c #D7090100",
"m  c #D01E0000",
"M  c #D41F0900",
"N  c #D8110400",
"B  c #D8170700",
"V  c #D91E0A00",
"C  c #D2210000",
"Z  c #D4250000",
"A  c #D6280000",
"S  c #DA230D00",
"D  c #D92A0000",
"F  c #DC2E0000",
"G  c #DA280F00",
"H  c #DE320000",
"J  c #D8311000",
"K  c #DF3D1A00",
"L  c #E6000000",
"P  c #FE000000",
"I  c #FE030000",
"U  c #FE090200",
"Y  c #FE120600",
"T  c #FE1A0B00",
"R  c #E3370000",
"E  c #E4370000",
"W  c #E5370000",
"Q  c #FE210F00",
"!  c #FE291400",
"~  c #FE2F1900",
"^  c #FE361D00",
"/  c #EA3F2200",
"(  c #FE3D2300",
")  c #E0411D00",
"_  c #E1472000",
"`  c #E2442100",
"'  c #E2472200",
"]  c #E24C2200",
"[  c #EB482800",
"{  c #E3512600",
"}  c #E5562800",
"|  c #E75B2C00",
" . c #EB502E00",
".. c #EA5C2000",
"X. c #FE442800",
"o. c #FE4A2E00",
"O. c #FE503300",
"+. c #FE553800",
"@. c #FE5B3D00",
"#. c #E8602F00",
"$. c #EA653100",
"%. c #EC6A3400",
"&. c #FE614300",
"*. c #FE664800",
"=. c #FE6C4E00",
"-. c #FE715300",
";. c #FE775900",
":. c #FE7C5E00",
">. c #FE816300",
",. c #FE866800",
"<. c #FE8A6D00",
"1. c #FE8F7300",
"2. c #F5946600",
"3. c #FE947800",
"4. c #FE997D00",
"5. c #FE9D8200",
"6. c #FEA18700",
"7. c #FEA58C00",
"8. c #FEAA9100",
"9. c #FEAE9600",
"0. c #FEB19A00",
"q. c #FEB59F00",
"w. c #FEB9A300",
"e. c #FEBDA800",
"r. c #FEC0AC00",
"t. c #FEC4B100",
"y. c #FEC7B500",
"u. c gray100",
"i. c None",
/* pixels */
"i.i.i.i.i.i.i.i.i.i.i.i.i.i.i.i.i.i.i.i.i.i.i.i.i.i.i.i.i.i.i.i.",
"i.i.i.i.i.R E u     i.i.i.i.i.i.i.i.i.i.i.i.i.i.g g g     i.i.i.",
"i.i.i.i.R E ..H <     i.i.i.i.i.i.i.i.i.i.i.i.g l J l 5     i.i.",
"i.i.i.R E 2.y.%.F ,     i.i.i.i.i.i.i.i.i.i.g l K ;.[ f 3     i.",
"i.i.R E 2.y.t.r.$.D ,     i.i.i.i.i.i.i.i.g l K ;.-.=.[ s 2     ",
"i.R E 2.y.t.r.e.w.| Z ;     i.i.i.i.i.i.g l K ;.-.=.*.&./ s 2   ",
"i.E ..y.t.r.e.w.w.0.| Z ;     i.i.i.i.g l K ;.-.=.*.&.@.+.M p   ",
"i.u H %.r.e.w.q.0.9.8.} C -     i.i.g g K ;.-.=.*.&.@.+.G p X   ",
"i.  < F $.w.q.0.9.8.7.6.{ m -     z z ) ;.-.=.*.&.@.+.G e .     ",
"i.    , D #.0.9.8.7.6.5.4.] x * r z ) ;.-.=.*.&.@.+.G e .       ",
"i.i.    , A | 8.7.6.5.4.3.1._ z z K ;.-.=.*.&.@.+.G p .         ",
"i.i.i.    ; Z } 6.5.4.3.1.<.,._ _ ;.-.=.*.&.@.+.G p X         i.",
"i.i.i.i.    ; C { 4.3.1.<.,.>.:.;.-.=.*.&.@.+.G e X         i.i.",
"i.i.i.i.i.    - m ] 1.<.,.>.:.;.-.=.*.&.@.+.G e .         i.i.i.",
"i.i.i.i.i.i.    - x _ ,.>.:.;.-.=.*.&.@.+.G e X         i.i.i.i.",
"i.i.i.i.i.i.i.    * z ) :.;.-.=.*.&.@.+.G e .         i.i.i.i.i.",
"i.i.i.i.i.i.i.i.  r z ) ;.-.=.*.&.@.+.O.S e o       i.i.i.i.i.i.",
"i.i.i.i.i.i.i.i.z z ) ;.-.=.*.&.@.+.O.o.X.V q O     i.i.i.i.i.i.",
"i.i.i.i.i.i.i.g z K ;.-.=.*.&.@.+.O.o.X.( ^ B q &     i.i.i.i.i.",
"i.i.i.i.i.i.g g K ;.-.=.*.&.@.+.O.o.X.( ^ ~ ! N q #     i.i.i.i.",
"i.i.i.i.i.g g K ;.-.=.*.&.@.+.G S X.( ^ ~ ! Q T n 6 #     i.i.i.",
"i.i.i.i.g g K ;.-.=.*.&.@.+.G e e V ^ ^ ! Q T Y U c 6 #     i.i.",
"i.i.i.g g K ;.-.=.*.&.@.+.G e X o e B ! Q T Y U I I c 6 #     i.",
"i.i.g g K ;.-.=.*.&.@.+.G e .     O q N T Y U I I I I c 6 #     ",
"i.g z K ;.-.=.*.&.@.+.G e .         & q n U I I I I I I c 6 #   ",
"i.l J ;.-.=.*.&.@.+.G e X             # 6 c I I I I I I I d 6   ",
"i.t g [ =.*.&.@.+.G e X         i.i.    # 6 c I I I I I L 6 #   ",
"i.  5 f [ &.@.+.G e .         i.i.i.i.    # 6 c I I I L i #     ",
"i.    3 s ` +.G p X         i.i.i.i.i.i.    # 6 c I L 6 #       ",
"i.i.    3 s M p X         i.i.i.i.i.i.i.i.    # 6 d i #         ",
"i.i.i.    2 p o         i.i.i.i.i.i.i.i.i.i.    # 6 %         i.",
"i.i.i.i.              i.i.i.i.i.i.i.i.i.i.i.i.              i.i."
};
