/* XPM */
static const char *xpmSQL48[]={
"48 48 256 2",
"Qt c None",
".# c #000000",
".d c #003700",
".b c #003800",
".c c #003b00",
".k c #003c00",
".Q c #003f00",
".j c #004000",
".i c #004400",
".h c #004900",
".P c #004f00",
".x c #005000",
".w c #005500",
".Y c #005600",
".2 c #005b00",
".v c #005c00",
".u c #006200",
".t c #006900",
".O c #007000",
".N c #007700",
".X c #007800",
".M c #007f00",
".1 c #008600",
".L c #008700",
".K c #008e00",
".J c #009500",
".W c #009600",
".3 c #009d00",
".I c #009e00",
".H c #00a500",
".V c #00ac00",
".G c #00ad00",
".F c #00b400",
".0 c #00b500",
".U c #00bb00",
".E c #00bc00",
".D c #00c300",
".C c #00c900",
".T c #00ca00",
".B c #00d000",
".S c #00d100",
".s c #00d700",
".Z c #00d800",
".A c #00dd00",
".r c #00de00",
".R c #00e300",
".q c #00e400",
".p c #00e900",
".z c #00ea00",
".y c #00ee00",
".o c #00ef00",
".n c #00f300",
".g c #00f400",
".m c #00f700",
".f c #00f800",
".e c #00fb00",
".l c #00fc00",
".a c #00ff00",
"b9 c #050500",
"bY c #0ac100",
"#f c #0c0c0c",
"au c #10ef00",
"aK c #10f500",
"#l c #131313",
"aV c #1a1a1a",
"#s c #1f1f1f",
"aW c #20fc08",
"bE c #252525",
"a8 c #292929",
"aH c #323232",
"bA c #373737",
"bb c #393939",
"bq c #3a3a3a",
"a. c #3c3c3c",
"a2 c #404040",
"bT c #414100",
"ar c #424242",
"as c #454545",
"a7 c #494949",
"bs c #4f4f00",
".8 c #4f4f4f",
"aQ c #505000",
"#O c #535353",
"aC c #565600",
"b. c #585800",
"aX c #5a5a5a",
"b6 c #5c5c00",
"ac c #5e5e5e",
"ax c #626200",
"bB c #626262",
"bX c #656500",
"bi c #666666",
"bI c #696900",
"b0 c #6b6b00",
"b1 c #6c6c00",
"bO c #6e6e00",
"aL c #6f6f6f",
".7 c #737373",
"bZ c #747400",
"bp c #757575",
"bx c #777777",
"aZ c #787800",
"#e c #7a7a7a",
"#t c #7c7c7c",
"bz c #7d7d00",
"#T c #7f7f7f",
"ay c #828282",
"b5 c #838300",
"#a c #858585",
"b2 c #868600",
"aw c #888800",
".6 c #8b8b8b",
"b7 c #8c8c00",
"bw c #8c8c8c",
"br c #8e8e8e",
"bF c #8f8f00",
"b8 c #909000",
"## c #909090",
"bo c #929292",
"#d c #959595",
"af c #969600",
"#b c #989898",
".5 c #9a9a9a",
"#. c #9c9c9c",
"ak c #9d9d00",
"#z c #9e9e9e",
"bd c #a0a000",
"#c c #a1a1a1",
"ab c #a2a200",
"ag c #a4a400",
"av c #a5a500",
"#m c #a5a5a5",
"aD c #a7a700",
".9 c #a7a7a7",
"aP c #a9a900",
".4 c #a9a9a9",
"bj c #adad00",
"al c #aeae00",
"aj c #b0b000",
"a9 c #b3b300",
"a1 c #b4b400",
"#X c #b7b700",
"#Y c #b9b900",
"bt c #bfbf00",
"aT c #c1c100",
"ai c #c2c200",
"ah c #c3c300",
"bR c #c5c500",
"#S c #c8c800",
"at c #cbcb00",
"b3 c #cccc00",
"aR c #cfcf00",
"am c #d0d000",
"be c #d1d100",
"bU c #d3d300",
"bn c #d4d400",
"aY c #d5d500",
"#Z c #d7d700",
"b4 c #d8d800",
"bV c #dada00",
"ae c #dada13",
"aE c #dcdc00",
"#W c #dddd00",
"bf c #dede00",
"bk c #dfdf00",
"aJ c #e0e000",
"aa c #e2e200",
"bW c #e4e400",
"aB c #e5e500",
"a0 c #e7e700",
"b# c #e8e800",
"#4 c #e9e900",
"#5 c #ebeb00",
"#1 c #ecec00",
"bK c #eded00",
"bv c #eeee00",
"bN c #efef34",
"aq c #f1f100",
"an c #f2f200",
"aS c #f3f300",
"bM c #f5f500",
"#0 c #f6f600",
"bh c #f7f700",
"#6 c #f8f800",
"#G c #f9f900",
"#3 c #fcfc00",
"aF c #fdfd00",
"a3 c #fefe00",
"aO c #ffff00",
"bc c #ffff01",
"aG c #ffff03",
"a4 c #ffff04",
"bG c #ffff05",
"ap c #ffff07",
"#7 c #ffff08",
"ao c #ffff09",
"#9 c #ffff0a",
"bL c #ffff0c",
"aI c #ffff0d",
"#R c #ffff0e",
"bm c #ffff0f",
"#x c #ffff10",
"#8 c #ffff12",
"bu c #ffff15",
"a5 c #ffff16",
"#N c #ffff17",
"a# c #ffff18",
"#F c #ffff19",
"aU c #ffff1a",
"#D c #ffff21",
"#E c #ffff22",
"bS c #ffff24",
"#M c #ffff25",
"bD c #ffff27",
"bJ c #ffff28",
"bg c #ffff2a",
"#L c #ffff2b",
"#K c #ffff2c",
"#C c #ffff2d",
"bl c #ffff2e",
"aA c #ffff30",
"#J c #ffff32",
"#V c #ffff35",
"#k c #ffff37",
"ba c #ffff3a",
"bP c #ffff3c",
"#r c #ffff3e",
"#Q c #ffff42",
"a6 c #ffff44",
"aN c #ffff47",
"#I c #ffff49",
"#B c #ffff4f",
"#w c #ffff52",
"bC c #ffff55",
"#P c #ffff57",
"#j c #ffff59",
"ad c #ffff5b",
"by c #ffff5c",
"bH c #ffff61",
"bQ c #ffff65",
"#U c #ffff66",
"#q c #ffff68",
"az c #ffff6a",
"aM c #ffff6c",
"#i c #ffff6f",
"#H c #ffff70",
"#p c #ffff74",
"#v c #ffff7d",
"#h c #ffff81",
"#o c #ffff85",
"#u c #ffff8a",
"#2 c #ffff8e",
"#g c #ffff93",
"#A c #ffff97",
"#n c #ffff9c",
"#y c #fffff8",
"QtQtQtQtQtQtQtQtQtQtQtQtQtQtQtQtQtQtQtQtQtQtQtQtQtQtQtQtQtQtQtQtQtQtQtQtQtQtQtQtQtQtQtQtQtQtQtQt",
"QtQtQtQtQtQtQtQtQtQtQtQtQtQtQtQtQtQtQtQtQtQtQtQtQtQtQtQtQtQtQtQtQtQtQtQtQtQtQtQtQtQtQtQtQtQtQtQt",
"QtQtQtQtQtQtQtQtQtQtQtQtQtQtQtQtQt.#.#.#.#.#.#.#.#.#.#.#.#.#.#QtQtQtQtQtQtQtQtQtQtQtQtQtQtQtQtQt",
"QtQtQtQtQtQtQtQtQtQtQtQt.#.#.#.#.#.a.a.a.a.a.a.a.a.a.a.a.a.a.a.#.#.#.#.#QtQtQtQtQtQtQtQtQtQtQtQt",
"QtQtQtQtQtQtQtQtQt.#.#.#.a.a.a.a.a.a.a.a.a.a.a.a.a.a.a.a.a.a.a.a.a.a.a.a.#.#.#QtQtQtQtQtQtQtQtQt",
"QtQtQtQtQtQtQtQt.#.a.a.a.a.a.a.a.a.a.a.a.a.a.a.a.a.a.a.a.a.a.a.a.a.a.a.a.a.a.a.#QtQtQtQtQtQtQtQt",
"QtQtQtQtQtQtQt.#.a.a.a.a.a.a.a.a.a.a.a.a.a.a.a.a.a.a.a.a.a.a.a.a.a.a.a.a.a.a.a.a.#QtQtQtQtQtQtQt",
"QtQtQtQtQtQt.#.a.a.a.a.a.a.a.a.a.a.a.a.a.a.a.a.a.a.a.a.a.a.a.a.a.a.a.a.a.a.a.a.a.a.#QtQtQtQtQtQt",
"QtQtQtQtQtQt.#.a.a.a.a.a.a.a.a.a.a.a.a.a.a.a.a.a.a.a.a.a.a.a.a.a.a.a.a.a.a.a.a.a.a.#QtQtQtQtQtQt",
"QtQtQtQtQtQt.#.#.a.a.a.a.a.a.a.a.a.a.a.a.a.a.a.a.a.a.a.a.a.a.a.a.a.a.a.a.a.a.a.a.#.#QtQtQtQtQtQt",
"QtQtQtQtQtQt.#.a.#.a.a.a.a.a.a.a.a.a.a.a.a.a.a.a.a.a.a.a.a.a.a.a.a.a.a.a.a.a.a.#.b.#QtQtQtQtQtQt",
"QtQtQtQtQtQt.#.a.a.#.#.#.a.a.a.a.a.a.a.a.a.a.a.a.a.a.a.a.a.a.a.a.a.a.a.a.#.#.#.c.d.#QtQtQtQtQtQt",
"QtQtQtQtQtQt.#.a.a.e.f.g.#.#.#.#.#.a.a.a.a.a.a.a.a.a.a.a.a.a.a.#.#.#.#.#.h.i.j.k.d.#QtQtQtQtQtQt",
"QtQtQtQtQtQt.#.a.a.l.m.n.o.p.q.r.s.#.#.#.#.#.#.#.#.#.#.#.#.#.#.t.u.v.w.x.h.i.j.c.d.#QtQtQtQtQtQt",
"QtQtQtQtQtQt.#.a.a.l.m.g.y.z.q.A.s.B.C.D.E.F.G.H.I.J.K.L.M.N.O.t.u.v.w.P.h.i.Q.k.d.#QtQtQtQtQtQt",
"QtQtQtQtQtQt.#.a.a.e.f.g.o.p.R.r.s.S.T.D.U.F.V.H.I.W.K.L.M.X.O.t.u.v.Y.x.h.i.j.c.d.#QtQtQtQtQtQt",
"QtQtQtQtQtQt.#.a.a.l.m.n.y.z.q.r.Z.S.T.D.U.0.G.H.I.W.K.1.M.X.O.t.u.2.Y.P.h.i.j.c.d.#QtQtQtQtQtQt",
"QtQtQtQtQtQt.#.a.a.l.f.n.o.p.q.A.s.B.T.D.E.F.G.H.3.W.K.1.M.X.O.t.u.v.w.P.h.i.Q.c.d.#QtQtQtQtQtQt",
"QtQtQtQtQtQt.#.a.a.e.f.n.o.z.q.A.s.S.T.D.U.F.G.H.3.J.K.L.M.N.O.t.u.2.w.P.h.i.j.c.b.#QtQtQtQtQtQt",
"QtQtQtQtQtQt.#.a.a.e.f.n.y.p.R.A.s.S.T.D.E.F.G.H.3.W.K.L.M.N.O.t.u.v.w.P.h.i.Q.c.b.#QtQtQtQtQtQt",
"QtQtQtQtQtQt.#.a.a.e.f.n.y.p.R.r.Z.S.T.D.U.0.G.H.3.J.K.1.M.N.O.t.u.2.w.x.h.i.Q.k.b.#QtQtQtQtQtQt",
"QtQtQtQtQtQt.#.a.a.e.f.g.o.p.q.A.s.S.T.D.E.F.V.H.3.J.K.1.M.X.O.t.u.2.w.P.h.i.Q.c.d.#QtQtQtQtQtQt",
"QtQtQtQtQtQt.#.a.a.l.f.n.o.p.q.r.s.S.T.D.E.F.G.H.I.J.K.L.M.N.O.t.u.2.w.x.h.i.Q.c.d.#QtQtQtQtQtQt",
"QtQtQtQtQtQt.#.a.a.l.m.g.o.p.R.r.Z.S.T.D.U.F.G.H.I.J.K.1.M.X.O.t.u.v.w.x.h.i.Q.k.d.#QtQtQtQtQtQt",
"QtQtQtQtQtQt.#.a.a.e.m.g.y.p.R.A.s.S.T.D.U.F.V.H.3.J.K.1.M.X.O.t.u.v.Y.P.h.i.j.k.d.#QtQtQtQtQtQt",
"QtQtQtQtQtQt.4.5.6.7.8.n.o.z.q.r.s.S.T.D.U.F.9#.###a.7.8.M.N.O.t.u.2.w#b#c#d#e.8#f.#QtQtQtQtQtQt",
"QtQtQtQt.4.4#g#h#i#j#k#l.o.p.R.r.Z.S.T.D.E#m#n#o#p#q#j#r#s.X.O.t.u.v.w#t#u#v#w#x.#.#QtQtQtQtQtQt",
"QtQt#y#z#A#o#B#C#D#E#F#G.#.p.R.r.s.S.T.D#c#g#H#I#J#K#L#M#N#f.O.t.u.2.Y#O#P#Q#R#S.#.#QtQtQtQtQtQt",
"QtQt#T#o#U#V#W#X#Y#Z#0#1.#.p.q.A.s.S.T#.#2#U#L#3#4#5#6#7#8#9.#.t.u.2.wa.#Va#aaab.#.#QtQtQtQtQtQt",
"QtQtacad#Laeaf.#.#agahaiag.#.q.r.Z.S###u#U#Maaajakalamanaoapaq.#.u.v.war#Va#aaab.#.#QtQtQtQtQtQt",
"QtQtas#r#xat.#au.a.#avawax.#.R.r.s.SayazaAaBafaC.#.#aDaEaFaG#1.#.u.2.war#Va#aaab.#.#QtQtQtQtQtQt",
"QtQtaH#KaIaJ.#.a.aaK.#.#.#.#.q.r.saLaMaNaOaPaQ.#.3.W.#aRaSaO#4aT.#.v.war#Va#aaab.#.#QtQtQtQtQtQt",
"QtQt#saU#R#3aGaVa.aW.m.n.o.p.q.r.saX#w#MaYaZ.#.H.3.W.K.#aqaOa0a1.#.v.wa2#Va#aaab.#.#QtQtQtQtQtQt",
"QtQt.#a3a4apa5#Ka6.8a7a8au.p.q.r.sa7#r#Ra9b..#.H.3.W.K.##0a4b#aP.#.2.wa.#Va#aaab.#.#QtQtQtQtQtQt",
"QtQtQt#faJ#1aOa5#Lba#Q#rbb#l.R.r.sa7#kbcbd.#.G.H.3.W.K.1#f#8#1ab.#.v.wa.#Va#aaab.#.#QtQtQtQtQtQt",
"QtQtQt.#beataRbfaS#9#DaAbgaI#f.r.Z.8babcag.#.G.H.3.W.K.La.#Lbhab.#.v.wa.#Va#aaab.#.#QtQtQtQtQtQt",
"QtQtQtQt.#.#aPbdajbeaqapaI#0.#.r.Z#Oba#7#X.#.V.H.3.J.K.Lbi#ra3ab.#.v.wa.#Va#aaab.#.#QtQtQtQtQtQt",
"QtQtQtQtQtQt.#.#.#bjaE#6aO#5bk.#.Zarblbmbn.#.G.Hbo#.#z.Lbp#Q#0af.#.v.wbq#Va#aBbj.#.#QtQtQtQtQtQt",
"Qtbr.5braLa8bs.a.a.##1bcaOaJbt.#.s#lbu#x#1bvaV.Hbw#u#vbxby#K#Wbz.#.2.YbA#Va##1ah.#.#QtQtQtQtQtQt",
"QtbB#p#HbCbD.#.a.a.lbEaUbcatbF.#.s.#anbG#3a4a8.HaLbH#I#kaA#9aibI.#.2.wbA#Va##0a0.#.#QtQtQtQtQtQt",
"QtaV#JaAbJ#F#RbE.a.laXaA#0agaC.#.s.S.#bK#G#7#Mara7aHaUbLbLbMbt.#.u.2.wa.#ka#a3aO#lbbbiay#e.8#fQt",
"QtQt.#bv#GbGa5bNbBbxbHbDaRbO.#.r.s.B.#atbk#6#8#EbD#NaoaOaObMbn.#.u.2.w.8bP#FbcapaU#kbCbQ#w#x.#Qt",
"QtQt.#bRbea0a4bS#ra6bSaEbzbT.#.A.Z.S.C.#ajaTbUbVbV#ZbebebVaBbWbU.#.v.wasa##4aRbUaE#4bMaFbWaP.#Qt",
"QtQtQt.#afagbt#ZbkbeagbXbT.#.R.A.s.B.TbY.#bzbZbOb0b0b1bZb2aPb3aYb4.#.w.##Xb5b0b0b0b0b0b0b6bT.#Qt",
"QtQtQtQt.#.#b0bObXbsbT.#.#.#.#.#.#.S.T.D.E.#.#.#bTbTbT.#.#.#b7akb8.#.#.#.#.#.#.#.#.#.#.#.#.#.#Qt",
"QtQtQtQtQtQt.#.#.#.#.#QtQtQtQtQtQt.#.#.#.#.#.#.#.#.#.#.#.#b9.#b.bT.#QtQtQtQtQtQtQtQtQtQtQtQtQtQt",
"QtQtQtQtQtQtQtQtQtQtQtQtQtQtQtQtQtQtQtQtQtQtQtQtQtQtQtQtQtQtQt.#.#QtQtQtQtQtQtQtQtQtQtQtQtQtQtQt",
"QtQtQtQtQtQtQtQtQtQtQtQtQtQtQtQtQtQtQtQtQtQtQtQtQtQtQtQtQtQtQtQtQtQtQtQtQtQtQtQtQtQtQtQtQtQtQtQt"};
