/* XPM */
static const char *xpmWarning48[]={
"48 48 242 2",
"Qt c None",
"#h c #000000",
"a6 c #050505",
"#n c #101000",
"a0 c #151515",
".1 c #1d1d1d",
"aY c #202000",
"aV c #252525",
".0 c #2c2c2c",
"ax c #303000",
"aN c #343434",
".L c #3e3e3e",
"#z c #404000",
"aS c #414100",
"aH c #424242",
"aM c #464600",
"bL c #474700",
"bQ c #494900",
".K c #494949",
"bH c #4b4b00",
"aD c #4f4f4f",
"#I c #505000",
".v c #515151",
"a5 c #545400",
"bc c #575700",
"bB c #595900",
"bV c #5a5a00",
"br c #5b5b00",
"aC c #5d5d00",
".u c #5d5d5d",
"bz c #606000",
".t c #626262",
"bM c #656500",
"aZ c #676700",
"bR c #686800",
"bx c #6b6b00",
".h c #6f6f6f",
"ay c #707000",
"bG c #727200",
"bC c #737300",
"aq c #737373",
"bI c #747400",
"ak c #757575",
"aR c #767600",
"bt c #797900",
"bA c #7a7a00",
"ae c #7d7d7d",
"b# c #7e7e00",
"ap c #7f7f00",
".g c #7f7f7f",
"#P c #808000",
"bw c #828200",
"aG c #838300",
"bu c #848400",
"at c #868600",
"#9 c #868686",
"aB c #898900",
".f c #898989",
"#3 c #8b8b8b",
"bN c #8e8e00",
"be c #8f8f00",
"bv c #929200",
".e c #939393",
".d c #979797",
"#W c #989898",
"#8 c #999900",
"ad c #9a9a00",
"bf c #9b9b00",
"bS c #9c9c00",
".c c #9c9c9c",
"bE c #9f9f00",
"#S c #9f9f9f",
"bm c #a1a100",
".b c #a3a3a3",
"a8 c #a4a400",
"aj c #a5a500",
"by c #a7a700",
"bT c #aaaa00",
".a c #aaaaaa",
"#N c #acacac",
"ao c #adad00",
"aK c #afaf00",
"bU c #b0b000",
"bO c #b2b200",
".# c #b2b2b2",
"bn c #b3b300",
"bP c #b4b400",
"#u c #b5b5b5",
"#i c #b6b6b6",
".j c #b8b8b8",
"a4 c #b9b900",
".2 c #bababa",
".i c #bbbbbb",
"#2 c #bcbc00",
"as c #bdbd00",
".x c #bdbdbd",
".w c #bebebe",
"## c #bfbf00",
"#. c #bfbf01",
"#a c #bfbf02",
".9 c #bfbf06",
"#b c #bfbf07",
".8 c #bfbf0e",
".7 c #bfbf1e",
"#V c #c0c000",
"bb c #c2c200",
"bD c #c4c400",
"bK c #c5c500",
"bo c #c7c700",
"ac c #c8c800",
"aA c #caca00",
"bg c #cbcb00",
"bj c #cccc00",
"aF c #cfcf00",
"#m c #cfcf06",
"aQ c #d1d100",
"aL c #d4d400",
"ai c #dada00",
"bs c #dbdb00",
"b. c #dcdc00",
"#R c #dddd00",
"bh c #dede00",
"aX c #dfdf00",
"bd c #e0e000",
"bJ c #e1e100",
"#1 c #e3e300",
"bF c #e5e500",
"bk c #e6e600",
"an c #e8e800",
"#M c #ebeb00",
"#7 c #ecec00",
"ba c #eeee00",
"aU c #efef00",
".6 c #efef3e",
"bq c #f0f000",
"#D c #f2f200",
"ar c #f3f300",
"bp c #f4f400",
"ab c #f5f500",
"#Q c #f6f600",
"a3 c #f7f700",
"bl c #f8f800",
"az c #fbfb00",
"bi c #fcfc00",
"#t c #fdfd00",
"ah c #fefe00",
"#o c #ffff00",
"#U c #ffff01",
"#y c #ffff02",
"#p c #ffff03",
"#J c #ffff04",
"#0 c #ffff06",
"#x c #ffff08",
"#q c #ffff0a",
"a9 c #ffff0c",
"#L c #ffff0d",
"#H c #ffff0e",
"aE c #ffff10",
"#K c #ffff12",
"#A c #ffff15",
"#c c #ffff16",
"#C c #ffff17",
"a7 c #ffff18",
"#l c #ffff19",
"a2 c #ffff1a",
"a1 c #ffff1c",
"#B c #ffff1d",
"aW c #ffff20",
"aw c #ffff21",
"aT c #ffff23",
"#d c #ffff26",
"aP c #ffff29",
"#r c #ffff2b",
"#g c #ffff2c",
"#G c #ffff2e",
"#s c #ffff34",
"#k c #ffff35",
"#e c #ffff37",
".Z c #ffff3d",
"#f c #ffff40",
".T c #ffff42",
".S c #ffff43",
"aO c #ffff44",
".R c #ffff47",
".U c #ffff4a",
"aa c #ffff4c",
".Y c #ffff4d",
"am c #ffff4e",
"aI c #ffff4f",
".J c #ffff51",
"aJ c #ffff52",
".Q c #ffff53",
".X c #ffff54",
".V c #ffff58",
".W c #ffff5b",
".I c #ffff5e",
".H c #ffff64",
"#F c #ffff65",
"#Z c #ffff69",
"ag c #ffff6a",
"au c #ffff6b",
".s c #ffff6d",
"av c #ffff6f",
"#w c #ffff70",
"#6 c #ffff75",
"al c #ffff77",
".G c #ffff78",
".P c #ffff7c",
".r c #ffff7e",
"a# c #ffff7f",
"af c #ffff84",
".F c #ffff85",
".5 c #ffff86",
".E c #ffff88",
".q c #ffff89",
"a. c #ffff8a",
".D c #ffff8d",
"#4 c #ffff91",
"#5 c #ffff92",
".O c #ffff93",
".p c #ffff94",
"#Y c #ffff96",
".C c #ffff97",
".o c #ffff98",
".n c #ffff9d",
"#X c #ffff9e",
".B c #ffffa0",
".4 c #ffffa2",
".m c #ffffa6",
"#T c #ffffa8",
"#j c #ffffa9",
".l c #ffffac",
"#O c #ffffaf",
"#E c #ffffb0",
"#v c #ffffb2",
".A c #ffffb4",
".k c #ffffb5",
".z c #ffffb8",
".N c #ffffbb",
".y c #ffffbc",
".3 c #ffffbd",
".M c #ffffbe",
"QtQtQtQtQtQtQtQtQtQtQtQtQtQtQtQtQtQtQtQtQtQtQtQtQtQtQtQtQtQtQtQtQtQtQtQtQtQtQtQtQtQtQtQtQtQtQtQt",
"QtQtQtQtQtQtQtQtQtQtQtQtQtQtQtQtQtQtQtQtQtQtQtQtQtQtQtQtQtQtQtQtQtQtQtQtQtQtQtQtQtQtQtQtQtQtQtQt",
"QtQtQtQtQtQtQtQtQtQtQtQtQtQtQtQtQtQtQtQtQtQtQtQtQtQtQtQtQtQtQtQtQtQtQtQtQtQtQtQtQtQtQtQtQtQtQtQt",
"QtQtQtQtQtQtQtQtQtQtQtQtQtQtQtQtQtQtQt.#.a.b.c.d.d.e.f.g.hQtQtQtQtQtQtQtQtQtQtQtQtQtQtQtQtQtQtQt",
"QtQtQtQtQtQtQtQtQtQtQtQtQtQtQtQt.i.j.j.k.l.m.n.o.o.p.q.r.s.t.u.vQtQtQtQtQtQtQtQtQtQtQtQtQtQtQtQt",
"QtQtQtQtQtQtQtQtQtQtQtQtQtQt.w.x.y.z.A.l.B.C.D.E.E.F.r.G.s.H.I.J.K.LQtQtQtQtQtQtQtQtQtQtQtQtQtQt",
"QtQtQtQtQtQtQtQtQtQtQtQt.w.w.M.N.A.m.O.P.H.Q.R.S.S.T.S.U.J.V.W.X.Y.Z.0.1QtQtQtQtQtQtQtQtQtQtQtQt",
"QtQtQtQtQtQtQtQtQtQtQt.2.3.y.k.4.5.H.6.7.8.9#.#######a#b#c#d#e.S.U#f#g#c#hQtQtQtQtQtQtQtQtQtQtQt",
"QtQtQtQtQtQtQtQtQtQt#i.z.z#j.E.W#k#l#m#h#h#h#h#h#h#h#h#n#o#p#q#l#r#s#g#c#t#hQtQtQtQtQtQtQtQtQtQt",
"QtQtQtQtQtQtQtQtQt#u.k#v.n#w.Z#l#x#y#o#h#h#h#h#h#h#h#h#z#o#o#o#p#q#A#B#C#p#D#hQtQtQtQtQtQtQtQtQt",
"QtQtQtQtQtQtQtQt.#.A#E.o#F#G#H#y#o#o#o#n#h#h#h#h#h#h#h#I#o#o#o#o#o#J#q#K#L#t#M#hQtQtQtQtQtQtQtQt",
"QtQtQtQtQtQtQt#N#E#O.o#F#G#H#y#o#o#o#o#z#h#h#h#h#h#h#h#P#o#o#o#o#o#o#J#q#K#L#Q#R#hQtQtQtQtQtQtQt",
"QtQtQtQtQtQt#S.m#T.C#F#G#H#y#o#o#o#o#o#z#h#h#h#h#h#h#h#P#o#o#o#o#o#o#o#J#q#K#U#R#V#hQtQtQtQtQtQt",
"QtQtQtQtQtQt#W#X#Y#Z#G#H#y#o#o#o#o#o#o#P#h#h#h#h#h#h#h###o#o#o#o#o#o#o#o#J#q#0#1#2#hQtQtQtQtQtQt",
"QtQtQtQtQt#3#4#5#6#e#H#y#o#o#o#o#o#o#o#P#h#h#h#h#h#h#h###o#o#o#o#o#o#o#o#o#J#J#7###8#hQtQtQtQtQt",
"QtQtQtQtQt#9a.a#aa#c#y#o#o#o#o#o#o#o#o###h#h#h#h#h#h#h#o#o#o#o#o#o#o#o#o#o#o#Uabacad#hQtQtQtQtQt",
"QtQtQtQtaeaf.Fag#G#x#o#o#o#o#o#o#o#o#o###h#h#h#h#h#h#h#o#o#o#o#o#o#o#o#o#o#o#Uahaiaj#P#hQtQtQtQt",
"QtQtQtQtak.Palam#c#y#o#o#o#o#o#o#o#o#o#o#h#h#h#h#h#h#z#o#o#o#o#o#o#o#o#o#o#o#o#Uanaoap#hQtQtQtQt",
"QtQtQtQtaq.Gag#s#x#o#o#o#o#o#o#o#o#o#o#o#h#h#h#h#h#h#z#o#o#o#o#o#o#o#o#o#o#o#o#Uarasat#hQtQtQtQt",
"QtQtQt.tauav.Vaw#y#o#o#o#o#o#o#o#o#o#o#oax#h#h#h#h#hay#o#o#o#o#o#o#o#o#o#o#o#o#oazaAaBaC#hQtQtQt",
"QtQtQtaD.W.I.SaE#o#o#o#o#o#o#o#o#o#o#o#o#z#h#h#h#h#h#P#o#o#o#o#o#o#o#o#o#o#o#o#oahaFaG#I#hQtQtQt",
"QtQtQtaHaIaJ#k#x#o#o#o#o#o#o#o#o#o#o#o#oay#h#h#h#h#haK#o#o#o#o#o#o#o#o#o#o#o#o#o#UaLapaM#hQtQtQt",
"QtQtQtaN#faOaP#y#o#o#o#o#o#o#o#o#o#o#o#o#P#h#h#h#h#h###o#o#o#o#o#o#o#o#o#o#o#o#o#oaQaRaS#hQtQtQt",
"QtQtQt.0#e.ZaT#o#o#o#o#o#o#o#o#o#o#o#o#oaK#h#h#h#h#haU#o#o#o#o#o#o#o#o#o#o#o#o#o#oaFayaS#hQtQtQt",
"QtQtQt.0#e.ZaT#o#o#o#o#o#o#o#o#o#o#o#o#o###h#h#h#h#h#o#o#o#o#o#o#o#o#o#o#o#o#o#o#oaFayaS#hQtQtQt",
"QtQtQtaV#G#kaW#o#o#o#o#o#o#o#o#o#o#o#o#oaX#h#h#h#haY#o#o#o#o#o#o#o#o#o#o#o#o#o#o#tacaZaS#hQtQtQt",
"QtQtQta0a1#da2ah#o#o#o#o#o#o#o#o#o#o#o#o#o########aF#o#o#o#o#o#o#o#o#o#o#o#o#o#oa3a4a5aS#hQtQtQt",
"QtQtQta6#qa7#c#U#o#o#o#o#o#o#o#o#o#o#o#o#o#o#o#o#o#o#o#o#o#o#o#o#o#o#o#o#o#o#o#oaUa8aSaS#hQtQtQt",
"QtQtQt#haU#oa9#U#o#o#o#o#o#o#o#o#o#o#o#o#o#o#o#o#o#o#o#o#o#o#o#o#o#o#o#o#o#o#o#tb.b#aSaS#hQtQtQt",
"QtQtQtQt#hba#p#pah#o#o#o#o#o#o#o#o#o#o#o#o#o#o#o#o#o#o#o#o#o#o#o#o#o#o#o#o#o#oa3bbbcaS#hQtQtQtQt",
"QtQtQtQt#hbdab#U#t#o#o#o#o#o#o#o#o#o#oay#z#z#z#z#z#z#zbe#o#o#o#o#o#o#o#o#o#o#tanbfaSaS#hQtQtQtQt",
"QtQtQtQt#hbgbhabbiah#o#o#o#o#o#o#o#o###h#h#h#h#h#h#h#h#h#o#o#o#o#o#o#o#o#o#oa3bjaZaSaS#hQtQtQtQt",
"QtQtQtQtQt#hbjbkbl#t#o#o#o#o#o#o#o#o###h#h#h#h#h#h#h#h#h#o#o#o#o#o#o#o#o#o#tanbmaSaS#hQtQtQtQtQt",
"QtQtQtQtQt#hbnbo#1bpaz#o#o#o#o#o#o#o###h#h#h#h#h#h#h#h#h#o#o#o#o#o#o#o#o#tbq#VbraSaS#hQtQtQtQtQt",
"QtQtQtQtQtQt#ha8asbsbqaz#o#o#o#o#o#o###h#h#h#h#h#h#h#h#h#o#o#o#o#o#o#o#tbqbjbtaSaS#hQtQtQtQtQtQt",
"QtQtQtQtQtQt#hbubvaKaLbqaz#o#o#o#o#o###h#h#h#h#h#h#h#h#h#o#o#o#o#o#o#tbqbjbwaSaSaS#hQtQtQtQtQtQt",
"QtQtQtQtQtQtQt#hbx#PbyaLbqaz#o#o#o#o###h#h#h#h#h#h#h#h#h#o#o#o#o#o#tbqbjbwaSaSaS#hQtQtQtQtQtQtQt",
"QtQtQtQtQtQtQtQt#hbzbAbyaLbqaz#o#o#o###h#h#h#h#h#h#h#h#h#o#o#o#o#tbqbjbwaSaSaS#hQtQtQtQtQtQtQtQt",
"QtQtQtQtQtQtQtQtQt#hbBbC#8bD#1arbi#o#obz#z#z#z#z#z#z#zbE#o#o#t#QbF#2bGaSaSaS#hQtQtQtQtQtQtQtQtQt",
"QtQtQtQtQtQtQtQtQtQt#hbHbBbIbfbbbJarbi#o#o#o#o#o#o#o#o#o#t#QbFbKbvbLaSaSaS#hQtQtQtQtQtQtQtQtQtQt",
"QtQtQtQtQtQtQtQtQtQtQt#haSaSbLbMbNbOaQbkbpbi#o#o#o#t#Q#MaLbPatbHaSaSaSaS#hQtQtQtQtQtQtQtQtQtQtQt",
"QtQtQtQtQtQtQtQtQtQtQtQt#h#haSaSaSbQbRatbSbTbUbUbUbTbfaGbVaSaSaSaSaS#h#hQtQtQtQtQtQtQtQtQtQtQtQt",
"QtQtQtQtQtQtQtQtQtQtQtQtQtQt#h#haSaSaSaSaSaSaSaSaSaSaSaSaSaSaSaS#h#hQtQtQtQtQtQtQtQtQtQtQtQtQtQt",
"QtQtQtQtQtQtQtQtQtQtQtQtQtQtQtQt#h#h#haSaSaSaSaSaSaSaSaSaS#h#h#hQtQtQtQtQtQtQtQtQtQtQtQtQtQtQtQt",
"QtQtQtQtQtQtQtQtQtQtQtQtQtQtQtQtQtQtQt#h#h#h#h#h#h#h#h#h#hQtQtQtQtQtQtQtQtQtQtQtQtQtQtQtQtQtQtQt",
"QtQtQtQtQtQtQtQtQtQtQtQtQtQtQtQtQtQtQtQtQtQtQtQtQtQtQtQtQtQtQtQtQtQtQtQtQtQtQtQtQtQtQtQtQtQtQtQt",
"QtQtQtQtQtQtQtQtQtQtQtQtQtQtQtQtQtQtQtQtQtQtQtQtQtQtQtQtQtQtQtQtQtQtQtQtQtQtQtQtQtQtQtQtQtQtQtQt",
"QtQtQtQtQtQtQtQtQtQtQtQtQtQtQtQtQtQtQtQtQtQtQtQtQtQtQtQtQtQtQtQtQtQtQtQtQtQtQtQtQtQtQtQtQtQtQtQt"};
